G04*
G04 #@! TF.GenerationSoftware,Altium Limited,Altium Designer,24.9.1 (31)*
G04*
G04 Layer_Color=128*
%FSAX44Y44*%
%MOMM*%
G71*
G04*
G04 #@! TF.SameCoordinates,1C7D2F75-DE7C-4A18-9407-395BA348F32B*
G04*
G04*
G04 #@! TF.FilePolarity,Positive*
G04*
G01*
G75*
%ADD14C,0.1250*%
D14*
X04320000Y02497470D02*
X04324000D01*
X04322000Y02495470D02*
Y02499470D01*
X04328000Y02497470D02*
X04332000D01*
X04330000Y02495470D02*
Y02499470D01*
X04336000Y02497470D02*
X04340000D01*
X04338000Y02495470D02*
Y02499470D01*
X04344000Y02497470D02*
X04348000D01*
X04346000Y02495470D02*
Y02499470D01*
X04352000Y02497470D02*
X04356000D01*
X04354000Y02495470D02*
Y02499470D01*
X03949000Y02497511D02*
X03953000D01*
X03951000Y02495511D02*
Y02499510D01*
X03957000Y02497511D02*
X03961000D01*
X03959000Y02495511D02*
Y02499510D01*
X03965000Y02497511D02*
X03969000D01*
X03967000Y02495511D02*
Y02499510D01*
X03973000Y02497511D02*
X03977000D01*
X03975000Y02495511D02*
Y02499510D01*
X03981000Y02497510D02*
X03985000D01*
X03983000Y02495511D02*
Y02499510D01*
X03949000Y02452400D02*
X03953000D01*
X03951000Y02450400D02*
Y02454400D01*
X03957000Y02452400D02*
X03961000D01*
X03959000Y02450400D02*
Y02454400D01*
X03965000Y02452400D02*
X03969000D01*
X03967000Y02450400D02*
Y02454400D01*
X03973000Y02452400D02*
X03977000D01*
X03975000Y02450400D02*
Y02454400D01*
X03981000Y02452400D02*
X03985000D01*
X03983000Y02450400D02*
Y02454400D01*
X04320000Y02452400D02*
X04324000D01*
X04322000Y02450400D02*
Y02454400D01*
X04328000Y02452400D02*
X04332000D01*
X04330000Y02450400D02*
Y02454400D01*
X04336000Y02452400D02*
X04340000D01*
X04338000Y02450400D02*
Y02454400D01*
X04344000Y02452400D02*
X04348000D01*
X04346000Y02450400D02*
Y02454400D01*
X04352000Y02452400D02*
X04356000D01*
X04354000Y02450400D02*
Y02454400D01*
X04838400Y02497515D02*
X04842400D01*
X04840400Y02495515D02*
Y02499515D01*
X04846400Y02497515D02*
X04850400D01*
X04848400Y02495515D02*
Y02499515D01*
X04854400Y02497515D02*
X04858400D01*
X04856400Y02495515D02*
Y02499515D01*
X04862400Y02497515D02*
X04866400D01*
X04864400Y02495515D02*
Y02499515D01*
X04870400Y02497515D02*
X04874400D01*
X04872400Y02495515D02*
Y02499515D01*
X05205000Y02497566D02*
X05209000D01*
X05207000Y02495566D02*
Y02499566D01*
X05213000Y02497566D02*
X05217000D01*
X05215000Y02495566D02*
Y02499566D01*
X05221000Y02497566D02*
X05225000D01*
X05223000Y02495566D02*
Y02499566D01*
X05229000Y02497566D02*
X05233000D01*
X05231000Y02495566D02*
Y02499566D01*
X05237000Y02497566D02*
X05241000D01*
X05239000Y02495566D02*
Y02499566D01*
X04838400Y02452400D02*
X04842400D01*
X04840400Y02450400D02*
Y02454400D01*
X04846400Y02452400D02*
X04850400D01*
X04848400Y02450400D02*
Y02454400D01*
X04854400Y02452400D02*
X04858400D01*
X04856400Y02450400D02*
Y02454400D01*
X04862400Y02452400D02*
X04866400D01*
X04864400Y02450400D02*
Y02454400D01*
X04870400Y02452400D02*
X04874400D01*
X04872400Y02450400D02*
Y02454400D01*
X05205000Y02452400D02*
X05209000D01*
X05207000Y02450400D02*
Y02454400D01*
X05213000Y02452400D02*
X05217000D01*
X05215000Y02450400D02*
Y02454400D01*
X05221000Y02452400D02*
X05225000D01*
X05223000Y02450400D02*
Y02454400D01*
X05229000Y02452400D02*
X05233000D01*
X05231000Y02450400D02*
Y02454400D01*
X05237000Y02452400D02*
X05241000D01*
X05239000Y02450400D02*
Y02454400D01*
X04617796Y01738600D02*
X04621796D01*
X04619796Y01736600D02*
Y01740600D01*
X04617796Y01730600D02*
X04621796D01*
X04619796Y01728600D02*
Y01732600D01*
X04617796Y01722600D02*
X04621796D01*
X04619796Y01720600D02*
Y01724600D01*
X04617796Y01714600D02*
X04621796D01*
X04619796Y01712600D02*
Y01716600D01*
X04617796Y01706600D02*
X04621796D01*
X04619796Y01704600D02*
Y01708600D01*
X04572916Y01738600D02*
X04576916D01*
X04574915Y01736600D02*
Y01740600D01*
X04572916Y01730600D02*
X04576916D01*
X04574915Y01728600D02*
Y01732600D01*
X04572916Y01722600D02*
X04576916D01*
X04574915Y01720600D02*
Y01724600D01*
X04572916Y01714600D02*
X04576916D01*
X04574915Y01712600D02*
Y01716600D01*
X04572916Y01706600D02*
X04576916D01*
X04574915Y01704600D02*
Y01708600D01*
X04617757Y02041400D02*
X04621757D01*
X04619757Y02039400D02*
Y02043400D01*
X04617757Y02033400D02*
X04621757D01*
X04619757Y02031400D02*
Y02035400D01*
X04617757Y02025400D02*
X04621757D01*
X04619757Y02023400D02*
Y02027400D01*
X04617757Y02017400D02*
X04621757D01*
X04619757Y02015400D02*
Y02019400D01*
X04617757Y02009400D02*
X04621757D01*
X04619757Y02007400D02*
Y02011400D01*
X04572883Y02041400D02*
X04576884D01*
X04574883Y02039400D02*
Y02043400D01*
X04572883Y02033400D02*
X04576884D01*
X04574883Y02031400D02*
Y02035400D01*
X04572883Y02025400D02*
X04576884D01*
X04574883Y02023400D02*
Y02027400D01*
X04572883Y02017400D02*
X04576884D01*
X04574883Y02015400D02*
Y02019400D01*
X04572883Y02009400D02*
X04576884D01*
X04574883Y02007400D02*
Y02011400D01*
X04617854Y02344800D02*
X04621854D01*
X04619854Y02342800D02*
Y02346800D01*
X04617854Y02336800D02*
X04621854D01*
X04619854Y02334800D02*
Y02338800D01*
X04617854Y02328800D02*
X04621854D01*
X04619854Y02326800D02*
Y02330800D01*
X04617854Y02320800D02*
X04621854D01*
X04619854Y02318800D02*
Y02322800D01*
X04617854Y02312800D02*
X04621854D01*
X04619854Y02310800D02*
Y02314800D01*
X04572872Y02344800D02*
X04576872D01*
X04574872Y02342800D02*
Y02346800D01*
X04572872Y02336800D02*
X04576872D01*
X04574872Y02334800D02*
Y02338800D01*
X04572872Y02328800D02*
X04576872D01*
X04574872Y02326800D02*
Y02330800D01*
X04572872Y02320800D02*
X04576872D01*
X04574872Y02318800D02*
Y02322800D01*
X04572872Y02312800D02*
X04576872D01*
X04574872Y02310800D02*
Y02314800D01*
X04617762Y02643000D02*
X04621762D01*
X04619762Y02641000D02*
Y02645000D01*
X04617762Y02635000D02*
X04621762D01*
X04619762Y02633000D02*
Y02637000D01*
X04617762Y02627000D02*
X04621762D01*
X04619762Y02625000D02*
Y02629000D01*
X04617762Y02619000D02*
X04621762D01*
X04619762Y02617000D02*
Y02621000D01*
X04617762Y02611000D02*
X04621762D01*
X04619762Y02609000D02*
Y02613000D01*
X04572926Y02643000D02*
X04576926D01*
X04574926Y02641000D02*
Y02645000D01*
X04572926Y02635000D02*
X04576926D01*
X04574926Y02633000D02*
Y02637000D01*
X04572926Y02627000D02*
X04576926D01*
X04574926Y02625000D02*
Y02629000D01*
X04572926Y02619000D02*
X04576926D01*
X04574926Y02617000D02*
Y02621000D01*
X04572926Y02611000D02*
X04576926D01*
X04574926Y02609000D02*
Y02613000D01*
X03731534Y01738600D02*
X03735533D01*
X03733533Y01736600D02*
Y01740600D01*
X03731534Y01730600D02*
X03735533D01*
X03733533Y01728600D02*
Y01732600D01*
X03731534Y01722600D02*
X03735533D01*
X03733533Y01720600D02*
Y01724600D01*
X03731534Y01714600D02*
X03735533D01*
X03733533Y01712600D02*
Y01716600D01*
X03731534Y01706600D02*
X03735533D01*
X03733533Y01704600D02*
Y01708600D01*
X03731544Y02041400D02*
X03735544D01*
X03733544Y02039400D02*
Y02043400D01*
X03731544Y02033400D02*
X03735544D01*
X03733544Y02031400D02*
Y02035400D01*
X03731544Y02025400D02*
X03735544D01*
X03733544Y02023400D02*
Y02027400D01*
X03731544Y02017400D02*
X03735544D01*
X03733544Y02015400D02*
Y02019400D01*
X03731544Y02009400D02*
X03735544D01*
X03733543Y02007400D02*
Y02011400D01*
X03731537Y02344800D02*
X03735536D01*
X03733537Y02342800D02*
Y02346800D01*
X03731537Y02336800D02*
X03735536D01*
X03733537Y02334800D02*
Y02338800D01*
X03731537Y02328800D02*
X03735536D01*
X03733537Y02326800D02*
Y02330800D01*
X03731537Y02320800D02*
X03735536D01*
X03733537Y02318800D02*
Y02322800D01*
X03731537Y02312800D02*
X03735536D01*
X03733537Y02310800D02*
Y02314800D01*
X03731469Y02643000D02*
X03735468D01*
X03733468Y02641000D02*
Y02645000D01*
X03731469Y02635000D02*
X03735468D01*
X03733468Y02633000D02*
Y02637000D01*
X03731469Y02627000D02*
X03735468D01*
X03733468Y02625000D02*
Y02629000D01*
X03731469Y02619000D02*
X03735468D01*
X03733468Y02617000D02*
Y02621000D01*
X03731469Y02611000D02*
X03735468D01*
X03733468Y02609000D02*
Y02613000D01*
X03686800Y02643000D02*
X03690800D01*
X03688800Y02641000D02*
Y02645000D01*
X03686800Y02635000D02*
X03690800D01*
X03688800Y02633000D02*
Y02637000D01*
X03686800Y02627000D02*
X03690800D01*
X03688800Y02625000D02*
Y02629000D01*
X03686800Y02619000D02*
X03690800D01*
X03688800Y02617000D02*
Y02621000D01*
X03686800Y02611000D02*
X03690800D01*
X03688800Y02609000D02*
Y02613000D01*
X03686800Y02344800D02*
X03690800D01*
X03688800Y02342800D02*
Y02346800D01*
X03686800Y02336800D02*
X03690800D01*
X03688800Y02334800D02*
Y02338800D01*
X03686800Y02328800D02*
X03690800D01*
X03688800Y02326800D02*
Y02330800D01*
X03686800Y02320800D02*
X03690800D01*
X03688800Y02318800D02*
Y02322800D01*
X03686800Y02312800D02*
X03690800D01*
X03688800Y02310800D02*
Y02314800D01*
X03686800Y02041400D02*
X03690800D01*
X03688800Y02039400D02*
Y02043400D01*
X03686800Y02033400D02*
X03690800D01*
X03688800Y02031400D02*
Y02035400D01*
X03686800Y02025400D02*
X03690800D01*
X03688800Y02023400D02*
Y02027400D01*
X03686800Y02017400D02*
X03690800D01*
X03688800Y02015400D02*
Y02019400D01*
X03686800Y02009400D02*
X03690800D01*
X03688800Y02007400D02*
Y02011400D01*
X03686800Y01738600D02*
X03690800D01*
X03688800Y01736600D02*
Y01740600D01*
X03686800Y01730600D02*
X03690800D01*
X03688800Y01728600D02*
Y01732600D01*
X03686800Y01722600D02*
X03690800D01*
X03688800Y01720600D02*
Y01724600D01*
X03686800Y01714600D02*
X03690800D01*
X03688800Y01712600D02*
Y01716600D01*
X03686800Y01706600D02*
X03690800D01*
X03688800Y01704600D02*
Y01708600D01*
X03600200Y02497561D02*
X03604200D01*
X03602200Y02495561D02*
Y02499561D01*
X03592200Y02497561D02*
X03596200D01*
X03594200Y02495561D02*
Y02499561D01*
X03584200Y02497561D02*
X03588200D01*
X03586200Y02495561D02*
Y02499561D01*
X03576200Y02497561D02*
X03580200D01*
X03578200Y02495561D02*
Y02499561D01*
X03568200Y02497561D02*
X03572200D01*
X03570200Y02495561D02*
Y02499561D01*
X03600200Y02452451D02*
X03604200D01*
X03602200Y02450451D02*
Y02454451D01*
X03592200Y02452451D02*
X03596200D01*
X03594200Y02450451D02*
Y02454451D01*
X03584200Y02452451D02*
X03588200D01*
X03586200Y02450451D02*
Y02454451D01*
X03576200Y02452451D02*
X03580200D01*
X03578200Y02450451D02*
Y02454451D01*
X03568200Y02452451D02*
X03572200D01*
X03570200Y02450451D02*
Y02454451D01*
X03600200Y02197662D02*
X03604200D01*
X03602200Y02195662D02*
Y02199662D01*
X03592200Y02197662D02*
X03596200D01*
X03594200Y02195662D02*
Y02199662D01*
X03584200Y02197662D02*
X03588200D01*
X03586200Y02195662D02*
Y02199662D01*
X03576200Y02197662D02*
X03580200D01*
X03578200Y02195662D02*
Y02199662D01*
X03568200Y02197662D02*
X03572200D01*
X03570200Y02195662D02*
Y02199662D01*
X03600200Y02152482D02*
X03604200D01*
X03602200Y02150482D02*
Y02154482D01*
X03592200Y02152482D02*
X03596200D01*
X03594200Y02150482D02*
Y02154482D01*
X03584200Y02152482D02*
X03588200D01*
X03586200Y02150482D02*
Y02154482D01*
X03576200Y02152482D02*
X03580200D01*
X03578200Y02150482D02*
Y02154482D01*
X03568200Y02152482D02*
X03572200D01*
X03570200Y02150482D02*
Y02154482D01*
X03600200Y01897494D02*
X03604200D01*
X03602200Y01895494D02*
Y01899494D01*
X03592200Y01897494D02*
X03596200D01*
X03594200Y01895494D02*
Y01899494D01*
X03584200Y01897494D02*
X03588200D01*
X03586200Y01895494D02*
Y01899494D01*
X03576200Y01897494D02*
X03580200D01*
X03578200Y01895494D02*
Y01899494D01*
X03568200Y01897494D02*
X03572200D01*
X03570200Y01895494D02*
Y01899494D01*
X03600200Y01852600D02*
X03604200D01*
X03602200Y01850600D02*
Y01854600D01*
X03592200Y01852600D02*
X03596200D01*
X03594200Y01850600D02*
Y01854600D01*
X03584200Y01852600D02*
X03588200D01*
X03586200Y01850600D02*
Y01854600D01*
X03576200Y01852600D02*
X03580200D01*
X03578200Y01850600D02*
Y01854600D01*
X03568200Y01852600D02*
X03572200D01*
X03570200Y01850600D02*
Y01854600D01*
X03581649Y02549558D02*
X03590649D01*
X03586149Y02545058D02*
Y02554058D01*
X03581649Y01949557D02*
X03590649D01*
X03586149Y01945057D02*
Y01954057D01*
X03581649Y01649557D02*
X03590649D01*
X03586149Y01645057D02*
Y01654057D01*
X03831650Y01649557D02*
X03840650D01*
X03836150Y01645057D02*
Y01654057D01*
X04043700Y01849557D02*
X04052700D01*
X04048199Y01845057D02*
Y01854057D01*
X03831650Y01849557D02*
X03840650D01*
X03836150Y01845057D02*
Y01854057D01*
X04043700Y02049557D02*
X04052700D01*
X04048199Y02045057D02*
Y02054057D01*
X03831650Y02049557D02*
X03840650D01*
X03836150Y02045057D02*
Y02054057D01*
X03581649Y02249558D02*
X03590649D01*
X03586149Y02245058D02*
Y02254058D01*
X04043700Y02249557D02*
X04052700D01*
X04048199Y02245057D02*
Y02254057D01*
X03831650Y02249557D02*
X03840650D01*
X03836150Y02245057D02*
Y02254057D01*
X04043700Y02549562D02*
X04052700D01*
X04048199Y02545062D02*
Y02554062D01*
X03831650Y02549562D02*
X03840650D01*
X03836150Y02545062D02*
Y02554062D01*
X04043700Y01649557D02*
X04052700D01*
X04048199Y01645057D02*
Y01654057D01*
X04255749Y02049557D02*
X04264749D01*
X04260249Y02045057D02*
Y02054057D01*
X04255749Y01849557D02*
X04264749D01*
X04260249Y01845057D02*
Y01854057D01*
X04255749Y01649557D02*
X04264749D01*
X04260249Y01645057D02*
Y01654057D01*
X04255749Y02249557D02*
X04264749D01*
X04260249Y02245057D02*
Y02254057D01*
X04467799Y01849556D02*
X04476799D01*
X04472299Y01845056D02*
Y01854056D01*
X04467799Y02249556D02*
X04476799D01*
X04472299Y02245056D02*
Y02254057D01*
X04467799Y02049556D02*
X04476799D01*
X04472299Y02045056D02*
Y02054056D01*
X04467799Y01649556D02*
X04476799D01*
X04472299Y01645056D02*
Y01654056D01*
X05353949Y01649556D02*
X05362949D01*
X05358449Y01645056D02*
Y01654056D01*
X05141899Y01649556D02*
X05150899D01*
X05146399Y01645056D02*
Y01654056D01*
X04929849Y01649556D02*
X04938849D01*
X04934349Y01645056D02*
Y01654056D01*
X04717799Y01649556D02*
X04726799D01*
X04722299Y01645056D02*
Y01654056D01*
X05353949Y01849556D02*
X05362949D01*
X05358449Y01845056D02*
Y01854056D01*
X05141899Y01849556D02*
X05150899D01*
X05146399Y01845056D02*
Y01854056D01*
X04929849Y01849556D02*
X04938849D01*
X04934349Y01845056D02*
Y01854056D01*
X04717799Y01849556D02*
X04726799D01*
X04722299Y01845056D02*
Y01854056D01*
X05353949Y02049556D02*
X05362949D01*
X05358449Y02045056D02*
Y02054056D01*
X05141899Y02049556D02*
X05150899D01*
X05146399Y02045056D02*
Y02054056D01*
X04929849Y02049556D02*
X04938849D01*
X04934349Y02045056D02*
Y02054056D01*
X04717799Y02049556D02*
X04726799D01*
X04722299Y02045056D02*
Y02054057D01*
X05353949Y02249556D02*
X05362949D01*
X05358449Y02245056D02*
Y02254056D01*
X05141899Y02249556D02*
X05150899D01*
X05146399Y02245056D02*
Y02254056D01*
X04929849Y02249556D02*
X04938849D01*
X04934349Y02245056D02*
Y02254056D01*
X04717799Y02249556D02*
X04726799D01*
X04722299Y02245056D02*
Y02254057D01*
X04467799Y02549561D02*
X04476799D01*
X04472299Y02545061D02*
Y02554061D01*
X04255749Y02549562D02*
X04264749D01*
X04260249Y02545062D02*
Y02554062D01*
X05353949Y02549561D02*
X05362949D01*
X05358449Y02545061D02*
Y02554061D01*
X05141899Y02549561D02*
X05150899D01*
X05146399Y02545061D02*
Y02554061D01*
X04929849Y02549561D02*
X04938849D01*
X04934349Y02545061D02*
Y02554061D01*
X04717799Y02549562D02*
X04726799D01*
X04722299Y02545062D02*
Y02554061D01*
M02*
