G04*
G04 #@! TF.GenerationSoftware,Altium Limited,Altium Designer,24.9.1 (31)*
G04*
G04 Layer_Color=128*
%FSAX44Y44*%
%MOMM*%
G71*
G04*
G04 #@! TF.SameCoordinates,1C7D2F75-DE7C-4A18-9407-395BA348F32B*
G04*
G04*
G04 #@! TF.FilePolarity,Positive*
G04*
G01*
G75*
G04:AMPARAMS|DCode=10|XSize=0.8mm|YSize=0.39mm|CornerRadius=0.0975mm|HoleSize=0mm|Usage=FLASHONLY|Rotation=270.000|XOffset=0mm|YOffset=0mm|HoleType=Round|Shape=RoundedRectangle|*
%AMROUNDEDRECTD10*
21,1,0.8000,0.1950,0,0,270.0*
21,1,0.6050,0.3900,0,0,270.0*
1,1,0.1950,-0.0975,-0.3025*
1,1,0.1950,-0.0975,0.3025*
1,1,0.1950,0.0975,0.3025*
1,1,0.1950,0.0975,-0.3025*
%
%ADD10ROUNDEDRECTD10*%
G36*
X03842155Y02654068D02*
X03845999Y02652838D01*
X03849607Y02651029D01*
X03852892Y02648684D01*
X03855777Y02645862D01*
X03858192Y02642627D01*
X03860078Y02639059D01*
X03861391Y02635243D01*
X03862100Y02631270D01*
X03862187Y02627235D01*
X03861651Y02623235D01*
X03860503Y02619365D01*
X03858773Y02615719D01*
X03856500Y02612383D01*
X03853740Y02609439D01*
X03852149Y02608197D01*
X03840732Y02608197D01*
Y02620462D01*
Y02620462D01*
X03841605Y02621013D01*
X03843145Y02622385D01*
X03844351Y02624060D01*
X03845162Y02625956D01*
X03845541Y02627984D01*
X03845470Y02630045D01*
X03844951Y02632042D01*
X03844011Y02633878D01*
X03842693Y02635465D01*
X03841062Y02636727D01*
X03839194Y02637603D01*
X03837181Y02638052D01*
X03836150Y02638109D01*
X03836150D01*
X03835118Y02638052D01*
X03833105Y02637603D01*
X03831238Y02636727D01*
X03829606Y02635465D01*
X03828288Y02633878D01*
X03827348Y02632042D01*
X03826830Y02630045D01*
X03826758Y02627984D01*
X03827137Y02625956D01*
X03827949Y02624060D01*
X03829154Y02622385D01*
X03830694Y02621013D01*
X03831568Y02620462D01*
Y02608197D01*
X03820150Y02608197D01*
X03820150D01*
X03818559Y02609439D01*
X03815799Y02612383D01*
X03813527Y02615719D01*
X03811796Y02619365D01*
X03810649Y02623235D01*
X03810112Y02627235D01*
X03810199Y02631270D01*
X03810908Y02635243D01*
X03812221Y02639059D01*
X03814108Y02642627D01*
X03816522Y02645862D01*
X03819407Y02648684D01*
X03822692Y02651029D01*
X03826300Y02652838D01*
X03830144Y02654068D01*
X03834132Y02654691D01*
X03836150Y02654691D01*
X03838168Y02654691D01*
X03842155Y02654068D01*
D02*
G37*
G36*
X04054205Y02654068D02*
X04058049Y02652837D01*
X04061657Y02651028D01*
X04064942Y02648684D01*
X04067827Y02645862D01*
X04070241Y02642627D01*
X04072128Y02639059D01*
X04073441Y02635243D01*
X04074150Y02631270D01*
X04074237Y02627234D01*
X04073700Y02623234D01*
X04072553Y02619365D01*
X04070822Y02615719D01*
X04068550Y02612383D01*
X04065790Y02609438D01*
X04064199Y02608197D01*
X04052781Y02608197D01*
Y02620462D01*
Y02620462D01*
X04053655Y02621013D01*
X04055195Y02622385D01*
X04056400Y02624059D01*
X04057212Y02625956D01*
X04057591Y02627983D01*
X04057520Y02630045D01*
X04057001Y02632042D01*
X04056061Y02633877D01*
X04054743Y02635464D01*
X04053111Y02636727D01*
X04051244Y02637603D01*
X04049231Y02638052D01*
X04048199Y02638109D01*
X04048199D01*
X04047168Y02638052D01*
X04045155Y02637603D01*
X04043287Y02636727D01*
X04041656Y02635464D01*
X04040338Y02633877D01*
X04039398Y02632042D01*
X04038879Y02630045D01*
X04038808Y02627983D01*
X04039187Y02625956D01*
X04039998Y02624059D01*
X04041204Y02622385D01*
X04042744Y02621013D01*
X04043618Y02620462D01*
Y02608197D01*
X04032200Y02608197D01*
X04032200D01*
X04030609Y02609438D01*
X04027849Y02612383D01*
X04025576Y02615719D01*
X04023846Y02619365D01*
X04022698Y02623234D01*
X04022162Y02627234D01*
X04022249Y02631270D01*
X04022958Y02635243D01*
X04024271Y02639059D01*
X04026158Y02642627D01*
X04028572Y02645862D01*
X04031457Y02648684D01*
X04034742Y02651028D01*
X04038350Y02652837D01*
X04042194Y02654068D01*
X04046182Y02654691D01*
X04048199Y02654691D01*
X04050218Y02654691D01*
X04054205Y02654068D01*
D02*
G37*
G36*
X04266255Y02654068D02*
X04270099Y02652837D01*
X04273707Y02651028D01*
X04276992Y02648684D01*
X04279877Y02645861D01*
X04282291Y02642627D01*
X04284178Y02639059D01*
X04285491Y02635243D01*
X04286200Y02631270D01*
X04286287Y02627234D01*
X04285750Y02623234D01*
X04284603Y02619365D01*
X04282872Y02615718D01*
X04280600Y02612383D01*
X04277840Y02609438D01*
X04276249Y02608196D01*
X04264831Y02608196D01*
Y02620462D01*
Y02620462D01*
X04265705Y02621013D01*
X04267245Y02622385D01*
X04268450Y02624059D01*
X04269261Y02625956D01*
X04269641Y02627983D01*
X04269569Y02630045D01*
X04269051Y02632041D01*
X04268110Y02633877D01*
X04266793Y02635464D01*
X04265161Y02636726D01*
X04263294Y02637603D01*
X04261281Y02638052D01*
X04260249Y02638109D01*
X04260249D01*
X04259218Y02638052D01*
X04257205Y02637603D01*
X04255337Y02636726D01*
X04253706Y02635464D01*
X04252388Y02633877D01*
X04251447Y02632041D01*
X04250929Y02630045D01*
X04250858Y02627983D01*
X04251237Y02625956D01*
X04252048Y02624059D01*
X04253253Y02622385D01*
X04254794Y02621013D01*
X04255667Y02620462D01*
Y02608196D01*
X04244250Y02608196D01*
X04244250D01*
X04242659Y02609438D01*
X04239899Y02612383D01*
X04237626Y02615718D01*
X04235896Y02619365D01*
X04234748Y02623234D01*
X04234212Y02627234D01*
X04234299Y02631269D01*
X04235008Y02635243D01*
X04236321Y02639059D01*
X04238207Y02642627D01*
X04240622Y02645861D01*
X04243506Y02648684D01*
X04246792Y02651028D01*
X04250400Y02652837D01*
X04254243Y02654068D01*
X04258231Y02654691D01*
X04260249Y02654691D01*
X04262267Y02654691D01*
X04266255Y02654068D01*
D02*
G37*
G36*
X04478305Y02654067D02*
X04482149Y02652837D01*
X04485757Y02651028D01*
X04489042Y02648684D01*
X04491927Y02645861D01*
X04494341Y02642627D01*
X04496227Y02639059D01*
X04497541Y02635243D01*
X04498250Y02631269D01*
X04498336Y02627234D01*
X04497800Y02623234D01*
X04496653Y02619364D01*
X04494922Y02615718D01*
X04492650Y02612383D01*
X04489890Y02609438D01*
X04488299Y02608196D01*
X04476881Y02608196D01*
Y02620462D01*
Y02620462D01*
X04477755Y02621013D01*
X04479295Y02622385D01*
X04480500Y02624059D01*
X04481311Y02625956D01*
X04481691Y02627983D01*
X04481619Y02630045D01*
X04481101Y02632041D01*
X04480160Y02633877D01*
X04478842Y02635464D01*
X04477211Y02636726D01*
X04475344Y02637603D01*
X04473330Y02638052D01*
X04472299Y02638109D01*
X04472299D01*
X04471268Y02638052D01*
X04469254Y02637603D01*
X04467387Y02636726D01*
X04465756Y02635464D01*
X04464438Y02633877D01*
X04463497Y02632041D01*
X04462979Y02630045D01*
X04462907Y02627983D01*
X04463287Y02625956D01*
X04464098Y02624059D01*
X04465303Y02622385D01*
X04466844Y02621013D01*
X04467717Y02620462D01*
Y02608196D01*
X04456299Y02608196D01*
X04456299D01*
X04454709Y02609438D01*
X04451949Y02612383D01*
X04449676Y02615718D01*
X04447946Y02619364D01*
X04446798Y02623234D01*
X04446262Y02627234D01*
X04446349Y02631269D01*
X04447057Y02635242D01*
X04448371Y02639059D01*
X04450257Y02642627D01*
X04452672Y02645861D01*
X04455556Y02648684D01*
X04458842Y02651028D01*
X04462450Y02652837D01*
X04466293Y02654067D01*
X04470281Y02654690D01*
X04472299Y02654690D01*
X04474317Y02654690D01*
X04478305Y02654067D01*
D02*
G37*
G36*
X03592155Y02654064D02*
X03595998Y02652833D01*
X03599606Y02651024D01*
X03602892Y02648680D01*
X03605776Y02645858D01*
X03608191Y02642623D01*
X03610077Y02639055D01*
X03611390Y02635239D01*
X03612099Y02631266D01*
X03612186Y02627231D01*
X03611649Y02623230D01*
X03610502Y02619361D01*
X03608772Y02615715D01*
X03606499Y02612379D01*
X03603739Y02609435D01*
X03602148Y02608193D01*
X03590731Y02608193D01*
Y02620458D01*
Y02620458D01*
X03591604Y02621010D01*
X03593145Y02622381D01*
X03594349Y02624055D01*
X03595161Y02625952D01*
X03595540Y02627980D01*
X03595469Y02630041D01*
X03594951Y02632038D01*
X03594010Y02633874D01*
X03592692Y02635461D01*
X03591060Y02636723D01*
X03589193Y02637599D01*
X03587180Y02638048D01*
X03586149Y02638105D01*
X03586149D01*
X03585117Y02638048D01*
X03583104Y02637599D01*
X03581237Y02636723D01*
X03579605Y02635461D01*
X03578287Y02633874D01*
X03577347Y02632038D01*
X03576828Y02630041D01*
X03576757Y02627980D01*
X03577136Y02625952D01*
X03577948Y02624055D01*
X03579153Y02622381D01*
X03580693Y02621010D01*
X03581567Y02620458D01*
Y02608193D01*
X03570149Y02608193D01*
X03570149D01*
X03568558Y02609435D01*
X03565798Y02612379D01*
X03563526Y02615715D01*
X03561795Y02619361D01*
X03560648Y02623230D01*
X03560111Y02627231D01*
X03560198Y02631266D01*
X03560907Y02635239D01*
X03562220Y02639055D01*
X03564107Y02642623D01*
X03566521Y02645858D01*
X03569406Y02648680D01*
X03572691Y02651024D01*
X03576299Y02652833D01*
X03580143Y02654064D01*
X03584131Y02654687D01*
X03586149Y02654687D01*
X03588167Y02654687D01*
X03592155Y02654064D01*
D02*
G37*
G36*
X03842155Y02354063D02*
X03845999Y02352832D01*
X03849607Y02351024D01*
X03852892Y02348680D01*
X03855777Y02345857D01*
X03858192Y02342622D01*
X03860078Y02339054D01*
X03861391Y02335238D01*
X03862100Y02331265D01*
X03862187Y02327230D01*
X03861651Y02323230D01*
X03860503Y02319360D01*
X03858773Y02315714D01*
X03856500Y02312379D01*
X03853740Y02309434D01*
X03852149Y02308192D01*
X03840732Y02308192D01*
Y02320457D01*
Y02320457D01*
X03841605Y02321009D01*
X03843145Y02322380D01*
X03844351Y02324055D01*
X03845162Y02325951D01*
X03845541Y02327979D01*
X03845470Y02330040D01*
X03844951Y02332037D01*
X03844011Y02333873D01*
X03842693Y02335460D01*
X03841062Y02336722D01*
X03839194Y02337598D01*
X03837181Y02338047D01*
X03836150Y02338104D01*
X03836150D01*
X03835118Y02338047D01*
X03833105Y02337598D01*
X03831238Y02336722D01*
X03829606Y02335460D01*
X03828288Y02333873D01*
X03827348Y02332037D01*
X03826830Y02330040D01*
X03826758Y02327979D01*
X03827137Y02325951D01*
X03827949Y02324055D01*
X03829154Y02322380D01*
X03830694Y02321009D01*
X03831568Y02320457D01*
Y02308192D01*
X03820150Y02308192D01*
X03820150D01*
X03818559Y02309434D01*
X03815799Y02312379D01*
X03813527Y02315714D01*
X03811796Y02319360D01*
X03810649Y02323230D01*
X03810112Y02327230D01*
X03810199Y02331265D01*
X03810908Y02335238D01*
X03812221Y02339054D01*
X03814108Y02342622D01*
X03816522Y02345857D01*
X03819407Y02348680D01*
X03822692Y02351024D01*
X03826300Y02352832D01*
X03830144Y02354063D01*
X03834132Y02354686D01*
X03836150Y02354686D01*
X03838168Y02354686D01*
X03842155Y02354063D01*
D02*
G37*
G36*
X04054205Y02354063D02*
X04058049Y02352832D01*
X04061657Y02351023D01*
X04064942Y02348679D01*
X04067827Y02345856D01*
X04070241Y02342622D01*
X04072128Y02339054D01*
X04073441Y02335238D01*
X04074150Y02331265D01*
X04074237Y02327229D01*
X04073700Y02323229D01*
X04072553Y02319360D01*
X04070822Y02315714D01*
X04068550Y02312378D01*
X04065790Y02309433D01*
X04064199Y02308192D01*
X04052781Y02308192D01*
Y02320457D01*
Y02320457D01*
X04053655Y02321008D01*
X04055195Y02322380D01*
X04056400Y02324055D01*
X04057212Y02325951D01*
X04057591Y02327979D01*
X04057520Y02330040D01*
X04057001Y02332037D01*
X04056061Y02333872D01*
X04054743Y02335459D01*
X04053111Y02336721D01*
X04051244Y02337598D01*
X04049231Y02338047D01*
X04048199Y02338104D01*
X04048199D01*
X04047168Y02338047D01*
X04045155Y02337598D01*
X04043287Y02336721D01*
X04041656Y02335459D01*
X04040338Y02333872D01*
X04039398Y02332037D01*
X04038879Y02330040D01*
X04038808Y02327979D01*
X04039187Y02325951D01*
X04039998Y02324055D01*
X04041204Y02322380D01*
X04042744Y02321008D01*
X04043618Y02320457D01*
Y02308192D01*
X04032200Y02308192D01*
X04032200D01*
X04030609Y02309433D01*
X04027849Y02312378D01*
X04025576Y02315714D01*
X04023846Y02319360D01*
X04022698Y02323229D01*
X04022162Y02327229D01*
X04022249Y02331264D01*
X04022958Y02335238D01*
X04024271Y02339054D01*
X04026158Y02342622D01*
X04028572Y02345856D01*
X04031457Y02348679D01*
X04034742Y02351023D01*
X04038350Y02352832D01*
X04042194Y02354063D01*
X04046182Y02354686D01*
X04048199Y02354686D01*
X04050218Y02354686D01*
X04054205Y02354063D01*
D02*
G37*
G36*
X04266255Y02354063D02*
X04270099Y02352832D01*
X04273707Y02351023D01*
X04276992Y02348679D01*
X04279877Y02345856D01*
X04282291Y02342622D01*
X04284178Y02339054D01*
X04285491Y02335238D01*
X04286200Y02331264D01*
X04286287Y02327229D01*
X04285750Y02323229D01*
X04284603Y02319360D01*
X04282872Y02315714D01*
X04280600Y02312378D01*
X04277840Y02309433D01*
X04276249Y02308191D01*
X04264831Y02308191D01*
Y02320457D01*
Y02320457D01*
X04265705Y02321008D01*
X04267245Y02322380D01*
X04268450Y02324054D01*
X04269261Y02325951D01*
X04269641Y02327978D01*
X04269569Y02330040D01*
X04269051Y02332036D01*
X04268110Y02333872D01*
X04266793Y02335459D01*
X04265161Y02336721D01*
X04263294Y02337598D01*
X04261281Y02338047D01*
X04260249Y02338104D01*
X04260249D01*
X04259218Y02338047D01*
X04257205Y02337598D01*
X04255337Y02336721D01*
X04253706Y02335459D01*
X04252388Y02333872D01*
X04251447Y02332036D01*
X04250929Y02330040D01*
X04250858Y02327978D01*
X04251237Y02325951D01*
X04252048Y02324054D01*
X04253253Y02322380D01*
X04254794Y02321008D01*
X04255667Y02320457D01*
Y02308191D01*
X04244250Y02308191D01*
X04244250D01*
X04242659Y02309433D01*
X04239899Y02312378D01*
X04237626Y02315714D01*
X04235896Y02319360D01*
X04234748Y02323229D01*
X04234212Y02327229D01*
X04234299Y02331264D01*
X04235008Y02335238D01*
X04236321Y02339054D01*
X04238207Y02342622D01*
X04240622Y02345856D01*
X04243506Y02348679D01*
X04246792Y02351023D01*
X04250400Y02352832D01*
X04254243Y02354063D01*
X04258231Y02354686D01*
X04260249Y02354686D01*
X04262267Y02354686D01*
X04266255Y02354063D01*
D02*
G37*
G36*
X04478305Y02354062D02*
X04482149Y02352832D01*
X04485757Y02351023D01*
X04489042Y02348679D01*
X04491927Y02345856D01*
X04494341Y02342622D01*
X04496227Y02339054D01*
X04497541Y02335237D01*
X04498250Y02331264D01*
X04498336Y02327229D01*
X04497800Y02323229D01*
X04496653Y02319359D01*
X04494922Y02315713D01*
X04492650Y02312378D01*
X04489890Y02309433D01*
X04488299Y02308191D01*
X04476881Y02308191D01*
Y02320457D01*
Y02320457D01*
X04477755Y02321008D01*
X04479295Y02322380D01*
X04480500Y02324054D01*
X04481311Y02325950D01*
X04481691Y02327978D01*
X04481619Y02330040D01*
X04481101Y02332036D01*
X04480160Y02333872D01*
X04478842Y02335459D01*
X04477211Y02336721D01*
X04475344Y02337598D01*
X04473330Y02338047D01*
X04472299Y02338103D01*
X04472299D01*
X04471268Y02338047D01*
X04469254Y02337598D01*
X04467387Y02336721D01*
X04465756Y02335459D01*
X04464438Y02333872D01*
X04463497Y02332036D01*
X04462979Y02330040D01*
X04462907Y02327978D01*
X04463287Y02325950D01*
X04464098Y02324054D01*
X04465303Y02322380D01*
X04466844Y02321008D01*
X04467717Y02320457D01*
Y02308191D01*
X04456299Y02308191D01*
X04456299D01*
X04454709Y02309433D01*
X04451949Y02312378D01*
X04449676Y02315713D01*
X04447946Y02319359D01*
X04446798Y02323229D01*
X04446262Y02327229D01*
X04446349Y02331264D01*
X04447057Y02335237D01*
X04448371Y02339054D01*
X04450257Y02342622D01*
X04452672Y02345856D01*
X04455556Y02348679D01*
X04458842Y02351023D01*
X04462450Y02352832D01*
X04466293Y02354062D01*
X04470281Y02354685D01*
X04472299Y02354685D01*
X04474317Y02354685D01*
X04478305Y02354062D01*
D02*
G37*
G36*
X03842155Y02154063D02*
X03845999Y02152832D01*
X03849607Y02151024D01*
X03852892Y02148679D01*
X03855777Y02145856D01*
X03858192Y02142622D01*
X03860078Y02139054D01*
X03861391Y02135238D01*
X03862100Y02131265D01*
X03862187Y02127230D01*
X03861651Y02123229D01*
X03860503Y02119360D01*
X03858773Y02115714D01*
X03856500Y02112378D01*
X03853740Y02109434D01*
X03852149Y02108192D01*
X03840732Y02108192D01*
Y02120457D01*
Y02120457D01*
X03841605Y02121009D01*
X03843145Y02122380D01*
X03844351Y02124055D01*
X03845162Y02125951D01*
X03845541Y02127979D01*
X03845470Y02130040D01*
X03844951Y02132037D01*
X03844011Y02133873D01*
X03842693Y02135460D01*
X03841062Y02136722D01*
X03839194Y02137598D01*
X03837181Y02138047D01*
X03836150Y02138104D01*
X03836150D01*
X03835118Y02138047D01*
X03833105Y02137598D01*
X03831238Y02136722D01*
X03829606Y02135460D01*
X03828288Y02133873D01*
X03827348Y02132037D01*
X03826830Y02130040D01*
X03826758Y02127979D01*
X03827137Y02125951D01*
X03827949Y02124055D01*
X03829154Y02122380D01*
X03830694Y02121008D01*
X03831568Y02120457D01*
Y02108192D01*
X03820150Y02108192D01*
X03820150D01*
X03818559Y02109434D01*
X03815799Y02112378D01*
X03813527Y02115714D01*
X03811796Y02119360D01*
X03810649Y02123229D01*
X03810112Y02127230D01*
X03810199Y02131265D01*
X03810908Y02135238D01*
X03812221Y02139054D01*
X03814108Y02142622D01*
X03816522Y02145856D01*
X03819407Y02148679D01*
X03822692Y02151024D01*
X03826300Y02152832D01*
X03830144Y02154063D01*
X03834132Y02154686D01*
X03836150Y02154686D01*
X03838168Y02154686D01*
X03842155Y02154063D01*
D02*
G37*
G36*
X04054205Y02154063D02*
X04058049Y02152832D01*
X04061657Y02151023D01*
X04064942Y02148679D01*
X04067827Y02145856D01*
X04070241Y02142622D01*
X04072128Y02139054D01*
X04073441Y02135238D01*
X04074150Y02131264D01*
X04074237Y02127229D01*
X04073700Y02123229D01*
X04072553Y02119360D01*
X04070822Y02115714D01*
X04068550Y02112378D01*
X04065790Y02109433D01*
X04064199Y02108192D01*
X04052781Y02108192D01*
Y02120457D01*
Y02120457D01*
X04053655Y02121008D01*
X04055195Y02122380D01*
X04056400Y02124054D01*
X04057212Y02125951D01*
X04057591Y02127978D01*
X04057520Y02130040D01*
X04057001Y02132037D01*
X04056061Y02133872D01*
X04054743Y02135459D01*
X04053111Y02136721D01*
X04051244Y02137598D01*
X04049231Y02138047D01*
X04048199Y02138104D01*
X04048199D01*
X04047168Y02138047D01*
X04045155Y02137598D01*
X04043287Y02136721D01*
X04041656Y02135459D01*
X04040338Y02133872D01*
X04039398Y02132037D01*
X04038879Y02130040D01*
X04038808Y02127978D01*
X04039187Y02125951D01*
X04039998Y02124054D01*
X04041204Y02122380D01*
X04042744Y02121008D01*
X04043618Y02120457D01*
Y02108192D01*
X04032200Y02108192D01*
X04032200D01*
X04030609Y02109433D01*
X04027849Y02112378D01*
X04025576Y02115714D01*
X04023846Y02119360D01*
X04022698Y02123229D01*
X04022162Y02127229D01*
X04022249Y02131264D01*
X04022958Y02135238D01*
X04024271Y02139054D01*
X04026158Y02142622D01*
X04028572Y02145856D01*
X04031457Y02148679D01*
X04034742Y02151023D01*
X04038350Y02152832D01*
X04042194Y02154063D01*
X04046182Y02154686D01*
X04048199Y02154686D01*
X04050218Y02154686D01*
X04054205Y02154063D01*
D02*
G37*
G36*
X04266255Y02154063D02*
X04270099Y02152832D01*
X04273707Y02151023D01*
X04276992Y02148679D01*
X04279877Y02145856D01*
X04282291Y02142622D01*
X04284178Y02139054D01*
X04285491Y02135238D01*
X04286200Y02131264D01*
X04286287Y02127229D01*
X04285750Y02123229D01*
X04284603Y02119359D01*
X04282872Y02115713D01*
X04280600Y02112378D01*
X04277840Y02109433D01*
X04276249Y02108191D01*
X04264831Y02108191D01*
Y02120457D01*
Y02120457D01*
X04265705Y02121008D01*
X04267245Y02122380D01*
X04268450Y02124054D01*
X04269261Y02125951D01*
X04269641Y02127978D01*
X04269569Y02130040D01*
X04269051Y02132036D01*
X04268110Y02133872D01*
X04266793Y02135459D01*
X04265161Y02136721D01*
X04263294Y02137598D01*
X04261281Y02138047D01*
X04260249Y02138104D01*
X04260249D01*
X04259218Y02138047D01*
X04257205Y02137598D01*
X04255337Y02136721D01*
X04253706Y02135459D01*
X04252388Y02133872D01*
X04251447Y02132036D01*
X04250929Y02130040D01*
X04250858Y02127978D01*
X04251237Y02125951D01*
X04252048Y02124054D01*
X04253253Y02122380D01*
X04254794Y02121008D01*
X04255667Y02120457D01*
Y02108191D01*
X04244250Y02108191D01*
X04244250D01*
X04242659Y02109433D01*
X04239899Y02112378D01*
X04237626Y02115713D01*
X04235896Y02119359D01*
X04234748Y02123229D01*
X04234212Y02127229D01*
X04234299Y02131264D01*
X04235008Y02135238D01*
X04236321Y02139054D01*
X04238207Y02142622D01*
X04240622Y02145856D01*
X04243506Y02148679D01*
X04246792Y02151023D01*
X04250400Y02152832D01*
X04254243Y02154063D01*
X04258231Y02154685D01*
X04260249Y02154685D01*
X04262267Y02154685D01*
X04266255Y02154063D01*
D02*
G37*
G36*
X04478305Y02154062D02*
X04482149Y02152832D01*
X04485757Y02151023D01*
X04489042Y02148679D01*
X04491927Y02145856D01*
X04494341Y02142622D01*
X04496227Y02139054D01*
X04497541Y02135237D01*
X04498250Y02131264D01*
X04498336Y02127229D01*
X04497800Y02123229D01*
X04496653Y02119359D01*
X04494922Y02115713D01*
X04492650Y02112378D01*
X04489890Y02109433D01*
X04488299Y02108191D01*
X04476881Y02108191D01*
Y02120457D01*
Y02120457D01*
X04477755Y02121008D01*
X04479295Y02122380D01*
X04480500Y02124054D01*
X04481311Y02125950D01*
X04481691Y02127978D01*
X04481619Y02130040D01*
X04481101Y02132036D01*
X04480160Y02133872D01*
X04478842Y02135459D01*
X04477211Y02136721D01*
X04475344Y02137598D01*
X04473330Y02138047D01*
X04472299Y02138103D01*
X04472299D01*
X04471268Y02138047D01*
X04469254Y02137598D01*
X04467387Y02136721D01*
X04465756Y02135459D01*
X04464438Y02133872D01*
X04463497Y02132036D01*
X04462979Y02130040D01*
X04462907Y02127978D01*
X04463287Y02125950D01*
X04464098Y02124054D01*
X04465303Y02122380D01*
X04466844Y02121008D01*
X04467717Y02120457D01*
Y02108191D01*
X04456299Y02108191D01*
X04456299D01*
X04454709Y02109433D01*
X04451949Y02112378D01*
X04449676Y02115713D01*
X04447946Y02119359D01*
X04446798Y02123229D01*
X04446262Y02127229D01*
X04446349Y02131264D01*
X04447057Y02135237D01*
X04448371Y02139054D01*
X04450257Y02142622D01*
X04452672Y02145856D01*
X04455556Y02148679D01*
X04458842Y02151023D01*
X04462450Y02152832D01*
X04466293Y02154062D01*
X04470281Y02154685D01*
X04472299Y02154685D01*
X04474317Y02154685D01*
X04478305Y02154062D01*
D02*
G37*
G36*
X03592155Y02054063D02*
X03595998Y02052832D01*
X03599606Y02051024D01*
X03602892Y02048679D01*
X03605776Y02045856D01*
X03608191Y02042622D01*
X03610077Y02039054D01*
X03611390Y02035238D01*
X03612099Y02031265D01*
X03612186Y02027230D01*
X03611650Y02023229D01*
X03610502Y02019360D01*
X03608772Y02015714D01*
X03606499Y02012378D01*
X03603739Y02009434D01*
X03602148Y02008192D01*
X03590731Y02008192D01*
Y02020457D01*
Y02020457D01*
X03591604Y02021008D01*
X03593145Y02022380D01*
X03594349Y02024055D01*
X03595161Y02025951D01*
X03595540Y02027979D01*
X03595469Y02030040D01*
X03594951Y02032037D01*
X03594010Y02033873D01*
X03592692Y02035460D01*
X03591060Y02036722D01*
X03589193Y02037598D01*
X03587180Y02038047D01*
X03586149Y02038104D01*
X03586149D01*
X03585117Y02038047D01*
X03583104Y02037598D01*
X03581237Y02036722D01*
X03579605Y02035460D01*
X03578287Y02033873D01*
X03577347Y02032037D01*
X03576828Y02030040D01*
X03576757Y02027979D01*
X03577136Y02025951D01*
X03577948Y02024055D01*
X03579153Y02022380D01*
X03580693Y02021008D01*
X03581567Y02020457D01*
Y02008192D01*
X03570149Y02008192D01*
X03570149D01*
X03568558Y02009434D01*
X03565798Y02012378D01*
X03563526Y02015714D01*
X03561795Y02019360D01*
X03560648Y02023229D01*
X03560111Y02027230D01*
X03560198Y02031265D01*
X03560907Y02035238D01*
X03562220Y02039054D01*
X03564107Y02042622D01*
X03566521Y02045856D01*
X03569406Y02048679D01*
X03572691Y02051024D01*
X03576299Y02052832D01*
X03580143Y02054063D01*
X03584131Y02054686D01*
X03586149Y02054686D01*
X03588167Y02054686D01*
X03592155Y02054063D01*
D02*
G37*
G36*
X03842155Y01954063D02*
X03845999Y01952832D01*
X03849607Y01951024D01*
X03852892Y01948679D01*
X03855777Y01945856D01*
X03858192Y01942622D01*
X03860078Y01939054D01*
X03861391Y01935238D01*
X03862100Y01931265D01*
X03862187Y01927230D01*
X03861651Y01923229D01*
X03860503Y01919360D01*
X03858773Y01915714D01*
X03856500Y01912378D01*
X03853740Y01909434D01*
X03852149Y01908192D01*
X03840732Y01908192D01*
Y01920457D01*
Y01920457D01*
X03841605Y01921009D01*
X03843145Y01922380D01*
X03844351Y01924055D01*
X03845162Y01925951D01*
X03845541Y01927979D01*
X03845470Y01930040D01*
X03844951Y01932037D01*
X03844011Y01933873D01*
X03842693Y01935460D01*
X03841062Y01936722D01*
X03839194Y01937598D01*
X03837181Y01938047D01*
X03836150Y01938104D01*
X03836150D01*
X03835118Y01938047D01*
X03833105Y01937598D01*
X03831238Y01936722D01*
X03829606Y01935460D01*
X03828288Y01933873D01*
X03827348Y01932037D01*
X03826830Y01930040D01*
X03826758Y01927979D01*
X03827137Y01925951D01*
X03827949Y01924055D01*
X03829154Y01922380D01*
X03830694Y01921008D01*
X03831568Y01920457D01*
Y01908192D01*
X03820150Y01908192D01*
X03820150D01*
X03818559Y01909434D01*
X03815799Y01912378D01*
X03813527Y01915714D01*
X03811796Y01919360D01*
X03810649Y01923229D01*
X03810112Y01927230D01*
X03810199Y01931265D01*
X03810908Y01935238D01*
X03812221Y01939054D01*
X03814108Y01942622D01*
X03816522Y01945856D01*
X03819407Y01948679D01*
X03822692Y01951024D01*
X03826300Y01952832D01*
X03830144Y01954063D01*
X03834132Y01954686D01*
X03836150Y01954686D01*
X03838168Y01954686D01*
X03842155Y01954063D01*
D02*
G37*
G36*
X04054205Y01954063D02*
X04058049Y01952832D01*
X04061657Y01951023D01*
X04064942Y01948679D01*
X04067827Y01945856D01*
X04070241Y01942622D01*
X04072128Y01939054D01*
X04073441Y01935238D01*
X04074150Y01931264D01*
X04074237Y01927229D01*
X04073700Y01923229D01*
X04072553Y01919360D01*
X04070822Y01915714D01*
X04068550Y01912378D01*
X04065790Y01909433D01*
X04064199Y01908192D01*
X04052781Y01908192D01*
Y01920457D01*
Y01920457D01*
X04053655Y01921008D01*
X04055195Y01922380D01*
X04056400Y01924054D01*
X04057212Y01925951D01*
X04057591Y01927978D01*
X04057520Y01930040D01*
X04057001Y01932036D01*
X04056061Y01933872D01*
X04054743Y01935459D01*
X04053111Y01936721D01*
X04051244Y01937598D01*
X04049231Y01938047D01*
X04048199Y01938104D01*
X04048199D01*
X04047168Y01938047D01*
X04045155Y01937598D01*
X04043287Y01936721D01*
X04041656Y01935459D01*
X04040338Y01933872D01*
X04039398Y01932036D01*
X04038879Y01930040D01*
X04038808Y01927978D01*
X04039187Y01925951D01*
X04039998Y01924054D01*
X04041204Y01922380D01*
X04042744Y01921008D01*
X04043618Y01920457D01*
Y01908192D01*
X04032200Y01908192D01*
X04032200D01*
X04030609Y01909433D01*
X04027849Y01912378D01*
X04025576Y01915714D01*
X04023846Y01919360D01*
X04022698Y01923229D01*
X04022162Y01927229D01*
X04022249Y01931264D01*
X04022958Y01935238D01*
X04024271Y01939054D01*
X04026158Y01942622D01*
X04028572Y01945856D01*
X04031457Y01948679D01*
X04034742Y01951023D01*
X04038350Y01952832D01*
X04042194Y01954063D01*
X04046182Y01954686D01*
X04048199Y01954686D01*
X04050218Y01954686D01*
X04054205Y01954063D01*
D02*
G37*
G36*
X04266255Y01954063D02*
X04270099Y01952832D01*
X04273707Y01951023D01*
X04276992Y01948679D01*
X04279877Y01945856D01*
X04282291Y01942622D01*
X04284178Y01939054D01*
X04285491Y01935238D01*
X04286200Y01931264D01*
X04286287Y01927229D01*
X04285750Y01923229D01*
X04284603Y01919359D01*
X04282872Y01915713D01*
X04280600Y01912378D01*
X04277840Y01909433D01*
X04276249Y01908191D01*
X04264831Y01908191D01*
Y01920457D01*
Y01920457D01*
X04265705Y01921008D01*
X04267245Y01922380D01*
X04268450Y01924054D01*
X04269261Y01925951D01*
X04269641Y01927978D01*
X04269569Y01930040D01*
X04269051Y01932036D01*
X04268110Y01933872D01*
X04266793Y01935459D01*
X04265161Y01936721D01*
X04263294Y01937598D01*
X04261281Y01938047D01*
X04260249Y01938104D01*
X04260249D01*
X04259218Y01938047D01*
X04257205Y01937598D01*
X04255337Y01936721D01*
X04253706Y01935459D01*
X04252388Y01933872D01*
X04251447Y01932036D01*
X04250929Y01930040D01*
X04250858Y01927978D01*
X04251237Y01925951D01*
X04252048Y01924054D01*
X04253253Y01922380D01*
X04254794Y01921008D01*
X04255667Y01920457D01*
Y01908191D01*
X04244250Y01908191D01*
X04244250D01*
X04242659Y01909433D01*
X04239899Y01912378D01*
X04237626Y01915713D01*
X04235896Y01919359D01*
X04234748Y01923229D01*
X04234212Y01927229D01*
X04234299Y01931264D01*
X04235008Y01935238D01*
X04236321Y01939054D01*
X04238207Y01942622D01*
X04240622Y01945856D01*
X04243506Y01948679D01*
X04246792Y01951023D01*
X04250400Y01952832D01*
X04254243Y01954063D01*
X04258231Y01954685D01*
X04260249Y01954685D01*
X04262267Y01954685D01*
X04266255Y01954063D01*
D02*
G37*
G36*
X04478305Y01954062D02*
X04482149Y01952832D01*
X04485757Y01951023D01*
X04489042Y01948679D01*
X04491927Y01945856D01*
X04494341Y01942622D01*
X04496227Y01939054D01*
X04497541Y01935237D01*
X04498250Y01931264D01*
X04498336Y01927229D01*
X04497800Y01923229D01*
X04496653Y01919359D01*
X04494922Y01915713D01*
X04492650Y01912378D01*
X04489890Y01909433D01*
X04488299Y01908191D01*
X04476881Y01908191D01*
Y01920457D01*
Y01920457D01*
X04477755Y01921008D01*
X04479295Y01922380D01*
X04480500Y01924054D01*
X04481311Y01925950D01*
X04481691Y01927978D01*
X04481619Y01930040D01*
X04481101Y01932036D01*
X04480160Y01933872D01*
X04478842Y01935459D01*
X04477211Y01936721D01*
X04475344Y01937598D01*
X04473330Y01938047D01*
X04472299Y01938103D01*
X04472299D01*
X04471268Y01938047D01*
X04469254Y01937598D01*
X04467387Y01936721D01*
X04465756Y01935459D01*
X04464438Y01933872D01*
X04463497Y01932036D01*
X04462979Y01930040D01*
X04462907Y01927978D01*
X04463287Y01925950D01*
X04464098Y01924054D01*
X04465303Y01922380D01*
X04466844Y01921008D01*
X04467717Y01920457D01*
Y01908191D01*
X04456299Y01908191D01*
X04456299D01*
X04454709Y01909433D01*
X04451949Y01912378D01*
X04449676Y01915713D01*
X04447946Y01919359D01*
X04446798Y01923229D01*
X04446262Y01927229D01*
X04446349Y01931264D01*
X04447057Y01935237D01*
X04448371Y01939054D01*
X04450257Y01942622D01*
X04452672Y01945856D01*
X04455556Y01948679D01*
X04458842Y01951023D01*
X04462450Y01952832D01*
X04466293Y01954062D01*
X04470281Y01954685D01*
X04472299Y01954685D01*
X04474317Y01954685D01*
X04478305Y01954062D01*
D02*
G37*
G36*
X03842155Y01754063D02*
X03845999Y01752832D01*
X03849607Y01751023D01*
X03852892Y01748679D01*
X03855777Y01745856D01*
X03858192Y01742622D01*
X03860078Y01739054D01*
X03861391Y01735238D01*
X03862100Y01731265D01*
X03862187Y01727230D01*
X03861651Y01723229D01*
X03860503Y01719360D01*
X03858773Y01715714D01*
X03856500Y01712378D01*
X03853740Y01709434D01*
X03852149Y01708192D01*
X03840732Y01708192D01*
Y01720457D01*
Y01720457D01*
X03841605Y01721008D01*
X03843145Y01722380D01*
X03844351Y01724055D01*
X03845162Y01725951D01*
X03845541Y01727979D01*
X03845470Y01730040D01*
X03844951Y01732037D01*
X03844011Y01733873D01*
X03842693Y01735459D01*
X03841062Y01736722D01*
X03839194Y01737598D01*
X03837181Y01738047D01*
X03836150Y01738104D01*
X03836150D01*
X03835118Y01738047D01*
X03833105Y01737598D01*
X03831238Y01736722D01*
X03829606Y01735459D01*
X03828288Y01733873D01*
X03827348Y01732037D01*
X03826830Y01730040D01*
X03826758Y01727979D01*
X03827137Y01725951D01*
X03827949Y01724055D01*
X03829154Y01722380D01*
X03830694Y01721008D01*
X03831568Y01720457D01*
Y01708192D01*
X03820150Y01708192D01*
X03820150D01*
X03818559Y01709434D01*
X03815799Y01712378D01*
X03813527Y01715714D01*
X03811796Y01719360D01*
X03810649Y01723229D01*
X03810112Y01727229D01*
X03810199Y01731265D01*
X03810908Y01735238D01*
X03812221Y01739054D01*
X03814108Y01742622D01*
X03816522Y01745856D01*
X03819407Y01748679D01*
X03822692Y01751023D01*
X03826300Y01752832D01*
X03830144Y01754063D01*
X03834132Y01754686D01*
X03836150Y01754686D01*
X03838168Y01754686D01*
X03842155Y01754063D01*
D02*
G37*
G36*
X04054205Y01754063D02*
X04058049Y01752832D01*
X04061657Y01751023D01*
X04064942Y01748679D01*
X04067827Y01745856D01*
X04070241Y01742622D01*
X04072128Y01739054D01*
X04073441Y01735238D01*
X04074150Y01731264D01*
X04074237Y01727229D01*
X04073700Y01723229D01*
X04072553Y01719360D01*
X04070822Y01715714D01*
X04068550Y01712378D01*
X04065790Y01709433D01*
X04064199Y01708192D01*
X04052781Y01708192D01*
Y01720457D01*
Y01720457D01*
X04053655Y01721008D01*
X04055195Y01722380D01*
X04056400Y01724054D01*
X04057212Y01725951D01*
X04057591Y01727978D01*
X04057520Y01730040D01*
X04057001Y01732036D01*
X04056061Y01733872D01*
X04054743Y01735459D01*
X04053111Y01736721D01*
X04051244Y01737598D01*
X04049231Y01738047D01*
X04048199Y01738104D01*
X04048199D01*
X04047168Y01738047D01*
X04045155Y01737598D01*
X04043287Y01736721D01*
X04041656Y01735459D01*
X04040338Y01733872D01*
X04039398Y01732036D01*
X04038879Y01730040D01*
X04038808Y01727978D01*
X04039187Y01725951D01*
X04039998Y01724054D01*
X04041204Y01722380D01*
X04042744Y01721008D01*
X04043618Y01720457D01*
Y01708192D01*
X04032200Y01708192D01*
X04032200D01*
X04030609Y01709433D01*
X04027849Y01712378D01*
X04025576Y01715714D01*
X04023846Y01719360D01*
X04022698Y01723229D01*
X04022162Y01727229D01*
X04022249Y01731264D01*
X04022958Y01735238D01*
X04024271Y01739054D01*
X04026158Y01742622D01*
X04028572Y01745856D01*
X04031457Y01748679D01*
X04034742Y01751023D01*
X04038350Y01752832D01*
X04042194Y01754063D01*
X04046182Y01754686D01*
X04048199Y01754686D01*
X04050218Y01754686D01*
X04054205Y01754063D01*
D02*
G37*
G36*
X04266255Y01754063D02*
X04270099Y01752832D01*
X04273707Y01751023D01*
X04276992Y01748679D01*
X04279877Y01745856D01*
X04282291Y01742622D01*
X04284178Y01739054D01*
X04285491Y01735237D01*
X04286200Y01731264D01*
X04286287Y01727229D01*
X04285750Y01723229D01*
X04284603Y01719359D01*
X04282872Y01715713D01*
X04280600Y01712378D01*
X04277840Y01709433D01*
X04276249Y01708191D01*
X04264831Y01708191D01*
Y01720457D01*
Y01720457D01*
X04265705Y01721008D01*
X04267245Y01722380D01*
X04268450Y01724054D01*
X04269261Y01725951D01*
X04269641Y01727978D01*
X04269569Y01730040D01*
X04269051Y01732036D01*
X04268110Y01733872D01*
X04266793Y01735459D01*
X04265161Y01736721D01*
X04263294Y01737598D01*
X04261281Y01738047D01*
X04260249Y01738103D01*
X04260249D01*
X04259218Y01738047D01*
X04257205Y01737598D01*
X04255337Y01736721D01*
X04253706Y01735459D01*
X04252388Y01733872D01*
X04251447Y01732036D01*
X04250929Y01730040D01*
X04250858Y01727978D01*
X04251237Y01725950D01*
X04252048Y01724054D01*
X04253253Y01722380D01*
X04254794Y01721008D01*
X04255667Y01720457D01*
Y01708191D01*
X04244250Y01708191D01*
X04244250D01*
X04242659Y01709433D01*
X04239899Y01712378D01*
X04237626Y01715713D01*
X04235896Y01719359D01*
X04234748Y01723229D01*
X04234212Y01727229D01*
X04234299Y01731264D01*
X04235008Y01735237D01*
X04236321Y01739054D01*
X04238207Y01742622D01*
X04240622Y01745856D01*
X04243506Y01748679D01*
X04246792Y01751023D01*
X04250400Y01752832D01*
X04254243Y01754063D01*
X04258231Y01754685D01*
X04260249Y01754685D01*
X04262267Y01754685D01*
X04266255Y01754063D01*
D02*
G37*
G36*
X04478305Y01754062D02*
X04482149Y01752832D01*
X04485757Y01751023D01*
X04489042Y01748679D01*
X04491927Y01745856D01*
X04494341Y01742622D01*
X04496227Y01739054D01*
X04497541Y01735237D01*
X04498250Y01731264D01*
X04498336Y01727229D01*
X04497800Y01723229D01*
X04496653Y01719359D01*
X04494922Y01715713D01*
X04492650Y01712378D01*
X04489890Y01709433D01*
X04488299Y01708191D01*
X04476881Y01708191D01*
Y01720457D01*
Y01720457D01*
X04477755Y01721008D01*
X04479295Y01722380D01*
X04480500Y01724054D01*
X04481311Y01725950D01*
X04481691Y01727978D01*
X04481619Y01730040D01*
X04481101Y01732036D01*
X04480160Y01733872D01*
X04478842Y01735459D01*
X04477211Y01736721D01*
X04475344Y01737598D01*
X04473330Y01738047D01*
X04472299Y01738103D01*
X04472299D01*
X04471268Y01738047D01*
X04469254Y01737598D01*
X04467387Y01736721D01*
X04465756Y01735459D01*
X04464438Y01733872D01*
X04463497Y01732036D01*
X04462979Y01730040D01*
X04462907Y01727978D01*
X04463287Y01725950D01*
X04464098Y01724054D01*
X04465303Y01722380D01*
X04466844Y01721008D01*
X04467717Y01720457D01*
Y01708191D01*
X04456299Y01708191D01*
X04456299D01*
X04454709Y01709433D01*
X04451949Y01712378D01*
X04449676Y01715713D01*
X04447946Y01719359D01*
X04446798Y01723229D01*
X04446262Y01727229D01*
X04446349Y01731264D01*
X04447057Y01735237D01*
X04448371Y01739054D01*
X04450257Y01742622D01*
X04452672Y01745856D01*
X04455556Y01748679D01*
X04458842Y01751023D01*
X04462450Y01752832D01*
X04466293Y01754062D01*
X04470281Y01754685D01*
X04472299Y01754685D01*
X04474317Y01754685D01*
X04478305Y01754062D01*
D02*
G37*
%LPC*%
G36*
X03836150Y02654691D02*
D01*
X03836150D01*
X03836150D01*
D02*
G37*
G36*
X04048199Y02654691D02*
D01*
X04048199D01*
X04048199D01*
D02*
G37*
G36*
X04260249Y02654691D02*
D01*
X04260249D01*
X04260249D01*
D02*
G37*
G36*
X04472299Y02654690D02*
D01*
X04472299D01*
X04472299D01*
D02*
G37*
G36*
X03586149Y02654687D02*
D01*
X03586149D01*
X03586149D01*
D02*
G37*
G36*
X03836150Y02354686D02*
D01*
X03836150D01*
X03836150D01*
D02*
G37*
G36*
X04048199Y02354686D02*
D01*
X04048199D01*
X04048199D01*
D02*
G37*
G36*
X04260249Y02354686D02*
D01*
X04260249D01*
X04260249D01*
D02*
G37*
G36*
X04472299Y02354685D02*
D01*
X04472299D01*
X04472299D01*
D02*
G37*
G36*
X03836150Y02154686D02*
D01*
X03836150D01*
X03836150D01*
D02*
G37*
G36*
X04048199Y02154686D02*
D01*
X04048199D01*
X04048199D01*
D02*
G37*
G36*
X04260249Y02154685D02*
D01*
X04260249D01*
X04260249D01*
D02*
G37*
G36*
X04472299Y02154685D02*
D01*
X04472299D01*
X04472299D01*
D02*
G37*
G36*
X03586149Y02054686D02*
X03586149D01*
X03586149D01*
D01*
D02*
G37*
G36*
X03836150Y01954686D02*
D01*
X03836150D01*
X03836150D01*
D02*
G37*
G36*
X04048199Y01954686D02*
D01*
X04048199D01*
X04048199D01*
D02*
G37*
G36*
X04260249Y01954685D02*
D01*
X04260249D01*
X04260249D01*
D02*
G37*
G36*
X04472299Y01954685D02*
D01*
X04472299D01*
X04472299D01*
D02*
G37*
G36*
X03836150Y01754686D02*
D01*
X03836150D01*
X03836150D01*
D02*
G37*
G36*
X04048199Y01754686D02*
D01*
X04048199D01*
X04048199D01*
D02*
G37*
G36*
X04260249Y01754685D02*
D01*
X04260249D01*
X04260249D01*
D02*
G37*
G36*
X04472299Y01754685D02*
D01*
X04472299D01*
X04472299D01*
D02*
G37*
%LPD*%
D10*
X03586149Y02646687D02*
D03*
Y02604058D02*
D03*
X03586149Y02004057D02*
D03*
Y02046686D02*
D03*
X03836150Y02604062D02*
D03*
Y02646691D02*
D03*
X04048199Y02604062D02*
D03*
Y02646691D02*
D03*
X04260249Y02604062D02*
D03*
Y02646690D02*
D03*
X04472299Y02604062D02*
D03*
Y02646690D02*
D03*
X03836150Y02304057D02*
D03*
Y02346686D02*
D03*
X04048199Y02304057D02*
D03*
Y02346686D02*
D03*
X04260249Y02304057D02*
D03*
Y02346685D02*
D03*
X04472299Y02304057D02*
D03*
Y02346685D02*
D03*
X03836150Y02104057D02*
D03*
Y02146686D02*
D03*
X04048199Y02104057D02*
D03*
Y02146686D02*
D03*
X04260249Y02104057D02*
D03*
Y02146685D02*
D03*
X04472299Y02104056D02*
D03*
Y02146685D02*
D03*
X03836150Y01904057D02*
D03*
Y01946686D02*
D03*
X04048199Y01904057D02*
D03*
Y01946686D02*
D03*
X04260249Y01904057D02*
D03*
Y01946685D02*
D03*
X04472299Y01904056D02*
D03*
Y01946685D02*
D03*
X03836150Y01704057D02*
D03*
Y01746686D02*
D03*
X04260249Y01704057D02*
D03*
Y01746685D02*
D03*
X04472299Y01704056D02*
D03*
Y01746685D02*
D03*
X04048199Y01704057D02*
D03*
Y01746686D02*
D03*
M02*
