M48
;Layer_Color=9474304
;FILE_FORMAT=4:2
METRIC
;TYPE=PLATED
T01F00S00C0.20
;TYPE=NON_PLATED
%
T01
X035606Y016240
X035706
X035606Y016350
Y016450
Y016550
Y016650
Y016750
Y016850
Y016950
Y017050
X035604Y017148
Y017236
X035704
X035706Y019240
X035606
Y019350
Y019450
Y019550
Y019650
Y019750
X036118
Y019650
Y019550
Y019450
Y019350
X036118Y019240
X036018
X035918
X035806
X035804Y017236
X035916
X036016
X036116
X036118Y017148
X036118Y017050
Y016950
Y016850
Y016750
Y016650
Y016550
Y016450
Y016350
X036118Y016240
X036018
X035918
X035806
X038106
X038206
X038306
X038418
X038518
X038618
X038618Y016350
Y016450
Y016550
Y016650
Y016750
Y016850
Y016950
Y017050
X038618Y017148
X038492Y017160
X038548Y017266
X038526Y017366
X038458Y017432
X038364Y017466
X038270Y017432
X038202Y017366
X038180Y017266
X038236Y017160
X038104Y017148
X038106Y017050
Y016950
Y016850
Y016750
Y016650
Y016550
Y016450
Y016350
Y018240
X038206
X038306
X038418
X038518
X038618
X038618Y018350
Y018450
Y018550
Y018650
Y018750
Y018850
Y018950
Y019050
X038618Y019148
X038492Y019160
X038548Y019266
X038526Y019366
X038458Y019432
X038364Y019466
X038270Y019432
X038202Y019366
X038180Y019266
X038236Y019160
X038104Y019148
X038106Y019050
Y018950
Y018850
Y018750
Y018650
Y018550
Y018450
Y018350
X040227Y018350
Y018450
Y018550
Y018650
Y018750
Y018850
Y018950
Y019050
X040225Y019148
X040357Y019160
X040301Y019266
X040323Y019366
X040391Y019432
X040485Y019466
X040579Y019432
X040647Y019366
X040669Y019266
X040613Y019160
X040739Y019148
X040739Y019050
Y018950
Y018850
Y018750
Y018650
Y018550
Y018450
Y018350
X040739Y018240
X040639
X040539
X040427
X040327
X040227
X040323Y017366
X040301Y017266
X040357Y017160
X040225Y017148
X040227Y017050
Y016950
Y016850
Y016750
Y016650
Y016550
Y016450
Y016350
Y016240
X040327
X040427
X040539
X040639
X040739
X040739Y016350
Y016450
Y016550
Y016650
Y016750
Y016850
Y016950
Y017050
X040739Y017148
X040613Y017160
X040669Y017266
X040647Y017366
X040579Y017432
X040485Y017466
X040391Y017432
X042443Y017366
X042421Y017266
X042477Y017160
X042345Y017148
X042347Y017050
Y016950
Y016850
Y016750
Y016650
Y016550
Y016450
Y016350
Y016240
X042447
X042547
X042659
X042759
X042859
X042859Y016350
Y016450
Y016550
Y016650
Y016750
Y016850
Y016950
Y017050
X042859Y017148
X042733Y017160
X042789Y017266
X042767Y017366
X042699Y017432
X042605Y017466
X042511Y017432
X042547Y018240
X042447
X042347
Y018350
Y018450
Y018550
Y018650
Y018750
Y018850
Y018950
Y019050
X042345Y019148
X042477Y019160
X042421Y019266
X042443Y019366
X042511Y019432
X042605Y019466
X042699Y019432
X042767Y019366
X042789Y019266
X042733Y019160
X042859Y019148
X042859Y019050
Y018950
Y018850
Y018750
Y018650
Y018550
Y018450
Y018350
X042859Y018240
X042759
X042659
X044468Y018240
X044568
X044668
X044780
X044880
X044980
X044980Y018350
Y018450
Y018550
Y018650
Y018750
Y018850
Y018950
Y019050
X044980Y019148
X044854Y019160
X044910Y019266
X044888Y019366
X044820Y019432
X044726Y019466
X044632Y019432
X044564Y019366
X044542Y019266
X044598Y019160
X044466Y019148
X044468Y019050
Y018950
Y018850
Y018750
Y018650
Y018550
Y018450
Y018350
X044564Y017366
X044542Y017266
X044598Y017160
X044466Y017148
X044468Y017050
Y016950
Y016850
Y016750
Y016650
Y016550
Y016450
Y016350
Y016240
X044568
X044668
X044780
X044880
X044980
X044980Y016350
Y016450
Y016550
Y016650
Y016750
Y016850
Y016950
Y017050
X044980Y017148
X044854Y017160
X044910Y017266
X044888Y017366
X044820Y017432
X044726Y017466
X044632Y017432
X046966Y017236
Y017148
X046968Y017050
Y016950
Y016850
Y016750
Y016650
Y016550
Y016450
Y016350
Y016240
X047068
X047168
X047280
X047380
X047480
X047480Y016350
Y016450
Y016550
Y016650
Y016750
Y016850
Y016950
Y017050
X047480Y017148
X047478Y017236
X047378
X047278
X047166
X047066
X047068Y018240
X047168
X047280
X047380
X047480
X047480Y018350
Y018450
Y018550
Y018650
Y018750
Y018850
Y018950
Y019050
X047480Y019148
X047478Y019236
X047378
X047278
X047166
X047066
X046966
Y019148
X046968Y019050
Y018950
Y018850
Y018750
Y018650
Y018550
Y018450
Y018350
Y018240
X049088Y018240
X049188
X049288
X049400
X049500
X049600
X049600Y018350
Y018450
Y018550
Y018650
Y018750
Y018850
Y018950
Y019050
X049600Y019148
X049598Y019236
X049498
X049398
X049286
X049186
X049086
Y019148
X049088Y019050
Y018950
Y018850
Y018750
Y018650
Y018550
Y018450
Y018350
X049086Y017236
Y017148
X049088Y017050
Y016950
Y016850
Y016750
Y016650
Y016550
Y016450
Y016350
Y016240
X049188
X049288
X049400
X049500
X049600
X049600Y016350
Y016450
Y016550
Y016650
Y016750
Y016850
Y016950
Y017050
X049600Y017148
X049598Y017236
X049498
X049398
X049286
X049186
X051207Y017236
Y017148
X051209Y017050
Y016950
Y016850
Y016750
Y016650
Y016550
Y016450
Y016350
Y016240
X051309
X051409
X051521
X051519Y017236
X051407
X051307
X051309Y018240
X051409
X051521
X051209
Y018350
Y018450
Y018550
Y018650
Y018750
Y018850
Y018950
Y019050
X051207Y019148
Y019236
X051307
X051407
X051519
X051619
X051719
X051721Y019148
X051721Y019050
Y018950
Y018850
Y018750
Y018650
Y018550
Y018450
Y018350
X051721Y018240
X051621
X051619Y017236
X051719
X051721Y017148
X051721Y017050
Y016950
Y016850
Y016750
Y016650
Y016550
Y016450
Y016350
X051721Y016240
X051621
X053329Y016240
X053429
X053529
X053641
X053741
X053841
X053841Y016350
Y016450
Y016550
Y016650
Y016750
Y016850
Y016950
Y017050
X053841Y017148
X053839Y017236
X053739
X053639
X053527
X053427
X053327
Y017148
X053329Y017050
Y016950
Y016850
Y016750
Y016650
Y016550
Y016450
Y016350
Y018240
X053429
X053529
X053641
X053741
X053841
X053841Y018350
Y018450
Y018550
Y018650
Y018750
Y018850
Y018950
Y019050
X053841Y019148
X053839Y019236
X053739
X053639
X053527
X053427
X053327
Y019148
X053329Y019050
Y018950
Y018850
Y018750
Y018650
Y018550
Y018450
Y018350
Y020240
X053429
X053529
X053641
X053741
X053841
X053841Y020350
Y020450
Y020550
Y020650
Y020750
Y020850
Y020950
Y021050
X053841Y021148
X053839Y021236
X053739
X053639
X053527
X053427
X053327
Y021148
X053329Y021050
Y020950
Y020850
Y020750
Y020650
Y020550
Y020450
Y020350
X051721Y020350
Y020450
Y020550
Y020650
Y020750
Y020850
Y020950
Y021050
X051721Y021148
X051719Y021236
X051619
X051621Y020240
X051721
Y022240
X051621
X051721Y022350
Y022450
Y022550
Y022650
Y022750
Y022850
Y022950
Y023050
X051721Y023148
X051719Y023236
X051619
X053327Y023236
Y023148
X053329Y023050
Y022950
Y022850
Y022750
Y022650
Y022550
Y022450
Y022350
Y022240
X053429
X053529
X053641
X053741
X053841
X053841Y022350
Y022450
Y022550
Y022650
Y022750
Y022850
Y022950
Y023050
X053841Y023148
X053839Y023236
X053739
X053639
X053527
X053427
X051519Y023236
X051407
X051307
X051207
Y023148
X051209Y023050
Y022950
Y022850
Y022750
Y022650
Y022550
Y022450
Y022350
Y022240
X051309
X051409
X051521
X051519Y021236
X051407
X051307
X051207
Y021148
X051209Y021050
Y020950
Y020850
Y020750
Y020650
Y020550
Y020450
Y020350
Y020240
X051309
X051409
X051521
X049600Y020240
X049500
X049400
X049288
X049188
X049088
Y020350
Y020450
Y020550
Y020650
Y020750
Y020850
Y020950
Y021050
X049086Y021148
Y021236
X049186
X049286
X049398
X049498
X049598
X049600Y021148
X049600Y021050
Y020950
Y020850
Y020750
Y020650
Y020550
Y020450
Y020350
X049600Y022240
X049500
X049400
X049288
X049188
X049088
Y022350
Y022450
Y022550
Y022650
Y022750
Y022850
Y022950
Y023050
X049086Y023148
Y023236
X049186
X049286
X049398
X049498
X049598
X049600Y023148
X049600Y023050
Y022950
Y022850
Y022750
Y022650
Y022550
Y022450
Y022350
X047480Y022350
Y022450
Y022550
Y022650
Y022750
Y022850
Y022950
Y023050
X047480Y023148
X047478Y023236
X047378
X047278
X047166
X047066
X046966
Y023148
X046968Y023050
Y022950
Y022850
Y022750
Y022650
Y022550
Y022450
Y022350
Y022240
X047068
X047168
X047280
X047380
X047480
X047478Y021236
X047480Y021148
X047480Y021050
Y020950
Y020850
Y020750
Y020650
Y020550
Y020450
Y020350
X047480Y020240
X047380
X047280
X047168
X047068
X046968
Y020350
Y020450
Y020550
Y020650
Y020750
Y020850
Y020950
Y021050
X046966Y021148
Y021236
X047066
X047166
X047278
X047378
X044980Y021148
X044980Y021050
Y020950
Y020850
Y020750
Y020650
Y020550
Y020450
Y020350
X044980Y020240
X044880
X044780
X044668
X044568
X044468
Y020350
Y020450
Y020550
Y020650
Y020750
Y020850
Y020950
Y021050
X044466Y021148
X044598Y021160
X044542Y021266
X044564Y021366
X044632Y021432
X044726Y021466
X044820Y021432
X044888Y021366
X044910Y021266
X044854Y021160
X044880Y022240
X044780
X044668
X044568
X044468
Y022350
Y022450
Y022550
Y022650
Y022750
Y022850
Y022950
Y023050
X044466Y023148
X044598Y023160
X044542Y023266
X044564Y023366
X044632Y023432
X044726Y023466
X044820Y023432
X044888Y023366
X044910Y023266
X044854Y023160
X044980Y023148
X044980Y023050
Y022950
Y022850
Y022750
Y022650
Y022550
Y022450
Y022350
X044980Y022240
X042859Y022240
X042759
X042659
X042547
X042447
X042347
Y022350
Y022450
Y022550
Y022650
Y022750
Y022850
Y022950
Y023050
X042345Y023148
X042477Y023160
X042421Y023266
X042443Y023366
X042511Y023432
X042605Y023466
X042699Y023432
X042767Y023366
X042789Y023266
X042733Y023160
X042859Y023148
X042859Y023050
Y022950
Y022850
Y022750
Y022650
Y022550
Y022450
Y022350
X042767Y021366
X042789Y021266
X042733Y021160
X042859Y021148
X042859Y021050
Y020950
Y020850
Y020750
Y020650
Y020550
Y020450
Y020350
X042859Y020240
X042759
X042659
X042547
X042447
X042347
Y020350
Y020450
Y020550
Y020650
Y020750
Y020850
Y020950
Y021050
X042345Y021148
X042477Y021160
X042421Y021266
X042443Y021366
X042511Y021432
X042605Y021466
X042699Y021432
X040647Y021366
X040669Y021266
X040613Y021160
X040739Y021148
X040739Y021050
Y020950
Y020850
Y020750
Y020650
Y020550
Y020450
Y020350
X040739Y020240
X040639
X040539
X040427
X040327
X040227
Y020350
Y020450
Y020550
Y020650
Y020750
Y020850
Y020950
Y021050
X040225Y021148
X040357Y021160
X040301Y021266
X040323Y021366
X040391Y021432
X040485Y021466
X040579Y021432
X040539Y022240
X040639
X040739
X040739Y022350
Y022450
Y022550
Y022650
Y022750
Y022850
Y022950
Y023050
X040739Y023148
X040613Y023160
X040669Y023266
X040647Y023366
X040579Y023432
X040485Y023466
X040391Y023432
X040323Y023366
X040301Y023266
X040357Y023160
X040225Y023148
X040227Y023050
Y022950
Y022850
Y022750
Y022650
Y022550
Y022450
Y022350
Y022240
X040327
X040427
X038618Y022240
X038518
X038418
X038306
X038206
X038106
Y022350
Y022450
Y022550
Y022650
Y022750
Y022850
Y022950
Y023050
X038104Y023148
X038236Y023160
X038180Y023266
X038202Y023366
X038270Y023432
X038364Y023466
X038458Y023432
X038526Y023366
X038548Y023266
X038492Y023160
X038618Y023148
X038618Y023050
Y022950
Y022850
Y022750
Y022650
Y022550
Y022450
Y022350
X038526Y021366
X038548Y021266
X038492Y021160
X038618Y021148
X038618Y021050
Y020950
Y020850
Y020750
Y020650
Y020550
Y020450
Y020350
X038618Y020240
X038518
X038418
X038306
X038206
X038106
Y020350
Y020450
Y020550
Y020650
Y020750
Y020850
Y020950
Y021050
X038104Y021148
X038236Y021160
X038180Y021266
X038202Y021366
X038270Y021432
X038364Y021466
X038458Y021432
X036118Y022240
X036018
X035918
X035806
X036118Y022350
Y022450
Y022550
Y022650
Y022750
Y022850
Y022950
Y023050
X036118Y023148
X036116Y023236
X036016
X035916
X035804
X035864Y020466
X035770Y020432
X035958
X036026Y020366
X036048Y020266
X035992Y020160
X036118Y020148
X036118Y020050
Y019950
Y019850
X035736Y020160
X035604Y020148
X035606Y020050
Y019950
Y019850
X035680Y020266
X035702Y020366
X035706Y022240
X035606
Y022350
Y022450
Y022550
Y022650
Y022750
Y022850
Y022950
Y023050
X035604Y023148
Y023236
X035704
X035706Y025240
X035606
Y025350
Y025450
Y025550
Y025650
Y025750
Y025850
Y025950
Y026050
X035604Y026148
X035680Y026266
X035702Y026366
X035770Y026432
X035864Y026466
X035958Y026432
X036026Y026366
X036048Y026266
X035992Y026160
X036118Y026148
X036118Y026050
Y025950
Y025850
Y025750
Y025650
Y025550
Y025450
Y025350
X036118Y025240
X036018
X035918
X035806
X035736Y026160
X038104Y026148
X038106Y026050
Y025950
Y025850
Y025750
Y025650
Y025550
Y025450
Y025350
Y025240
X038206
X038306
X038418
X038518
X038618
X038618Y025350
Y025450
Y025550
Y025650
Y025750
Y025850
Y025950
Y026050
X038618Y026148
X038492Y026160
X038548Y026266
X038526Y026366
X038458Y026432
X038364Y026466
X038270Y026432
X038202Y026366
X038180Y026266
X038236Y026160
X040225Y026148
X040227Y026050
Y025950
Y025850
Y025750
Y025650
Y025550
Y025450
Y025350
Y025240
X040327
X040427
X040539
X040639
X040739
X040739Y025350
Y025450
Y025550
Y025650
Y025750
Y025850
Y025950
Y026050
X040739Y026148
X040613Y026160
X040669Y026266
X040647Y026366
X040579Y026432
X040485Y026466
X040391Y026432
X040323Y026366
X040301Y026266
X040357Y026160
X042345Y026148
X042347Y026050
Y025950
Y025850
Y025750
Y025650
Y025550
Y025450
Y025350
Y025240
X042447
X042547
X042659
X042759
X042859
X042859Y025350
Y025450
Y025550
Y025650
Y025750
Y025850
Y025950
Y026050
X042859Y026148
X042733Y026160
X042789Y026266
X042767Y026366
X042699Y026432
X042605Y026466
X042511Y026432
X042443Y026366
X042421Y026266
X042477Y026160
X044466Y026148
X044468Y026050
Y025950
Y025850
Y025750
Y025650
Y025550
Y025450
Y025350
Y025240
X044568
X044668
X044780
X044880
X044980
X044980Y025350
Y025450
Y025550
Y025650
Y025750
Y025850
Y025950
Y026050
X044980Y026148
X044854Y026160
X044910Y026266
X044888Y026366
X044820Y026432
X044726Y026466
X044632Y026432
X044564Y026366
X044542Y026266
X044598Y026160
X046966Y026148
Y026236
X047066
X047166
X047278
X047378
X047478
X047480Y026148
X047480Y026050
Y025950
Y025850
Y025750
Y025650
Y025550
Y025450
Y025350
X047480Y025240
X047380
X047280
X047168
X047068
X046968
Y025350
Y025450
Y025550
Y025650
Y025750
Y025850
Y025950
Y026050
X049088Y026050
X049086Y026148
Y026236
X049186
X049286
X049398
X049498
X049598
X049600Y026148
X049600Y026050
Y025950
Y025850
Y025750
Y025650
Y025550
Y025450
Y025350
X049600Y025240
X049500
X049400
X049288
X049188
X049088
Y025350
Y025450
Y025550
Y025650
Y025750
Y025850
Y025950
X051209Y025950
Y026050
X051207Y026148
Y026236
X051307
X051407
X051519
X051209Y025850
Y025750
Y025650
Y025550
Y025450
Y025350
Y025240
X051309
X051409
X051521
X051621
X051721
X051721Y025350
Y025450
Y025550
Y025650
Y025750
Y025850
Y025950
Y026050
X051721Y026148
X051719Y026236
X051619
X053327Y026236
Y026148
X053329Y026050
Y025950
Y025850
Y025750
Y025650
Y025550
Y025450
Y025350
Y025240
X053429
X053529
X053641
X053741
X053841
X053841Y025350
Y025450
Y025550
Y025650
Y025750
Y025850
Y025950
Y026050
X053841Y026148
X053839Y026236
X053739
X053639
X053527
X053427
M30
