G04*
G04 #@! TF.GenerationSoftware,Altium Limited,Altium Designer,24.9.1 (31)*
G04*
G04 Layer_Color=2752767*
%FSAX44Y44*%
%MOMM*%
G71*
G04*
G04 #@! TF.SameCoordinates,745B905A-5BD3-434C-A7EB-C02F30317D31*
G04*
G04*
G04 #@! TF.FilePolarity,Positive*
G04*
G01*
G75*
%ADD20C,0.3810*%
%ADD22C,0.2540*%
%ADD28C,0.4064*%
%ADD29C,0.1250*%
D20*
X03227115Y01146288D02*
X04422626D01*
X03227115Y01031988D02*
X04422626D01*
X03227115Y00993888D02*
X04422626D01*
Y01184388D01*
X03227115D02*
X04422626D01*
X03227115Y00993888D02*
Y01184388D01*
X04030310Y00993888D02*
Y01184388D01*
X03843924Y00993888D02*
Y01184388D01*
X03715432Y00993888D02*
Y01184388D01*
X03532093Y00993888D02*
Y01184388D01*
X03367037Y00993888D02*
Y01184388D01*
D22*
X04041740Y01134853D02*
Y01119618D01*
X04051897D01*
X04059514Y01129775D02*
X04064593D01*
X04067132Y01127236D01*
Y01119618D01*
X04059514D01*
X04056975Y01122158D01*
X04059514Y01124697D01*
X04067132D01*
X04072210Y01129775D02*
Y01122158D01*
X04074749Y01119618D01*
X04082367D01*
Y01117079D01*
X04079828Y01114540D01*
X04077289D01*
X04082367Y01119618D02*
Y01129775D01*
X04095063Y01119618D02*
X04089984D01*
X04087445Y01122158D01*
Y01127236D01*
X04089984Y01129775D01*
X04095063D01*
X04097602Y01127236D01*
Y01124697D01*
X04087445D01*
X04102680Y01129775D02*
Y01119618D01*
Y01124697D01*
X04105219Y01127236D01*
X04107758Y01129775D01*
X04110298D01*
X04133150Y01132314D02*
X04135690Y01134853D01*
X04140768D01*
X04143307Y01132314D01*
Y01129775D01*
X04140768Y01127236D01*
X04138229D01*
X04140768D01*
X04143307Y01124697D01*
Y01122158D01*
X04140768Y01119618D01*
X04135690D01*
X04133150Y01122158D01*
X04163621Y01127236D02*
X04173777D01*
X04194091Y01134853D02*
Y01119618D01*
X04201708D01*
X04204247Y01122158D01*
Y01124697D01*
X04201708Y01127236D01*
X04194091D01*
X04201708D01*
X04204247Y01129775D01*
Y01132314D01*
X04201708Y01134853D01*
X04194091D01*
X04211865Y01119618D02*
X04216943D01*
X04219482Y01122158D01*
Y01127236D01*
X04216943Y01129775D01*
X04211865D01*
X04209326Y01127236D01*
Y01122158D01*
X04211865Y01119618D01*
X04227100Y01132314D02*
Y01129775D01*
X04224561D01*
X04229639D01*
X04227100D01*
Y01122158D01*
X04229639Y01119618D01*
X04239796Y01132314D02*
Y01129775D01*
X04237257D01*
X04242335D01*
X04239796D01*
Y01122158D01*
X04242335Y01119618D01*
X04252492D02*
X04257570D01*
X04260109Y01122158D01*
Y01127236D01*
X04257570Y01129775D01*
X04252492D01*
X04249953Y01127236D01*
Y01122158D01*
X04252492Y01119618D01*
X04265188D02*
Y01129775D01*
X04267727D01*
X04270266Y01127236D01*
Y01119618D01*
Y01127236D01*
X04272805Y01129775D01*
X04275345Y01127236D01*
Y01119618D01*
X04295658Y01134853D02*
Y01119618D01*
X04305815D01*
X04313432Y01129775D02*
X04318510D01*
X04321050Y01127236D01*
Y01119618D01*
X04313432D01*
X04310893Y01122158D01*
X04313432Y01124697D01*
X04321050D01*
X04326128Y01129775D02*
Y01122158D01*
X04328667Y01119618D01*
X04336285D01*
Y01117079D01*
X04333745Y01114540D01*
X04331206D01*
X04336285Y01119618D02*
Y01129775D01*
X04348981Y01119618D02*
X04343902D01*
X04341363Y01122158D01*
Y01127236D01*
X04343902Y01129775D01*
X04348981D01*
X04351520Y01127236D01*
Y01124697D01*
X04341363D01*
X04356598Y01129775D02*
Y01119618D01*
Y01124697D01*
X04359137Y01127236D01*
X04361677Y01129775D01*
X04364216D01*
X04041740Y01096753D02*
X04051897D01*
X04046818D01*
Y01081518D01*
X04059514D02*
X04064593D01*
X04067132Y01084057D01*
Y01089136D01*
X04064593Y01091675D01*
X04059514D01*
X04056975Y01089136D01*
Y01084057D01*
X04059514Y01081518D01*
X04072210Y01076440D02*
Y01091675D01*
X04079828D01*
X04082367Y01089136D01*
Y01084057D01*
X04079828Y01081518D01*
X04072210D01*
X04102680Y01096753D02*
Y01081518D01*
X04112837D01*
X04120454Y01091675D02*
X04125533D01*
X04128072Y01089136D01*
Y01081518D01*
X04120454D01*
X04117915Y01084057D01*
X04120454Y01086597D01*
X04128072D01*
X04133150Y01091675D02*
Y01084057D01*
X04135690Y01081518D01*
X04143307D01*
Y01078979D01*
X04140768Y01076440D01*
X04138229D01*
X04143307Y01081518D02*
Y01091675D01*
X04156003Y01081518D02*
X04150925D01*
X04148386Y01084057D01*
Y01089136D01*
X04150925Y01091675D01*
X04156003D01*
X04158542Y01089136D01*
Y01086597D01*
X04148386D01*
X04163621Y01091675D02*
Y01081518D01*
Y01086597D01*
X04166160Y01089136D01*
X04168699Y01091675D01*
X04171238D01*
X04194091Y01089136D02*
X04204247D01*
X04224561Y01096753D02*
Y01081518D01*
X04232178D01*
X04234718Y01084057D01*
Y01086597D01*
X04232178Y01089136D01*
X04224561D01*
X04232178D01*
X04234718Y01091675D01*
Y01094214D01*
X04232178Y01096753D01*
X04224561D01*
X04242335Y01081518D02*
X04247414D01*
X04249953Y01084057D01*
Y01089136D01*
X04247414Y01091675D01*
X04242335D01*
X04239796Y01089136D01*
Y01084057D01*
X04242335Y01081518D01*
X04257570Y01094214D02*
Y01091675D01*
X04255031D01*
X04260109D01*
X04257570D01*
Y01084057D01*
X04260109Y01081518D01*
X04270266Y01094214D02*
Y01091675D01*
X04267727D01*
X04272805D01*
X04270266D01*
Y01084057D01*
X04272805Y01081518D01*
X04282962D02*
X04288040D01*
X04290580Y01084057D01*
Y01089136D01*
X04288040Y01091675D01*
X04282962D01*
X04280423Y01089136D01*
Y01084057D01*
X04282962Y01081518D01*
X04295658D02*
Y01091675D01*
X04298197D01*
X04300736Y01089136D01*
Y01081518D01*
Y01089136D01*
X04303275Y01091675D01*
X04305815Y01089136D01*
Y01081518D01*
X04326128Y01096753D02*
Y01081518D01*
X04336285D01*
X04343902Y01091675D02*
X04348981D01*
X04351520Y01089136D01*
Y01081518D01*
X04343902D01*
X04341363Y01084057D01*
X04343902Y01086597D01*
X04351520D01*
X04356598Y01091675D02*
Y01084057D01*
X04359137Y01081518D01*
X04366755D01*
Y01078979D01*
X04364216Y01076440D01*
X04361677D01*
X04366755Y01081518D02*
Y01091675D01*
X04379451Y01081518D02*
X04374372D01*
X04371833Y01084057D01*
Y01089136D01*
X04374372Y01091675D01*
X04379451D01*
X04381990Y01089136D01*
Y01086597D01*
X04371833D01*
X04387068Y01091675D02*
Y01081518D01*
Y01086597D01*
X04389608Y01089136D01*
X04392147Y01091675D01*
X04394686D01*
X04041740Y01058653D02*
X04051897D01*
X04046818D01*
Y01043418D01*
X04059514D02*
X04064593D01*
X04067132Y01045957D01*
Y01051036D01*
X04064593Y01053575D01*
X04059514D01*
X04056975Y01051036D01*
Y01045957D01*
X04059514Y01043418D01*
X04072210Y01038340D02*
Y01053575D01*
X04079828D01*
X04082367Y01051036D01*
Y01045957D01*
X04079828Y01043418D01*
X04072210D01*
X04102680Y01058653D02*
Y01043418D01*
X04112837D01*
X04120454Y01053575D02*
X04125533D01*
X04128072Y01051036D01*
Y01043418D01*
X04120454D01*
X04117915Y01045957D01*
X04120454Y01048497D01*
X04128072D01*
X04133150Y01053575D02*
Y01045957D01*
X04135690Y01043418D01*
X04143307D01*
Y01040879D01*
X04140768Y01038340D01*
X04138229D01*
X04143307Y01043418D02*
Y01053575D01*
X04156003Y01043418D02*
X04150925D01*
X04148386Y01045957D01*
Y01051036D01*
X04150925Y01053575D01*
X04156003D01*
X04158542Y01051036D01*
Y01048497D01*
X04148386D01*
X04163621Y01053575D02*
Y01043418D01*
Y01048497D01*
X04166160Y01051036D01*
X04168699Y01053575D01*
X04171238D01*
X04194091Y01051036D02*
X04204247D01*
X04224561Y01058653D02*
Y01043418D01*
X04232178D01*
X04234718Y01045957D01*
Y01048497D01*
X04232178Y01051036D01*
X04224561D01*
X04232178D01*
X04234718Y01053575D01*
Y01056114D01*
X04232178Y01058653D01*
X04224561D01*
X04242335Y01043418D02*
X04247414D01*
X04249953Y01045957D01*
Y01051036D01*
X04247414Y01053575D01*
X04242335D01*
X04239796Y01051036D01*
Y01045957D01*
X04242335Y01043418D01*
X04257570Y01056114D02*
Y01053575D01*
X04255031D01*
X04260109D01*
X04257570D01*
Y01045957D01*
X04260109Y01043418D01*
X04270266Y01056114D02*
Y01053575D01*
X04267727D01*
X04272805D01*
X04270266D01*
Y01045957D01*
X04272805Y01043418D01*
X04282962D02*
X04288040D01*
X04290580Y01045957D01*
Y01051036D01*
X04288040Y01053575D01*
X04282962D01*
X04280423Y01051036D01*
Y01045957D01*
X04282962Y01043418D01*
X04295658D02*
Y01053575D01*
X04298197D01*
X04300736Y01051036D01*
Y01043418D01*
Y01051036D01*
X04303275Y01053575D01*
X04305815Y01051036D01*
Y01043418D01*
X04326128Y01058653D02*
Y01043418D01*
X04336285D01*
X04343902Y01053575D02*
X04348981D01*
X04351520Y01051036D01*
Y01043418D01*
X04343902D01*
X04341363Y01045957D01*
X04343902Y01048497D01*
X04351520D01*
X04356598Y01053575D02*
Y01045957D01*
X04359137Y01043418D01*
X04366755D01*
Y01040879D01*
X04364216Y01038340D01*
X04361677D01*
X04366755Y01043418D02*
Y01053575D01*
X04379451Y01043418D02*
X04374372D01*
X04371833Y01045957D01*
Y01051036D01*
X04374372Y01053575D01*
X04379451D01*
X04381990Y01051036D01*
Y01048497D01*
X04371833D01*
X04387068Y01053575D02*
Y01043418D01*
Y01048497D01*
X04389608Y01051036D01*
X04392147Y01053575D01*
X04394686D01*
X03855354Y01119618D02*
Y01134853D01*
X03862972D01*
X03865511Y01132314D01*
Y01127236D01*
X03862972Y01124697D01*
X03855354D01*
X03860433D02*
X03865511Y01119618D01*
X03873129D02*
X03878207D01*
X03880746Y01122158D01*
Y01127236D01*
X03878207Y01129775D01*
X03873129D01*
X03870589Y01127236D01*
Y01122158D01*
X03873129Y01119618D01*
X03885824Y01129775D02*
Y01122158D01*
X03888364Y01119618D01*
X03895981D01*
Y01129775D01*
X03901060Y01119618D02*
Y01129775D01*
X03908677D01*
X03911216Y01127236D01*
Y01119618D01*
X03926451Y01134853D02*
Y01119618D01*
X03918834D01*
X03916295Y01122158D01*
Y01127236D01*
X03918834Y01129775D01*
X03926451D01*
X03855354Y01081518D02*
Y01096753D01*
X03862972D01*
X03865511Y01094214D01*
Y01089136D01*
X03862972Y01086597D01*
X03855354D01*
X03860433D02*
X03865511Y01081518D01*
X03873129D02*
X03878207D01*
X03880746Y01084057D01*
Y01089136D01*
X03878207Y01091675D01*
X03873129D01*
X03870589Y01089136D01*
Y01084057D01*
X03873129Y01081518D01*
X03885824Y01091675D02*
Y01084057D01*
X03888364Y01081518D01*
X03895981D01*
Y01091675D01*
X03901060Y01081518D02*
Y01091675D01*
X03908677D01*
X03911216Y01089136D01*
Y01081518D01*
X03926451Y01096753D02*
Y01081518D01*
X03918834D01*
X03916295Y01084057D01*
Y01089136D01*
X03918834Y01091675D01*
X03926451D01*
X03855354Y01043418D02*
Y01058653D01*
X03862972D01*
X03865511Y01056114D01*
Y01051036D01*
X03862972Y01048497D01*
X03855354D01*
X03860433D02*
X03865511Y01043418D01*
X03873129D02*
X03878207D01*
X03880746Y01045957D01*
Y01051036D01*
X03878207Y01053575D01*
X03873129D01*
X03870589Y01051036D01*
Y01045957D01*
X03873129Y01043418D01*
X03885824Y01053575D02*
Y01045957D01*
X03888364Y01043418D01*
X03895981D01*
Y01053575D01*
X03901060Y01043418D02*
Y01053575D01*
X03908677D01*
X03911216Y01051036D01*
Y01043418D01*
X03926451Y01058653D02*
Y01043418D01*
X03918834D01*
X03916295Y01045957D01*
Y01051036D01*
X03918834Y01053575D01*
X03926451D01*
X03726862Y01119618D02*
Y01134853D01*
X03734479D01*
X03737019Y01132314D01*
Y01127236D01*
X03734479Y01124697D01*
X03726862D01*
X03742097Y01134853D02*
X03752254D01*
X03747175D01*
Y01119618D01*
X03757332Y01134853D02*
Y01119618D01*
Y01127236D01*
X03767489D01*
Y01134853D01*
Y01119618D01*
X03726862Y01081518D02*
Y01096753D01*
X03737019Y01081518D01*
Y01096753D01*
X03742097Y01081518D02*
Y01096753D01*
X03749714D01*
X03752254Y01094214D01*
Y01089136D01*
X03749714Y01086597D01*
X03742097D01*
X03757332Y01096753D02*
X03767489D01*
X03762410D01*
Y01081518D01*
X03772567Y01096753D02*
Y01081518D01*
Y01089136D01*
X03782724D01*
Y01096753D01*
Y01081518D01*
X03726862Y01043418D02*
Y01058653D01*
X03734479D01*
X03737019Y01056114D01*
Y01051036D01*
X03734479Y01048497D01*
X03726862D01*
X03742097Y01058653D02*
X03752254D01*
X03747175D01*
Y01043418D01*
X03757332Y01058653D02*
Y01043418D01*
Y01051036D01*
X03767489D01*
Y01058653D01*
Y01043418D01*
X03543523Y01132314D02*
X03546062Y01134853D01*
X03551141D01*
X03553680Y01132314D01*
Y01122158D01*
X03551141Y01119618D01*
X03546062D01*
X03543523Y01122158D01*
Y01132314D01*
X03558758Y01119618D02*
Y01122158D01*
X03561297D01*
Y01119618D01*
X03558758D01*
X03581611D02*
X03571454D01*
X03581611Y01129775D01*
Y01132314D01*
X03579072Y01134853D01*
X03573993D01*
X03571454Y01132314D01*
X03586689D02*
X03589229Y01134853D01*
X03594307D01*
X03596846Y01132314D01*
Y01122158D01*
X03594307Y01119618D01*
X03589229D01*
X03586689Y01122158D01*
Y01132314D01*
X03601924D02*
X03604464Y01134853D01*
X03609542D01*
X03612081Y01132314D01*
Y01122158D01*
X03609542Y01119618D01*
X03604464D01*
X03601924Y01122158D01*
Y01132314D01*
X03617159Y01119618D02*
Y01129775D01*
X03619698D01*
X03622238Y01127236D01*
Y01119618D01*
Y01127236D01*
X03624777Y01129775D01*
X03627316Y01127236D01*
Y01119618D01*
X03632394D02*
Y01129775D01*
X03634933D01*
X03637473Y01127236D01*
Y01119618D01*
Y01127236D01*
X03640012Y01129775D01*
X03642551Y01127236D01*
Y01119618D01*
X03543523Y01094214D02*
X03546062Y01096753D01*
X03551141D01*
X03553680Y01094214D01*
Y01084057D01*
X03551141Y01081518D01*
X03546062D01*
X03543523Y01084057D01*
Y01094214D01*
X03558758Y01081518D02*
Y01084057D01*
X03561297D01*
Y01081518D01*
X03558758D01*
X03579072D02*
Y01096753D01*
X03571454Y01089136D01*
X03581611D01*
X03586689Y01094214D02*
X03589229Y01096753D01*
X03594307D01*
X03596846Y01094214D01*
Y01084057D01*
X03594307Y01081518D01*
X03589229D01*
X03586689Y01084057D01*
Y01094214D01*
X03601924D02*
X03604464Y01096753D01*
X03609542D01*
X03612081Y01094214D01*
Y01084057D01*
X03609542Y01081518D01*
X03604464D01*
X03601924Y01084057D01*
Y01094214D01*
X03617159Y01081518D02*
Y01091675D01*
X03619698D01*
X03622238Y01089136D01*
Y01081518D01*
Y01089136D01*
X03624777Y01091675D01*
X03627316Y01089136D01*
Y01081518D01*
X03632394D02*
Y01091675D01*
X03634933D01*
X03637473Y01089136D01*
Y01081518D01*
Y01089136D01*
X03640012Y01091675D01*
X03642551Y01089136D01*
Y01081518D01*
X03543523Y01056114D02*
X03546062Y01058653D01*
X03551141D01*
X03553680Y01056114D01*
Y01045957D01*
X03551141Y01043418D01*
X03546062D01*
X03543523Y01045957D01*
Y01056114D01*
X03558758Y01043418D02*
Y01045957D01*
X03561297D01*
Y01043418D01*
X03558758D01*
X03571454Y01045957D02*
X03573993Y01043418D01*
X03579072D01*
X03581611Y01045957D01*
Y01056114D01*
X03579072Y01058653D01*
X03573993D01*
X03571454Y01056114D01*
Y01053575D01*
X03573993Y01051036D01*
X03581611D01*
X03586689Y01056114D02*
X03589229Y01058653D01*
X03594307D01*
X03596846Y01056114D01*
Y01045957D01*
X03594307Y01043418D01*
X03589229D01*
X03586689Y01045957D01*
Y01056114D01*
X03601924D02*
X03604464Y01058653D01*
X03609542D01*
X03612081Y01056114D01*
Y01045957D01*
X03609542Y01043418D01*
X03604464D01*
X03601924Y01045957D01*
Y01056114D01*
X03617159Y01043418D02*
Y01053575D01*
X03619698D01*
X03622238Y01051036D01*
Y01043418D01*
Y01051036D01*
X03624777Y01053575D01*
X03627316Y01051036D01*
Y01043418D01*
X03632394D02*
Y01053575D01*
X03634933D01*
X03637473Y01051036D01*
Y01043418D01*
Y01051036D01*
X03640012Y01053575D01*
X03642551Y01051036D01*
Y01043418D01*
X03378467Y01005318D02*
X03383546D01*
X03381007D01*
Y01020553D01*
X03378467Y01018014D01*
X03401320Y01020553D02*
X03391163D01*
Y01012936D01*
X03396242Y01015475D01*
X03398781D01*
X03401320Y01012936D01*
Y01007858D01*
X03398781Y01005318D01*
X03393703D01*
X03391163Y01007858D01*
X03406399Y01018014D02*
X03408938Y01020553D01*
X03414016D01*
X03416555Y01018014D01*
Y01015475D01*
X03414016Y01012936D01*
X03416555Y01010397D01*
Y01007858D01*
X03414016Y01005318D01*
X03408938D01*
X03406399Y01007858D01*
Y01010397D01*
X03408938Y01012936D01*
X03406399Y01015475D01*
Y01018014D01*
X03408938Y01012936D02*
X03414016D01*
X03421634Y01018014D02*
X03424173Y01020553D01*
X03429251D01*
X03431790Y01018014D01*
Y01007858D01*
X03429251Y01005318D01*
X03424173D01*
X03421634Y01007858D01*
Y01018014D01*
X03452104Y01020553D02*
X03462260D01*
X03457182D01*
Y01005318D01*
X03469878D02*
X03474956D01*
X03477495Y01007858D01*
Y01012936D01*
X03474956Y01015475D01*
X03469878D01*
X03467339Y01012936D01*
Y01007858D01*
X03469878Y01005318D01*
X03485113Y01018014D02*
Y01015475D01*
X03482574D01*
X03487652D01*
X03485113D01*
Y01007858D01*
X03487652Y01005318D01*
X03497809Y01015475D02*
X03502887D01*
X03505426Y01012936D01*
Y01005318D01*
X03497809D01*
X03495270Y01007858D01*
X03497809Y01010397D01*
X03505426D01*
X03510505Y01005318D02*
X03515583D01*
X03513044D01*
Y01020553D01*
X03510505D01*
X03378467Y01119618D02*
X03383546D01*
X03381007D01*
Y01134853D01*
X03378467Y01132314D01*
X03391163D02*
X03393703Y01134853D01*
X03398781D01*
X03401320Y01132314D01*
Y01129775D01*
X03398781Y01127236D01*
X03396242D01*
X03398781D01*
X03401320Y01124697D01*
Y01122158D01*
X03398781Y01119618D01*
X03393703D01*
X03391163Y01122158D01*
X03406399Y01132314D02*
X03408938Y01134853D01*
X03414016D01*
X03416555Y01132314D01*
Y01129775D01*
X03414016Y01127236D01*
X03416555Y01124697D01*
Y01122158D01*
X03414016Y01119618D01*
X03408938D01*
X03406399Y01122158D01*
Y01124697D01*
X03408938Y01127236D01*
X03406399Y01129775D01*
Y01132314D01*
X03408938Y01127236D02*
X03414016D01*
X03431790Y01134853D02*
X03426712Y01132314D01*
X03421634Y01127236D01*
Y01122158D01*
X03424173Y01119618D01*
X03429251D01*
X03431790Y01122158D01*
Y01124697D01*
X03429251Y01127236D01*
X03421634D01*
X03378467Y01081518D02*
X03383546D01*
X03381007D01*
Y01096753D01*
X03378467Y01094214D01*
X03401320Y01096753D02*
X03391163D01*
Y01089136D01*
X03396242Y01091675D01*
X03398781D01*
X03401320Y01089136D01*
Y01084057D01*
X03398781Y01081518D01*
X03393703D01*
X03391163Y01084057D01*
X03406399Y01094214D02*
X03408938Y01096753D01*
X03414016D01*
X03416555Y01094214D01*
Y01084057D01*
X03414016Y01081518D01*
X03408938D01*
X03406399Y01084057D01*
Y01094214D01*
X03386085Y01043418D02*
Y01058653D01*
X03378467Y01051036D01*
X03388624D01*
X03401320Y01043418D02*
Y01058653D01*
X03393703Y01051036D01*
X03403859D01*
X03291169Y01117081D02*
Y01128366D01*
X03296812Y01134009D01*
X03302454Y01128366D01*
Y01117081D01*
Y01125545D01*
X03291169D01*
Y01095909D02*
Y01078981D01*
X03299633D01*
X03302454Y01081802D01*
Y01084624D01*
X03299633Y01087445D01*
X03291169D01*
X03299633D01*
X03302454Y01090266D01*
Y01093088D01*
X03299633Y01095909D01*
X03291169D01*
X03302454Y01054988D02*
X03299633Y01057809D01*
X03293990D01*
X03291169Y01054988D01*
Y01043702D01*
X03293990Y01040881D01*
X03299633D01*
X03302454Y01043702D01*
D28*
X04041740Y01176000D02*
Y01157718D01*
X04050881D01*
X04053928Y01160765D01*
Y01172953D01*
X04050881Y01176000D01*
X04041740D01*
X04060022Y01169906D02*
Y01157718D01*
Y01163812D01*
X04063069Y01166859D01*
X04066116Y01169906D01*
X04069163D01*
X04078304Y01157718D02*
X04084398D01*
X04081351D01*
Y01169906D01*
X04078304D01*
X04093539Y01157718D02*
X04099633D01*
X04096586D01*
Y01176000D01*
X04093539D01*
X04108774Y01157718D02*
X04114868D01*
X04111821D01*
Y01176000D01*
X04108774D01*
X04142292D02*
Y01157718D01*
X04154479D01*
X04163621Y01169906D02*
X04169715D01*
X04172762Y01166859D01*
Y01157718D01*
X04163621D01*
X04160573Y01160765D01*
X04163621Y01163812D01*
X04172762D01*
X04178856Y01169906D02*
Y01160765D01*
X04181902Y01157718D01*
X04191044D01*
Y01154671D01*
X04187997Y01151624D01*
X04184950D01*
X04191044Y01157718D02*
Y01169906D01*
X04206279Y01157718D02*
X04200185D01*
X04197138Y01160765D01*
Y01166859D01*
X04200185Y01169906D01*
X04206279D01*
X04209326Y01166859D01*
Y01163812D01*
X04197138D01*
X04215420Y01169906D02*
Y01157718D01*
Y01163812D01*
X04218467Y01166859D01*
X04221514Y01169906D01*
X04224561D01*
X04251984Y01157718D02*
Y01176000D01*
X04261125D01*
X04264172Y01172953D01*
Y01166859D01*
X04261125Y01163812D01*
X04251984D01*
X04273313Y01169906D02*
X04279407D01*
X04282454Y01166859D01*
Y01157718D01*
X04273313D01*
X04270266Y01160765D01*
X04273313Y01163812D01*
X04282454D01*
X04288548Y01157718D02*
X04294642D01*
X04291595D01*
Y01169906D01*
X04288548D01*
X04303783D02*
Y01157718D01*
Y01163812D01*
X04306830Y01166859D01*
X04309877Y01169906D01*
X04312924D01*
X03855354Y01176000D02*
Y01157718D01*
Y01166859D01*
X03867542D01*
Y01176000D01*
Y01157718D01*
X03876683D02*
X03882777D01*
X03885824Y01160765D01*
Y01166859D01*
X03882777Y01169906D01*
X03876683D01*
X03873636Y01166859D01*
Y01160765D01*
X03876683Y01157718D01*
X03891919D02*
X03898012D01*
X03894966D01*
Y01176000D01*
X03891919D01*
X03916295Y01157718D02*
X03910201D01*
X03907154Y01160765D01*
Y01166859D01*
X03910201Y01169906D01*
X03916295D01*
X03919342Y01166859D01*
Y01163812D01*
X03907154D01*
X03943718Y01176000D02*
X03955906D01*
X03949812D01*
Y01157718D01*
X03962000Y01169906D02*
Y01160765D01*
X03965047Y01157718D01*
X03974188D01*
Y01154671D01*
X03971141Y01151624D01*
X03968094D01*
X03974188Y01157718D02*
Y01169906D01*
X03980282Y01151624D02*
Y01169906D01*
X03989423D01*
X03992470Y01166859D01*
Y01160765D01*
X03989423Y01157718D01*
X03980282D01*
X04007705D02*
X04001611D01*
X03998564Y01160765D01*
Y01166859D01*
X04001611Y01169906D01*
X04007705D01*
X04010752Y01166859D01*
Y01163812D01*
X03998564D01*
X03726862Y01157718D02*
Y01176000D01*
X03736003D01*
X03739050Y01172953D01*
Y01166859D01*
X03736003Y01163812D01*
X03726862D01*
X03745144Y01157718D02*
X03751238D01*
X03748191D01*
Y01176000D01*
X03745144D01*
X03763426Y01169906D02*
X03769520D01*
X03772567Y01166859D01*
Y01157718D01*
X03763426D01*
X03760379Y01160765D01*
X03763426Y01163812D01*
X03772567D01*
X03781708Y01172953D02*
Y01169906D01*
X03778661D01*
X03784755D01*
X03781708D01*
Y01160765D01*
X03784755Y01157718D01*
X03803037D02*
X03796943D01*
X03793896Y01160765D01*
Y01166859D01*
X03796943Y01169906D01*
X03803037D01*
X03806084Y01166859D01*
Y01163812D01*
X03793896D01*
X03824366Y01176000D02*
Y01157718D01*
X03815225D01*
X03812178Y01160765D01*
Y01166859D01*
X03815225Y01169906D01*
X03824366D01*
X03543523Y01176000D02*
Y01157718D01*
Y01166859D01*
X03555711D01*
Y01176000D01*
Y01157718D01*
X03564852D02*
X03570946D01*
X03573993Y01160765D01*
Y01166859D01*
X03570946Y01169906D01*
X03564852D01*
X03561805Y01166859D01*
Y01160765D01*
X03564852Y01157718D01*
X03580087D02*
X03586181D01*
X03583134D01*
Y01176000D01*
X03580087D01*
X03604464Y01157718D02*
X03598369D01*
X03595322Y01160765D01*
Y01166859D01*
X03598369Y01169906D01*
X03604464D01*
X03607510Y01166859D01*
Y01163812D01*
X03595322D01*
X03644075Y01172953D02*
X03641028Y01176000D01*
X03634933D01*
X03631887Y01172953D01*
Y01169906D01*
X03634933Y01166859D01*
X03641028D01*
X03644075Y01163812D01*
Y01160765D01*
X03641028Y01157718D01*
X03634933D01*
X03631887Y01160765D01*
X03650168Y01157718D02*
X03656263D01*
X03653216D01*
Y01169906D01*
X03650168D01*
X03665404D02*
X03677592D01*
X03665404Y01157718D01*
X03677592D01*
X03692827D02*
X03686733D01*
X03683686Y01160765D01*
Y01166859D01*
X03686733Y01169906D01*
X03692827D01*
X03695874Y01166859D01*
Y01163812D01*
X03683686D01*
X03390656Y01172953D02*
X03387609Y01176000D01*
X03381515D01*
X03378467Y01172953D01*
Y01160765D01*
X03381515Y01157718D01*
X03387609D01*
X03390656Y01160765D01*
X03399796Y01157718D02*
X03405891D01*
X03408938Y01160765D01*
Y01166859D01*
X03405891Y01169906D01*
X03399796D01*
X03396750Y01166859D01*
Y01160765D01*
X03399796Y01157718D01*
X03415032Y01169906D02*
Y01160765D01*
X03418079Y01157718D01*
X03427220D01*
Y01169906D01*
X03433314Y01157718D02*
Y01169906D01*
X03442455D01*
X03445502Y01166859D01*
Y01157718D01*
X03454643Y01172953D02*
Y01169906D01*
X03451596D01*
X03457690D01*
X03454643D01*
Y01160765D01*
X03457690Y01157718D01*
X03262163Y01172953D02*
X03259116Y01176000D01*
X03253022D01*
X03249975Y01172953D01*
Y01169906D01*
X03253022Y01166859D01*
X03259116D01*
X03262163Y01163812D01*
Y01160765D01*
X03259116Y01157718D01*
X03253022D01*
X03249975Y01160765D01*
X03268257Y01169906D02*
Y01160765D01*
X03271304Y01157718D01*
X03280445D01*
Y01154671D01*
X03277398Y01151624D01*
X03274351D01*
X03280445Y01157718D02*
Y01169906D01*
X03286539Y01157718D02*
Y01169906D01*
X03289586D01*
X03292633Y01166859D01*
Y01157718D01*
Y01166859D01*
X03295680Y01169906D01*
X03298727Y01166859D01*
Y01157718D01*
X03304821Y01176000D02*
Y01157718D01*
X03313962D01*
X03317009Y01160765D01*
Y01163812D01*
Y01166859D01*
X03313962Y01169906D01*
X03304821D01*
X03326151Y01157718D02*
X03332245D01*
X03335291Y01160765D01*
Y01166859D01*
X03332245Y01169906D01*
X03326151D01*
X03323103Y01166859D01*
Y01160765D01*
X03326151Y01157718D01*
X03341385D02*
X03347480D01*
X03344432D01*
Y01176000D01*
X03341385D01*
D29*
X04699182Y02552477D02*
X04701264Y02554560D01*
X04705429D01*
X04707512Y02552477D01*
Y02544146D01*
X04705429Y02542064D01*
X04701264D01*
X04699182Y02544146D01*
Y02552477D01*
X04711678Y02542064D02*
Y02544146D01*
X04713760D01*
Y02542064D01*
X04711678D01*
X04722091Y02544146D02*
X04724173Y02542064D01*
X04728339D01*
X04730421Y02544146D01*
Y02552477D01*
X04728339Y02554560D01*
X04724173D01*
X04722091Y02552477D01*
Y02550394D01*
X04724173Y02548312D01*
X04730421D01*
X04734587Y02552477D02*
X04736669Y02554560D01*
X04740835D01*
X04742917Y02552477D01*
Y02544146D01*
X04740835Y02542064D01*
X04736669D01*
X04734587Y02544146D01*
Y02552477D01*
X04911231Y02552477D02*
X04913314Y02554559D01*
X04917479D01*
X04919562Y02552477D01*
Y02544146D01*
X04917479Y02542063D01*
X04913314D01*
X04911231Y02544146D01*
Y02552477D01*
X04923727Y02542063D02*
Y02544146D01*
X04925810D01*
Y02542063D01*
X04923727D01*
X04934141Y02544146D02*
X04936223Y02542063D01*
X04940388D01*
X04942471Y02544146D01*
Y02552477D01*
X04940388Y02554559D01*
X04936223D01*
X04934141Y02552477D01*
Y02550394D01*
X04936223Y02548311D01*
X04942471D01*
X04946636Y02552477D02*
X04948719Y02554559D01*
X04952885D01*
X04954967Y02552477D01*
Y02544146D01*
X04952885Y02542063D01*
X04948719D01*
X04946636Y02544146D01*
Y02552477D01*
X05123281Y02552477D02*
X05125364Y02554559D01*
X05129529D01*
X05131612Y02552477D01*
Y02544146D01*
X05129529Y02542063D01*
X05125364D01*
X05123281Y02544146D01*
Y02552477D01*
X05135777Y02542063D02*
Y02544146D01*
X05137859D01*
Y02542063D01*
X05135777D01*
X05146190Y02544146D02*
X05148273Y02542063D01*
X05152438D01*
X05154521Y02544146D01*
Y02552477D01*
X05152438Y02554559D01*
X05148273D01*
X05146190Y02552477D01*
Y02550394D01*
X05148273Y02548311D01*
X05154521D01*
X05158687Y02552477D02*
X05160769Y02554559D01*
X05164934D01*
X05167017Y02552477D01*
Y02544146D01*
X05164934Y02542063D01*
X05160769D01*
X05158687Y02544146D01*
Y02552477D01*
X05335331Y02552476D02*
X05337413Y02554559D01*
X05341579D01*
X05343661Y02552476D01*
Y02544146D01*
X05341579Y02542063D01*
X05337413D01*
X05335331Y02544146D01*
Y02552476D01*
X05347827Y02542063D02*
Y02544146D01*
X05349910D01*
Y02542063D01*
X05347827D01*
X05358240Y02544146D02*
X05360323Y02542063D01*
X05364488D01*
X05366571Y02544146D01*
Y02552476D01*
X05364488Y02554559D01*
X05360323D01*
X05358240Y02552476D01*
Y02550394D01*
X05360323Y02548311D01*
X05366571D01*
X05370736Y02552476D02*
X05372819Y02554559D01*
X05376984D01*
X05379067Y02552476D01*
Y02544146D01*
X05376984Y02542063D01*
X05372819D01*
X05370736Y02544146D01*
Y02552476D01*
X04237131Y02552477D02*
X04239214Y02554560D01*
X04243379D01*
X04245462Y02552477D01*
Y02544146D01*
X04243379Y02542064D01*
X04239214D01*
X04237131Y02544146D01*
Y02552477D01*
X04249627Y02542064D02*
Y02544146D01*
X04251710D01*
Y02542064D01*
X04249627D01*
X04260041Y02544146D02*
X04262123Y02542064D01*
X04266288D01*
X04268371Y02544146D01*
Y02552477D01*
X04266288Y02554560D01*
X04262123D01*
X04260041Y02552477D01*
Y02550394D01*
X04262123Y02548312D01*
X04268371D01*
X04272537Y02552477D02*
X04274619Y02554560D01*
X04278784D01*
X04280867Y02552477D01*
Y02544146D01*
X04278784Y02542064D01*
X04274619D01*
X04272537Y02544146D01*
Y02552477D01*
X04449181Y02552477D02*
X04451264Y02554559D01*
X04455429D01*
X04457512Y02552477D01*
Y02544146D01*
X04455429Y02542064D01*
X04451264D01*
X04449181Y02544146D01*
Y02552477D01*
X04461677Y02542064D02*
Y02544146D01*
X04463760D01*
Y02542064D01*
X04461677D01*
X04472090Y02544146D02*
X04474173Y02542064D01*
X04478338D01*
X04480421Y02544146D01*
Y02552477D01*
X04478338Y02554559D01*
X04474173D01*
X04472090Y02552477D01*
Y02550394D01*
X04474173Y02548311D01*
X04480421D01*
X04484586Y02552477D02*
X04486669Y02554559D01*
X04490834D01*
X04492917Y02552477D01*
Y02544146D01*
X04490834Y02542064D01*
X04486669D01*
X04484586Y02544146D01*
Y02552477D01*
X04699182Y02252472D02*
X04701264Y02254554D01*
X04705429D01*
X04707512Y02252472D01*
Y02244141D01*
X04705429Y02242059D01*
X04701264D01*
X04699182Y02244141D01*
Y02252472D01*
X04711678Y02242059D02*
Y02244141D01*
X04713760D01*
Y02242059D01*
X04711678D01*
X04722091Y02244141D02*
X04724173Y02242059D01*
X04728339D01*
X04730421Y02244141D01*
Y02252472D01*
X04728339Y02254554D01*
X04724173D01*
X04722091Y02252472D01*
Y02250389D01*
X04724173Y02248306D01*
X04730421D01*
X04734587Y02252472D02*
X04736669Y02254554D01*
X04740835D01*
X04742917Y02252472D01*
Y02244141D01*
X04740835Y02242059D01*
X04736669D01*
X04734587Y02244141D01*
Y02252472D01*
X04911231Y02252472D02*
X04913314Y02254554D01*
X04917479D01*
X04919562Y02252472D01*
Y02244141D01*
X04917479Y02242058D01*
X04913314D01*
X04911231Y02244141D01*
Y02252472D01*
X04923727Y02242058D02*
Y02244141D01*
X04925810D01*
Y02242058D01*
X04923727D01*
X04934141Y02244141D02*
X04936223Y02242058D01*
X04940388D01*
X04942471Y02244141D01*
Y02252472D01*
X04940388Y02254554D01*
X04936223D01*
X04934141Y02252472D01*
Y02250389D01*
X04936223Y02248306D01*
X04942471D01*
X04946636Y02252472D02*
X04948719Y02254554D01*
X04952885D01*
X04954967Y02252472D01*
Y02244141D01*
X04952885Y02242058D01*
X04948719D01*
X04946636Y02244141D01*
Y02252472D01*
X05123281Y02252471D02*
X05125364Y02254554D01*
X05129529D01*
X05131612Y02252471D01*
Y02244141D01*
X05129529Y02242058D01*
X05125364D01*
X05123281Y02244141D01*
Y02252471D01*
X05135777Y02242058D02*
Y02244141D01*
X05137859D01*
Y02242058D01*
X05135777D01*
X05146190Y02244141D02*
X05148273Y02242058D01*
X05152438D01*
X05154521Y02244141D01*
Y02252471D01*
X05152438Y02254554D01*
X05148273D01*
X05146190Y02252471D01*
Y02250389D01*
X05148273Y02248306D01*
X05154521D01*
X05158687Y02252471D02*
X05160769Y02254554D01*
X05164934D01*
X05167017Y02252471D01*
Y02244141D01*
X05164934Y02242058D01*
X05160769D01*
X05158687Y02244141D01*
Y02252471D01*
X05335331Y02252471D02*
X05337413Y02254554D01*
X05341579D01*
X05343661Y02252471D01*
Y02244141D01*
X05341579Y02242058D01*
X05337413D01*
X05335331Y02244141D01*
Y02252471D01*
X05347827Y02242058D02*
Y02244141D01*
X05349910D01*
Y02242058D01*
X05347827D01*
X05358240Y02244141D02*
X05360323Y02242058D01*
X05364488D01*
X05366571Y02244141D01*
Y02252471D01*
X05364488Y02254554D01*
X05360323D01*
X05358240Y02252471D01*
Y02250389D01*
X05360323Y02248306D01*
X05366571D01*
X05370736Y02252471D02*
X05372819Y02254554D01*
X05376984D01*
X05379067Y02252471D01*
Y02244141D01*
X05376984Y02242058D01*
X05372819D01*
X05370736Y02244141D01*
Y02252471D01*
X04699182Y02052472D02*
X04701264Y02054554D01*
X04705429D01*
X04707512Y02052472D01*
Y02044141D01*
X04705429Y02042059D01*
X04701264D01*
X04699182Y02044141D01*
Y02052472D01*
X04711678Y02042059D02*
Y02044141D01*
X04713760D01*
Y02042059D01*
X04711678D01*
X04722091Y02044141D02*
X04724173Y02042059D01*
X04728339D01*
X04730421Y02044141D01*
Y02052472D01*
X04728339Y02054554D01*
X04724173D01*
X04722091Y02052472D01*
Y02050389D01*
X04724173Y02048306D01*
X04730421D01*
X04734587Y02052472D02*
X04736669Y02054554D01*
X04740835D01*
X04742917Y02052472D01*
Y02044141D01*
X04740835Y02042059D01*
X04736669D01*
X04734587Y02044141D01*
Y02052472D01*
X04911231Y02052472D02*
X04913314Y02054554D01*
X04917479D01*
X04919562Y02052472D01*
Y02044141D01*
X04917479Y02042058D01*
X04913314D01*
X04911231Y02044141D01*
Y02052472D01*
X04923727Y02042058D02*
Y02044141D01*
X04925810D01*
Y02042058D01*
X04923727D01*
X04934141Y02044141D02*
X04936223Y02042058D01*
X04940388D01*
X04942471Y02044141D01*
Y02052472D01*
X04940388Y02054554D01*
X04936223D01*
X04934141Y02052472D01*
Y02050389D01*
X04936223Y02048306D01*
X04942471D01*
X04946636Y02052472D02*
X04948719Y02054554D01*
X04952885D01*
X04954967Y02052472D01*
Y02044141D01*
X04952885Y02042058D01*
X04948719D01*
X04946636Y02044141D01*
Y02052472D01*
X05123281Y02052471D02*
X05125364Y02054554D01*
X05129529D01*
X05131612Y02052471D01*
Y02044141D01*
X05129529Y02042058D01*
X05125364D01*
X05123281Y02044141D01*
Y02052471D01*
X05135777Y02042058D02*
Y02044141D01*
X05137859D01*
Y02042058D01*
X05135777D01*
X05146190Y02044141D02*
X05148273Y02042058D01*
X05152438D01*
X05154521Y02044141D01*
Y02052471D01*
X05152438Y02054554D01*
X05148273D01*
X05146190Y02052471D01*
Y02050389D01*
X05148273Y02048306D01*
X05154521D01*
X05158687Y02052471D02*
X05160769Y02054554D01*
X05164934D01*
X05167017Y02052471D01*
Y02044141D01*
X05164934Y02042058D01*
X05160769D01*
X05158687Y02044141D01*
Y02052471D01*
X05335331Y02052471D02*
X05337413Y02054554D01*
X05341579D01*
X05343661Y02052471D01*
Y02044141D01*
X05341579Y02042058D01*
X05337413D01*
X05335331Y02044141D01*
Y02052471D01*
X05347827Y02042058D02*
Y02044141D01*
X05349910D01*
Y02042058D01*
X05347827D01*
X05358240Y02044141D02*
X05360323Y02042058D01*
X05364488D01*
X05366571Y02044141D01*
Y02052471D01*
X05364488Y02054554D01*
X05360323D01*
X05358240Y02052471D01*
Y02050389D01*
X05360323Y02048306D01*
X05366571D01*
X05370736Y02052471D02*
X05372819Y02054554D01*
X05376984D01*
X05379067Y02052471D01*
Y02044141D01*
X05376984Y02042058D01*
X05372819D01*
X05370736Y02044141D01*
Y02052471D01*
X04699182Y01852472D02*
X04701264Y01854554D01*
X04705429D01*
X04707512Y01852472D01*
Y01844141D01*
X04705429Y01842059D01*
X04701264D01*
X04699182Y01844141D01*
Y01852472D01*
X04711678Y01842059D02*
Y01844141D01*
X04713760D01*
Y01842059D01*
X04711678D01*
X04722091Y01844141D02*
X04724173Y01842059D01*
X04728339D01*
X04730421Y01844141D01*
Y01852472D01*
X04728339Y01854554D01*
X04724173D01*
X04722091Y01852472D01*
Y01850389D01*
X04724173Y01848306D01*
X04730421D01*
X04734587Y01852472D02*
X04736669Y01854554D01*
X04740835D01*
X04742917Y01852472D01*
Y01844141D01*
X04740835Y01842059D01*
X04736669D01*
X04734587Y01844141D01*
Y01852472D01*
X04911231Y01852472D02*
X04913314Y01854554D01*
X04917479D01*
X04919562Y01852472D01*
Y01844141D01*
X04917479Y01842058D01*
X04913314D01*
X04911231Y01844141D01*
Y01852472D01*
X04923727Y01842058D02*
Y01844141D01*
X04925810D01*
Y01842058D01*
X04923727D01*
X04934141Y01844141D02*
X04936223Y01842058D01*
X04940388D01*
X04942471Y01844141D01*
Y01852472D01*
X04940388Y01854554D01*
X04936223D01*
X04934141Y01852472D01*
Y01850389D01*
X04936223Y01848306D01*
X04942471D01*
X04946636Y01852472D02*
X04948719Y01854554D01*
X04952885D01*
X04954967Y01852472D01*
Y01844141D01*
X04952885Y01842058D01*
X04948719D01*
X04946636Y01844141D01*
Y01852472D01*
X05123281Y01852471D02*
X05125364Y01854554D01*
X05129529D01*
X05131612Y01852471D01*
Y01844141D01*
X05129529Y01842058D01*
X05125364D01*
X05123281Y01844141D01*
Y01852471D01*
X05135777Y01842058D02*
Y01844141D01*
X05137859D01*
Y01842058D01*
X05135777D01*
X05146190Y01844141D02*
X05148273Y01842058D01*
X05152438D01*
X05154521Y01844141D01*
Y01852471D01*
X05152438Y01854554D01*
X05148273D01*
X05146190Y01852471D01*
Y01850389D01*
X05148273Y01848306D01*
X05154521D01*
X05158687Y01852471D02*
X05160769Y01854554D01*
X05164934D01*
X05167017Y01852471D01*
Y01844141D01*
X05164934Y01842058D01*
X05160769D01*
X05158687Y01844141D01*
Y01852471D01*
X05335331Y01852471D02*
X05337413Y01854554D01*
X05341579D01*
X05343661Y01852471D01*
Y01844140D01*
X05341579Y01842058D01*
X05337413D01*
X05335331Y01844140D01*
Y01852471D01*
X05347827Y01842058D02*
Y01844140D01*
X05349910D01*
Y01842058D01*
X05347827D01*
X05358240Y01844140D02*
X05360323Y01842058D01*
X05364488D01*
X05366571Y01844140D01*
Y01852471D01*
X05364488Y01854554D01*
X05360323D01*
X05358240Y01852471D01*
Y01850388D01*
X05360323Y01848306D01*
X05366571D01*
X05370736Y01852471D02*
X05372819Y01854554D01*
X05376984D01*
X05379067Y01852471D01*
Y01844140D01*
X05376984Y01842058D01*
X05372819D01*
X05370736Y01844140D01*
Y01852471D01*
X04699182Y01652472D02*
X04701264Y01654554D01*
X04705429D01*
X04707512Y01652472D01*
Y01644141D01*
X04705429Y01642059D01*
X04701264D01*
X04699182Y01644141D01*
Y01652472D01*
X04711678Y01642059D02*
Y01644141D01*
X04713760D01*
Y01642059D01*
X04711678D01*
X04722091Y01644141D02*
X04724173Y01642059D01*
X04728339D01*
X04730421Y01644141D01*
Y01652472D01*
X04728339Y01654554D01*
X04724173D01*
X04722091Y01652472D01*
Y01650389D01*
X04724173Y01648306D01*
X04730421D01*
X04734587Y01652472D02*
X04736669Y01654554D01*
X04740835D01*
X04742917Y01652472D01*
Y01644141D01*
X04740835Y01642059D01*
X04736669D01*
X04734587Y01644141D01*
Y01652472D01*
X04911231Y01652471D02*
X04913314Y01654554D01*
X04917479D01*
X04919562Y01652471D01*
Y01644141D01*
X04917479Y01642058D01*
X04913314D01*
X04911231Y01644141D01*
Y01652471D01*
X04923727Y01642058D02*
Y01644141D01*
X04925810D01*
Y01642058D01*
X04923727D01*
X04934141Y01644141D02*
X04936223Y01642058D01*
X04940388D01*
X04942471Y01644141D01*
Y01652471D01*
X04940388Y01654554D01*
X04936223D01*
X04934141Y01652471D01*
Y01650389D01*
X04936223Y01648306D01*
X04942471D01*
X04946636Y01652471D02*
X04948719Y01654554D01*
X04952885D01*
X04954967Y01652471D01*
Y01644141D01*
X04952885Y01642058D01*
X04948719D01*
X04946636Y01644141D01*
Y01652471D01*
X05123281Y01652471D02*
X05125364Y01654554D01*
X05129529D01*
X05131612Y01652471D01*
Y01644141D01*
X05129529Y01642058D01*
X05125364D01*
X05123281Y01644141D01*
Y01652471D01*
X05135777Y01642058D02*
Y01644141D01*
X05137859D01*
Y01642058D01*
X05135777D01*
X05146190Y01644141D02*
X05148273Y01642058D01*
X05152438D01*
X05154521Y01644141D01*
Y01652471D01*
X05152438Y01654554D01*
X05148273D01*
X05146190Y01652471D01*
Y01650389D01*
X05148273Y01648306D01*
X05154521D01*
X05158687Y01652471D02*
X05160769Y01654554D01*
X05164934D01*
X05167017Y01652471D01*
Y01644141D01*
X05164934Y01642058D01*
X05160769D01*
X05158687Y01644141D01*
Y01652471D01*
X05335331Y01652471D02*
X05337413Y01654554D01*
X05341579D01*
X05343661Y01652471D01*
Y01644140D01*
X05341579Y01642058D01*
X05337413D01*
X05335331Y01644140D01*
Y01652471D01*
X05347827Y01642058D02*
Y01644140D01*
X05349910D01*
Y01642058D01*
X05347827D01*
X05358240Y01644140D02*
X05360323Y01642058D01*
X05364488D01*
X05366571Y01644140D01*
Y01652471D01*
X05364488Y01654554D01*
X05360323D01*
X05358240Y01652471D01*
Y01650388D01*
X05360323Y01648306D01*
X05366571D01*
X05370736Y01652471D02*
X05372819Y01654554D01*
X05376984D01*
X05379067Y01652471D01*
Y01644140D01*
X05376984Y01642058D01*
X05372819D01*
X05370736Y01644140D01*
Y01652471D01*
X04449181Y01652472D02*
X04451264Y01654554D01*
X04455429D01*
X04457512Y01652472D01*
Y01644141D01*
X04455429Y01642058D01*
X04451264D01*
X04449181Y01644141D01*
Y01652472D01*
X04461677Y01642058D02*
Y01644141D01*
X04463760D01*
Y01642058D01*
X04461677D01*
X04472090Y01644141D02*
X04474173Y01642058D01*
X04478338D01*
X04480421Y01644141D01*
Y01652472D01*
X04478338Y01654554D01*
X04474173D01*
X04472090Y01652472D01*
Y01650389D01*
X04474173Y01648306D01*
X04480421D01*
X04484586Y01652472D02*
X04486669Y01654554D01*
X04490834D01*
X04492917Y01652472D01*
Y01644141D01*
X04490834Y01642058D01*
X04486669D01*
X04484586Y01644141D01*
Y01652472D01*
X04449181Y02052472D02*
X04451264Y02054554D01*
X04455429D01*
X04457512Y02052472D01*
Y02044141D01*
X04455429Y02042059D01*
X04451264D01*
X04449181Y02044141D01*
Y02052472D01*
X04461677Y02042059D02*
Y02044141D01*
X04463760D01*
Y02042059D01*
X04461677D01*
X04472090Y02044141D02*
X04474173Y02042059D01*
X04478338D01*
X04480421Y02044141D01*
Y02052472D01*
X04478338Y02054554D01*
X04474173D01*
X04472090Y02052472D01*
Y02050389D01*
X04474173Y02048306D01*
X04480421D01*
X04484586Y02052472D02*
X04486669Y02054554D01*
X04490834D01*
X04492917Y02052472D01*
Y02044141D01*
X04490834Y02042059D01*
X04486669D01*
X04484586Y02044141D01*
Y02052472D01*
X04449181Y02252472D02*
X04451264Y02254554D01*
X04455429D01*
X04457512Y02252472D01*
Y02244141D01*
X04455429Y02242059D01*
X04451264D01*
X04449181Y02244141D01*
Y02252472D01*
X04461677Y02242059D02*
Y02244141D01*
X04463760D01*
Y02242059D01*
X04461677D01*
X04472090Y02244141D02*
X04474173Y02242059D01*
X04478338D01*
X04480421Y02244141D01*
Y02252472D01*
X04478338Y02254554D01*
X04474173D01*
X04472090Y02252472D01*
Y02250389D01*
X04474173Y02248306D01*
X04480421D01*
X04484586Y02252472D02*
X04486669Y02254554D01*
X04490834D01*
X04492917Y02252472D01*
Y02244141D01*
X04490834Y02242059D01*
X04486669D01*
X04484586Y02244141D01*
Y02252472D01*
X04449181Y01852472D02*
X04451264Y01854554D01*
X04455429D01*
X04457512Y01852472D01*
Y01844141D01*
X04455429Y01842059D01*
X04451264D01*
X04449181Y01844141D01*
Y01852472D01*
X04461677Y01842059D02*
Y01844141D01*
X04463760D01*
Y01842059D01*
X04461677D01*
X04472090Y01844141D02*
X04474173Y01842059D01*
X04478338D01*
X04480421Y01844141D01*
Y01852472D01*
X04478338Y01854554D01*
X04474173D01*
X04472090Y01852472D01*
Y01850389D01*
X04474173Y01848306D01*
X04480421D01*
X04484586Y01852472D02*
X04486669Y01854554D01*
X04490834D01*
X04492917Y01852472D01*
Y01844141D01*
X04490834Y01842059D01*
X04486669D01*
X04484586Y01844141D01*
Y01852472D01*
X04237131Y02252472D02*
X04239214Y02254555D01*
X04243379D01*
X04245462Y02252472D01*
Y02244141D01*
X04243379Y02242059D01*
X04239214D01*
X04237131Y02244141D01*
Y02252472D01*
X04249627Y02242059D02*
Y02244141D01*
X04251710D01*
Y02242059D01*
X04249627D01*
X04260041Y02244141D02*
X04262123Y02242059D01*
X04266288D01*
X04268371Y02244141D01*
Y02252472D01*
X04266288Y02254555D01*
X04262123D01*
X04260041Y02252472D01*
Y02250389D01*
X04262123Y02248307D01*
X04268371D01*
X04272537Y02252472D02*
X04274619Y02254555D01*
X04278784D01*
X04280867Y02252472D01*
Y02244141D01*
X04278784Y02242059D01*
X04274619D01*
X04272537Y02244141D01*
Y02252472D01*
X04237131Y01652472D02*
X04239214Y01654555D01*
X04243379D01*
X04245462Y01652472D01*
Y01644141D01*
X04243379Y01642059D01*
X04239214D01*
X04237131Y01644141D01*
Y01652472D01*
X04249627Y01642059D02*
Y01644141D01*
X04251710D01*
Y01642059D01*
X04249627D01*
X04260041Y01644141D02*
X04262123Y01642059D01*
X04266288D01*
X04268371Y01644141D01*
Y01652472D01*
X04266288Y01654555D01*
X04262123D01*
X04260041Y01652472D01*
Y01650389D01*
X04262123Y01648307D01*
X04268371D01*
X04272537Y01652472D02*
X04274619Y01654555D01*
X04278784D01*
X04280867Y01652472D01*
Y01644141D01*
X04278784Y01642059D01*
X04274619D01*
X04272537Y01644141D01*
Y01652472D01*
X04237131Y01852472D02*
X04239214Y01854555D01*
X04243379D01*
X04245462Y01852472D01*
Y01844141D01*
X04243379Y01842059D01*
X04239214D01*
X04237131Y01844141D01*
Y01852472D01*
X04249627Y01842059D02*
Y01844141D01*
X04251710D01*
Y01842059D01*
X04249627D01*
X04260041Y01844141D02*
X04262123Y01842059D01*
X04266288D01*
X04268371Y01844141D01*
Y01852472D01*
X04266288Y01854555D01*
X04262123D01*
X04260041Y01852472D01*
Y01850389D01*
X04262123Y01848307D01*
X04268371D01*
X04272537Y01852472D02*
X04274619Y01854555D01*
X04278784D01*
X04280867Y01852472D01*
Y01844141D01*
X04278784Y01842059D01*
X04274619D01*
X04272537Y01844141D01*
Y01852472D01*
X04237131Y02052472D02*
X04239214Y02054555D01*
X04243379D01*
X04245462Y02052472D01*
Y02044141D01*
X04243379Y02042059D01*
X04239214D01*
X04237131Y02044141D01*
Y02052472D01*
X04249627Y02042059D02*
Y02044141D01*
X04251710D01*
Y02042059D01*
X04249627D01*
X04260041Y02044141D02*
X04262123Y02042059D01*
X04266288D01*
X04268371Y02044141D01*
Y02052472D01*
X04266288Y02054555D01*
X04262123D01*
X04260041Y02052472D01*
Y02050389D01*
X04262123Y02048307D01*
X04268371D01*
X04272537Y02052472D02*
X04274619Y02054555D01*
X04278784D01*
X04280867Y02052472D01*
Y02044141D01*
X04278784Y02042059D01*
X04274619D01*
X04272537Y02044141D01*
Y02052472D01*
X04025081Y01652472D02*
X04027164Y01654555D01*
X04031330D01*
X04033412Y01652472D01*
Y01644142D01*
X04031330Y01642059D01*
X04027164D01*
X04025081Y01644142D01*
Y01652472D01*
X04037578Y01642059D02*
Y01644142D01*
X04039660D01*
Y01642059D01*
X04037578D01*
X04047991Y01644142D02*
X04050074Y01642059D01*
X04054239D01*
X04056321Y01644142D01*
Y01652472D01*
X04054239Y01654555D01*
X04050074D01*
X04047991Y01652472D01*
Y01650390D01*
X04050074Y01648307D01*
X04056321D01*
X04060487Y01652472D02*
X04062569Y01654555D01*
X04066735D01*
X04068817Y01652472D01*
Y01644142D01*
X04066735Y01642059D01*
X04062569D01*
X04060487Y01644142D01*
Y01652472D01*
X03813032Y02552478D02*
X03815114Y02554560D01*
X03819280D01*
X03821362Y02552478D01*
Y02544147D01*
X03819280Y02542064D01*
X03815114D01*
X03813032Y02544147D01*
Y02552478D01*
X03825528Y02542064D02*
Y02544147D01*
X03827610D01*
Y02542064D01*
X03825528D01*
X03835941Y02544147D02*
X03838024Y02542064D01*
X03842189D01*
X03844272Y02544147D01*
Y02552478D01*
X03842189Y02554560D01*
X03838024D01*
X03835941Y02552478D01*
Y02550395D01*
X03838024Y02548312D01*
X03844272D01*
X03848437Y02552478D02*
X03850520Y02554560D01*
X03854685D01*
X03856768Y02552478D01*
Y02544147D01*
X03854685Y02542064D01*
X03850520D01*
X03848437Y02544147D01*
Y02552478D01*
X04025081Y02552477D02*
X04027164Y02554560D01*
X04031330D01*
X04033412Y02552477D01*
Y02544147D01*
X04031330Y02542064D01*
X04027164D01*
X04025081Y02544147D01*
Y02552477D01*
X04037578Y02542064D02*
Y02544147D01*
X04039660D01*
Y02542064D01*
X04037578D01*
X04047991Y02544147D02*
X04050074Y02542064D01*
X04054239D01*
X04056321Y02544147D01*
Y02552477D01*
X04054239Y02554560D01*
X04050074D01*
X04047991Y02552477D01*
Y02550395D01*
X04050074Y02548312D01*
X04056321D01*
X04060487Y02552477D02*
X04062569Y02554560D01*
X04066735D01*
X04068817Y02552477D01*
Y02544147D01*
X04066735Y02542064D01*
X04062569D01*
X04060487Y02544147D01*
Y02552477D01*
X03813032Y02252472D02*
X03815114Y02254555D01*
X03819280D01*
X03821362Y02252472D01*
Y02244142D01*
X03819280Y02242059D01*
X03815114D01*
X03813032Y02244142D01*
Y02252472D01*
X03825528Y02242059D02*
Y02244142D01*
X03827610D01*
Y02242059D01*
X03825528D01*
X03835941Y02244142D02*
X03838024Y02242059D01*
X03842189D01*
X03844272Y02244142D01*
Y02252472D01*
X03842189Y02254555D01*
X03838024D01*
X03835941Y02252472D01*
Y02250390D01*
X03838024Y02248307D01*
X03844272D01*
X03848437Y02252472D02*
X03850520Y02254555D01*
X03854685D01*
X03856768Y02252472D01*
Y02244142D01*
X03854685Y02242059D01*
X03850520D01*
X03848437Y02244142D01*
Y02252472D01*
X04025081Y02252472D02*
X04027164Y02254555D01*
X04031330D01*
X04033412Y02252472D01*
Y02244142D01*
X04031330Y02242059D01*
X04027164D01*
X04025081Y02244142D01*
Y02252472D01*
X04037578Y02242059D02*
Y02244142D01*
X04039660D01*
Y02242059D01*
X04037578D01*
X04047991Y02244142D02*
X04050074Y02242059D01*
X04054239D01*
X04056321Y02244142D01*
Y02252472D01*
X04054239Y02254555D01*
X04050074D01*
X04047991Y02252472D01*
Y02250390D01*
X04050074Y02248307D01*
X04056321D01*
X04060487Y02252472D02*
X04062569Y02254555D01*
X04066735D01*
X04068817Y02252472D01*
Y02244142D01*
X04066735Y02242059D01*
X04062569D01*
X04060487Y02244142D01*
Y02252472D01*
X03563031Y02252473D02*
X03565114Y02254556D01*
X03569279D01*
X03571361Y02252473D01*
Y02244143D01*
X03569279Y02242060D01*
X03565114D01*
X03563031Y02244143D01*
Y02252473D01*
X03575527Y02242060D02*
Y02244143D01*
X03577609D01*
Y02242060D01*
X03575527D01*
X03585940Y02244143D02*
X03588023Y02242060D01*
X03592188D01*
X03594271Y02244143D01*
Y02252473D01*
X03592188Y02254556D01*
X03588023D01*
X03585940Y02252473D01*
Y02250391D01*
X03588023Y02248308D01*
X03594271D01*
X03598436Y02252473D02*
X03600519Y02254556D01*
X03604684D01*
X03606767Y02252473D01*
Y02244143D01*
X03604684Y02242060D01*
X03600519D01*
X03598436Y02244143D01*
Y02252473D01*
X03813032Y02052472D02*
X03815114Y02054555D01*
X03819280D01*
X03821362Y02052472D01*
Y02044142D01*
X03819280Y02042059D01*
X03815114D01*
X03813032Y02044142D01*
Y02052472D01*
X03825528Y02042059D02*
Y02044142D01*
X03827610D01*
Y02042059D01*
X03825528D01*
X03835941Y02044142D02*
X03838024Y02042059D01*
X03842189D01*
X03844272Y02044142D01*
Y02052472D01*
X03842189Y02054555D01*
X03838024D01*
X03835941Y02052472D01*
Y02050390D01*
X03838024Y02048307D01*
X03844272D01*
X03848437Y02052472D02*
X03850520Y02054555D01*
X03854685D01*
X03856768Y02052472D01*
Y02044142D01*
X03854685Y02042059D01*
X03850520D01*
X03848437Y02044142D01*
Y02052472D01*
X04025081Y02052472D02*
X04027164Y02054555D01*
X04031330D01*
X04033412Y02052472D01*
Y02044142D01*
X04031330Y02042059D01*
X04027164D01*
X04025081Y02044142D01*
Y02052472D01*
X04037578Y02042059D02*
Y02044142D01*
X04039660D01*
Y02042059D01*
X04037578D01*
X04047991Y02044142D02*
X04050074Y02042059D01*
X04054239D01*
X04056321Y02044142D01*
Y02052472D01*
X04054239Y02054555D01*
X04050074D01*
X04047991Y02052472D01*
Y02050390D01*
X04050074Y02048307D01*
X04056321D01*
X04060487Y02052472D02*
X04062569Y02054555D01*
X04066735D01*
X04068817Y02052472D01*
Y02044142D01*
X04066735Y02042059D01*
X04062569D01*
X04060487Y02044142D01*
Y02052472D01*
X03813032Y01852472D02*
X03815114Y01854555D01*
X03819280D01*
X03821362Y01852472D01*
Y01844142D01*
X03819280Y01842059D01*
X03815114D01*
X03813032Y01844142D01*
Y01852472D01*
X03825528Y01842059D02*
Y01844142D01*
X03827610D01*
Y01842059D01*
X03825528D01*
X03835941Y01844142D02*
X03838024Y01842059D01*
X03842189D01*
X03844272Y01844142D01*
Y01852472D01*
X03842189Y01854555D01*
X03838024D01*
X03835941Y01852472D01*
Y01850390D01*
X03838024Y01848307D01*
X03844272D01*
X03848437Y01852472D02*
X03850520Y01854555D01*
X03854685D01*
X03856768Y01852472D01*
Y01844142D01*
X03854685Y01842059D01*
X03850520D01*
X03848437Y01844142D01*
Y01852472D01*
X04025081Y01852472D02*
X04027164Y01854555D01*
X04031330D01*
X04033412Y01852472D01*
Y01844142D01*
X04031330Y01842059D01*
X04027164D01*
X04025081Y01844142D01*
Y01852472D01*
X04037578Y01842059D02*
Y01844142D01*
X04039660D01*
Y01842059D01*
X04037578D01*
X04047991Y01844142D02*
X04050074Y01842059D01*
X04054239D01*
X04056321Y01844142D01*
Y01852472D01*
X04054239Y01854555D01*
X04050074D01*
X04047991Y01852472D01*
Y01850390D01*
X04050074Y01848307D01*
X04056321D01*
X04060487Y01852472D02*
X04062569Y01854555D01*
X04066735D01*
X04068817Y01852472D01*
Y01844142D01*
X04066735Y01842059D01*
X04062569D01*
X04060487Y01844142D01*
Y01852472D01*
X03813032Y01652472D02*
X03815114Y01654555D01*
X03819280D01*
X03821362Y01652472D01*
Y01644142D01*
X03819280Y01642059D01*
X03815114D01*
X03813032Y01644142D01*
Y01652472D01*
X03825528Y01642059D02*
Y01644142D01*
X03827610D01*
Y01642059D01*
X03825528D01*
X03835941Y01644142D02*
X03838024Y01642059D01*
X03842189D01*
X03844272Y01644142D01*
Y01652472D01*
X03842189Y01654555D01*
X03838024D01*
X03835941Y01652472D01*
Y01650390D01*
X03838024Y01648307D01*
X03844272D01*
X03848437Y01652472D02*
X03850520Y01654555D01*
X03854685D01*
X03856768Y01652472D01*
Y01644142D01*
X03854685Y01642059D01*
X03850520D01*
X03848437Y01644142D01*
Y01652472D01*
X03563031D02*
X03565114Y01654555D01*
X03569279D01*
X03571361Y01652472D01*
Y01644142D01*
X03569279Y01642059D01*
X03565114D01*
X03563031Y01644142D01*
Y01652472D01*
X03575527Y01642059D02*
Y01644142D01*
X03577609D01*
Y01642059D01*
X03575527D01*
X03585940Y01644142D02*
X03588023Y01642059D01*
X03592188D01*
X03594271Y01644142D01*
Y01652472D01*
X03592188Y01654555D01*
X03588023D01*
X03585940Y01652472D01*
Y01650390D01*
X03588023Y01648307D01*
X03594271D01*
X03598436Y01652472D02*
X03600519Y01654555D01*
X03604684D01*
X03606767Y01652472D01*
Y01644142D01*
X03604684Y01642059D01*
X03600519D01*
X03598436Y01644142D01*
Y01652472D01*
X03563031Y01952472D02*
X03565114Y01954555D01*
X03569279D01*
X03571361Y01952472D01*
Y01944142D01*
X03569279Y01942059D01*
X03565114D01*
X03563031Y01944142D01*
Y01952472D01*
X03575527Y01942059D02*
Y01944142D01*
X03577609D01*
Y01942059D01*
X03575527D01*
X03585940Y01944142D02*
X03588023Y01942059D01*
X03592188D01*
X03594271Y01944142D01*
Y01952472D01*
X03592188Y01954555D01*
X03588023D01*
X03585940Y01952472D01*
Y01950390D01*
X03588023Y01948307D01*
X03594271D01*
X03598436Y01952472D02*
X03600519Y01954555D01*
X03604684D01*
X03606767Y01952472D01*
Y01944142D01*
X03604684Y01942059D01*
X03600519D01*
X03598436Y01944142D01*
Y01952472D01*
X03563031Y02552473D02*
X03565114Y02554556D01*
X03569279D01*
X03571361Y02552473D01*
Y02544143D01*
X03569279Y02542060D01*
X03565114D01*
X03563031Y02544143D01*
Y02552473D01*
X03575527Y02542060D02*
Y02544143D01*
X03577609D01*
Y02542060D01*
X03575527D01*
X03585940Y02544143D02*
X03588023Y02542060D01*
X03592188D01*
X03594271Y02544143D01*
Y02552473D01*
X03592188Y02554556D01*
X03588023D01*
X03585940Y02552473D01*
Y02550391D01*
X03588023Y02548308D01*
X03594271D01*
X03598436Y02552473D02*
X03600519Y02554556D01*
X03604684D01*
X03606767Y02552473D01*
Y02544143D01*
X03604684Y02542060D01*
X03600519D01*
X03598436Y02544143D01*
Y02552473D01*
X03547082Y01855515D02*
X03549165Y01857598D01*
X03553330D01*
X03555413Y01855515D01*
Y01847185D01*
X03553330Y01845102D01*
X03549165D01*
X03547082Y01847185D01*
Y01855515D01*
X03559578Y01845102D02*
Y01847185D01*
X03561661D01*
Y01845102D01*
X03559578D01*
X03576239D02*
Y01857598D01*
X03569991Y01851350D01*
X03578322D01*
X03582487Y01855515D02*
X03584570Y01857598D01*
X03588735D01*
X03590818Y01855515D01*
Y01847185D01*
X03588735Y01845102D01*
X03584570D01*
X03582487Y01847185D01*
Y01855515D01*
X03555082Y01855515D02*
X03557165Y01857598D01*
X03561330D01*
X03563413Y01855515D01*
Y01847185D01*
X03561330Y01845102D01*
X03557165D01*
X03555082Y01847185D01*
Y01855515D01*
X03567578Y01845102D02*
Y01847185D01*
X03569661D01*
Y01845102D01*
X03567578D01*
X03584239D02*
Y01857598D01*
X03577991Y01851350D01*
X03586322D01*
X03590487Y01855515D02*
X03592570Y01857598D01*
X03596735D01*
X03598818Y01855515D01*
Y01847185D01*
X03596735Y01845102D01*
X03592570D01*
X03590487Y01847185D01*
Y01855515D01*
X03563082D02*
X03565165Y01857598D01*
X03569330D01*
X03571413Y01855515D01*
Y01847185D01*
X03569330Y01845102D01*
X03565165D01*
X03563082Y01847185D01*
Y01855515D01*
X03575578Y01845102D02*
Y01847185D01*
X03577661D01*
Y01845102D01*
X03575578D01*
X03592239D02*
Y01857598D01*
X03585991Y01851350D01*
X03594322D01*
X03598487Y01855515D02*
X03600570Y01857598D01*
X03604735D01*
X03606818Y01855515D01*
Y01847185D01*
X03604735Y01845102D01*
X03600570D01*
X03598487Y01847185D01*
Y01855515D01*
X03571082D02*
X03573165Y01857598D01*
X03577330D01*
X03579413Y01855515D01*
Y01847185D01*
X03577330Y01845102D01*
X03573165D01*
X03571082Y01847185D01*
Y01855515D01*
X03583578Y01845102D02*
Y01847185D01*
X03585661D01*
Y01845102D01*
X03583578D01*
X03600239D02*
Y01857598D01*
X03593991Y01851350D01*
X03602322D01*
X03606487Y01855515D02*
X03608570Y01857598D01*
X03612735D01*
X03614818Y01855515D01*
Y01847185D01*
X03612735Y01845102D01*
X03608570D01*
X03606487Y01847185D01*
Y01855515D01*
X03579082D02*
X03581165Y01857598D01*
X03585330D01*
X03587413Y01855515D01*
Y01847185D01*
X03585330Y01845102D01*
X03581165D01*
X03579082Y01847185D01*
Y01855515D01*
X03591578Y01845102D02*
Y01847185D01*
X03593661D01*
Y01845102D01*
X03591578D01*
X03608239D02*
Y01857598D01*
X03601991Y01851350D01*
X03610322D01*
X03614487Y01855515D02*
X03616570Y01857598D01*
X03620735D01*
X03622818Y01855515D01*
Y01847185D01*
X03620735Y01845102D01*
X03616570D01*
X03614487Y01847185D01*
Y01855515D01*
X03547082Y01900409D02*
X03549165Y01902492D01*
X03553330D01*
X03555413Y01900409D01*
Y01892079D01*
X03553330Y01889996D01*
X03549165D01*
X03547082Y01892079D01*
Y01900409D01*
X03559578Y01889996D02*
Y01892079D01*
X03561661D01*
Y01889996D01*
X03559578D01*
X03576239D02*
Y01902492D01*
X03569991Y01896244D01*
X03578322D01*
X03582487Y01900409D02*
X03584570Y01902492D01*
X03588735D01*
X03590818Y01900409D01*
Y01892079D01*
X03588735Y01889996D01*
X03584570D01*
X03582487Y01892079D01*
Y01900409D01*
X03555082Y01900409D02*
X03557165Y01902492D01*
X03561330D01*
X03563413Y01900409D01*
Y01892079D01*
X03561330Y01889996D01*
X03557165D01*
X03555082Y01892079D01*
Y01900409D01*
X03567578Y01889996D02*
Y01892079D01*
X03569661D01*
Y01889996D01*
X03567578D01*
X03584239D02*
Y01902492D01*
X03577991Y01896244D01*
X03586322D01*
X03590487Y01900409D02*
X03592570Y01902492D01*
X03596735D01*
X03598818Y01900409D01*
Y01892079D01*
X03596735Y01889996D01*
X03592570D01*
X03590487Y01892079D01*
Y01900409D01*
X03563082D02*
X03565165Y01902492D01*
X03569330D01*
X03571413Y01900409D01*
Y01892079D01*
X03569330Y01889996D01*
X03565165D01*
X03563082Y01892079D01*
Y01900409D01*
X03575578Y01889996D02*
Y01892079D01*
X03577661D01*
Y01889996D01*
X03575578D01*
X03592239D02*
Y01902492D01*
X03585991Y01896244D01*
X03594322D01*
X03598487Y01900409D02*
X03600570Y01902492D01*
X03604735D01*
X03606818Y01900409D01*
Y01892079D01*
X03604735Y01889996D01*
X03600570D01*
X03598487Y01892079D01*
Y01900409D01*
X03571082D02*
X03573165Y01902492D01*
X03577330D01*
X03579413Y01900409D01*
Y01892079D01*
X03577330Y01889996D01*
X03573165D01*
X03571082Y01892079D01*
Y01900409D01*
X03583578Y01889996D02*
Y01892079D01*
X03585661D01*
Y01889996D01*
X03583578D01*
X03600239D02*
Y01902492D01*
X03593991Y01896244D01*
X03602322D01*
X03606487Y01900409D02*
X03608570Y01902492D01*
X03612735D01*
X03614818Y01900409D01*
Y01892079D01*
X03612735Y01889996D01*
X03608570D01*
X03606487Y01892079D01*
Y01900409D01*
X03579082D02*
X03581165Y01902492D01*
X03585330D01*
X03587413Y01900409D01*
Y01892079D01*
X03585330Y01889996D01*
X03581165D01*
X03579082Y01892079D01*
Y01900409D01*
X03591578Y01889996D02*
Y01892079D01*
X03593661D01*
Y01889996D01*
X03591578D01*
X03608239D02*
Y01902492D01*
X03601991Y01896244D01*
X03610322D01*
X03614487Y01900409D02*
X03616570Y01902492D01*
X03620735D01*
X03622818Y01900409D01*
Y01892079D01*
X03620735Y01889996D01*
X03616570D01*
X03614487Y01892079D01*
Y01900409D01*
X03547082Y02155397D02*
X03549165Y02157480D01*
X03553330D01*
X03555413Y02155397D01*
Y02147067D01*
X03553330Y02144984D01*
X03549165D01*
X03547082Y02147067D01*
Y02155397D01*
X03559578Y02144984D02*
Y02147067D01*
X03561661D01*
Y02144984D01*
X03559578D01*
X03576239D02*
Y02157480D01*
X03569991Y02151232D01*
X03578322D01*
X03582487Y02155397D02*
X03584570Y02157480D01*
X03588735D01*
X03590818Y02155397D01*
Y02147067D01*
X03588735Y02144984D01*
X03584570D01*
X03582487Y02147067D01*
Y02155397D01*
X03555082Y02155397D02*
X03557165Y02157480D01*
X03561330D01*
X03563413Y02155397D01*
Y02147067D01*
X03561330Y02144984D01*
X03557165D01*
X03555082Y02147067D01*
Y02155397D01*
X03567578Y02144984D02*
Y02147067D01*
X03569661D01*
Y02144984D01*
X03567578D01*
X03584239D02*
Y02157480D01*
X03577991Y02151232D01*
X03586322D01*
X03590487Y02155397D02*
X03592570Y02157480D01*
X03596735D01*
X03598818Y02155397D01*
Y02147067D01*
X03596735Y02144984D01*
X03592570D01*
X03590487Y02147067D01*
Y02155397D01*
X03563082D02*
X03565165Y02157480D01*
X03569330D01*
X03571413Y02155397D01*
Y02147067D01*
X03569330Y02144984D01*
X03565165D01*
X03563082Y02147067D01*
Y02155397D01*
X03575578Y02144984D02*
Y02147067D01*
X03577661D01*
Y02144984D01*
X03575578D01*
X03592239D02*
Y02157480D01*
X03585991Y02151232D01*
X03594322D01*
X03598487Y02155397D02*
X03600570Y02157480D01*
X03604735D01*
X03606818Y02155397D01*
Y02147067D01*
X03604735Y02144984D01*
X03600570D01*
X03598487Y02147067D01*
Y02155397D01*
X03571082D02*
X03573165Y02157480D01*
X03577330D01*
X03579413Y02155397D01*
Y02147067D01*
X03577330Y02144984D01*
X03573165D01*
X03571082Y02147067D01*
Y02155397D01*
X03583578Y02144984D02*
Y02147067D01*
X03585661D01*
Y02144984D01*
X03583578D01*
X03600239D02*
Y02157480D01*
X03593991Y02151232D01*
X03602322D01*
X03606487Y02155397D02*
X03608570Y02157480D01*
X03612735D01*
X03614818Y02155397D01*
Y02147067D01*
X03612735Y02144984D01*
X03608570D01*
X03606487Y02147067D01*
Y02155397D01*
X03579082D02*
X03581165Y02157480D01*
X03585330D01*
X03587413Y02155397D01*
Y02147067D01*
X03585330Y02144984D01*
X03581165D01*
X03579082Y02147067D01*
Y02155397D01*
X03591578Y02144984D02*
Y02147067D01*
X03593661D01*
Y02144984D01*
X03591578D01*
X03608239D02*
Y02157480D01*
X03601991Y02151232D01*
X03610322D01*
X03614487Y02155397D02*
X03616570Y02157480D01*
X03620735D01*
X03622818Y02155397D01*
Y02147067D01*
X03620735Y02144984D01*
X03616570D01*
X03614487Y02147067D01*
Y02155397D01*
X03547082Y02200577D02*
X03549165Y02202660D01*
X03553330D01*
X03555413Y02200577D01*
Y02192246D01*
X03553330Y02190164D01*
X03549165D01*
X03547082Y02192246D01*
Y02200577D01*
X03559578Y02190164D02*
Y02192246D01*
X03561661D01*
Y02190164D01*
X03559578D01*
X03576239D02*
Y02202660D01*
X03569991Y02196412D01*
X03578322D01*
X03582487Y02200577D02*
X03584570Y02202660D01*
X03588735D01*
X03590818Y02200577D01*
Y02192246D01*
X03588735Y02190164D01*
X03584570D01*
X03582487Y02192246D01*
Y02200577D01*
X03555082Y02200577D02*
X03557165Y02202660D01*
X03561330D01*
X03563413Y02200577D01*
Y02192246D01*
X03561330Y02190164D01*
X03557165D01*
X03555082Y02192246D01*
Y02200577D01*
X03567578Y02190164D02*
Y02192246D01*
X03569661D01*
Y02190164D01*
X03567578D01*
X03584239D02*
Y02202660D01*
X03577991Y02196412D01*
X03586322D01*
X03590487Y02200577D02*
X03592570Y02202660D01*
X03596735D01*
X03598818Y02200577D01*
Y02192246D01*
X03596735Y02190164D01*
X03592570D01*
X03590487Y02192246D01*
Y02200577D01*
X03563082D02*
X03565165Y02202660D01*
X03569330D01*
X03571413Y02200577D01*
Y02192246D01*
X03569330Y02190164D01*
X03565165D01*
X03563082Y02192246D01*
Y02200577D01*
X03575578Y02190164D02*
Y02192246D01*
X03577661D01*
Y02190164D01*
X03575578D01*
X03592239D02*
Y02202660D01*
X03585991Y02196412D01*
X03594322D01*
X03598487Y02200577D02*
X03600570Y02202660D01*
X03604735D01*
X03606818Y02200577D01*
Y02192246D01*
X03604735Y02190164D01*
X03600570D01*
X03598487Y02192246D01*
Y02200577D01*
X03571082D02*
X03573165Y02202660D01*
X03577330D01*
X03579413Y02200577D01*
Y02192246D01*
X03577330Y02190164D01*
X03573165D01*
X03571082Y02192246D01*
Y02200577D01*
X03583578Y02190164D02*
Y02192246D01*
X03585661D01*
Y02190164D01*
X03583578D01*
X03600239D02*
Y02202660D01*
X03593991Y02196412D01*
X03602322D01*
X03606487Y02200577D02*
X03608570Y02202660D01*
X03612735D01*
X03614818Y02200577D01*
Y02192246D01*
X03612735Y02190164D01*
X03608570D01*
X03606487Y02192246D01*
Y02200577D01*
X03579082D02*
X03581165Y02202660D01*
X03585330D01*
X03587413Y02200577D01*
Y02192246D01*
X03585330Y02190164D01*
X03581165D01*
X03579082Y02192246D01*
Y02200577D01*
X03591578Y02190164D02*
Y02192246D01*
X03593661D01*
Y02190164D01*
X03591578D01*
X03608239D02*
Y02202660D01*
X03601991Y02196412D01*
X03610322D01*
X03614487Y02200577D02*
X03616570Y02202660D01*
X03620735D01*
X03622818Y02200577D01*
Y02192246D01*
X03620735Y02190164D01*
X03616570D01*
X03614487Y02192246D01*
Y02200577D01*
X03547082Y02455366D02*
X03549165Y02457449D01*
X03553330D01*
X03555413Y02455366D01*
Y02447036D01*
X03553330Y02444953D01*
X03549165D01*
X03547082Y02447036D01*
Y02455366D01*
X03559578Y02444953D02*
Y02447036D01*
X03561661D01*
Y02444953D01*
X03559578D01*
X03576239D02*
Y02457449D01*
X03569991Y02451201D01*
X03578322D01*
X03582487Y02455366D02*
X03584570Y02457449D01*
X03588735D01*
X03590818Y02455366D01*
Y02447036D01*
X03588735Y02444953D01*
X03584570D01*
X03582487Y02447036D01*
Y02455366D01*
X03555082Y02455366D02*
X03557165Y02457449D01*
X03561330D01*
X03563413Y02455366D01*
Y02447036D01*
X03561330Y02444953D01*
X03557165D01*
X03555082Y02447036D01*
Y02455366D01*
X03567578Y02444953D02*
Y02447036D01*
X03569661D01*
Y02444953D01*
X03567578D01*
X03584239D02*
Y02457449D01*
X03577991Y02451201D01*
X03586322D01*
X03590487Y02455366D02*
X03592570Y02457449D01*
X03596735D01*
X03598818Y02455366D01*
Y02447036D01*
X03596735Y02444953D01*
X03592570D01*
X03590487Y02447036D01*
Y02455366D01*
X03563082D02*
X03565165Y02457449D01*
X03569330D01*
X03571413Y02455366D01*
Y02447036D01*
X03569330Y02444953D01*
X03565165D01*
X03563082Y02447036D01*
Y02455366D01*
X03575578Y02444953D02*
Y02447036D01*
X03577661D01*
Y02444953D01*
X03575578D01*
X03592239D02*
Y02457449D01*
X03585991Y02451201D01*
X03594322D01*
X03598487Y02455366D02*
X03600570Y02457449D01*
X03604735D01*
X03606818Y02455366D01*
Y02447036D01*
X03604735Y02444953D01*
X03600570D01*
X03598487Y02447036D01*
Y02455366D01*
X03571082D02*
X03573165Y02457449D01*
X03577330D01*
X03579413Y02455366D01*
Y02447036D01*
X03577330Y02444953D01*
X03573165D01*
X03571082Y02447036D01*
Y02455366D01*
X03583578Y02444953D02*
Y02447036D01*
X03585661D01*
Y02444953D01*
X03583578D01*
X03600239D02*
Y02457449D01*
X03593991Y02451201D01*
X03602322D01*
X03606487Y02455366D02*
X03608570Y02457449D01*
X03612735D01*
X03614818Y02455366D01*
Y02447036D01*
X03612735Y02444953D01*
X03608570D01*
X03606487Y02447036D01*
Y02455366D01*
X03579082D02*
X03581165Y02457449D01*
X03585330D01*
X03587413Y02455366D01*
Y02447036D01*
X03585330Y02444953D01*
X03581165D01*
X03579082Y02447036D01*
Y02455366D01*
X03591578Y02444953D02*
Y02447036D01*
X03593661D01*
Y02444953D01*
X03591578D01*
X03608239D02*
Y02457449D01*
X03601991Y02451201D01*
X03610322D01*
X03614487Y02455366D02*
X03616570Y02457449D01*
X03620735D01*
X03622818Y02455366D01*
Y02447036D01*
X03620735Y02444953D01*
X03616570D01*
X03614487Y02447036D01*
Y02455366D01*
X03547082Y02500477D02*
X03549165Y02502559D01*
X03553330D01*
X03555413Y02500477D01*
Y02492146D01*
X03553330Y02490063D01*
X03549165D01*
X03547082Y02492146D01*
Y02500477D01*
X03559578Y02490063D02*
Y02492146D01*
X03561661D01*
Y02490063D01*
X03559578D01*
X03576239D02*
Y02502559D01*
X03569991Y02496311D01*
X03578322D01*
X03582487Y02500477D02*
X03584570Y02502559D01*
X03588735D01*
X03590818Y02500477D01*
Y02492146D01*
X03588735Y02490063D01*
X03584570D01*
X03582487Y02492146D01*
Y02500477D01*
X03555082Y02500477D02*
X03557165Y02502559D01*
X03561330D01*
X03563413Y02500477D01*
Y02492146D01*
X03561330Y02490063D01*
X03557165D01*
X03555082Y02492146D01*
Y02500477D01*
X03567578Y02490063D02*
Y02492146D01*
X03569661D01*
Y02490063D01*
X03567578D01*
X03584239D02*
Y02502559D01*
X03577991Y02496311D01*
X03586322D01*
X03590487Y02500477D02*
X03592570Y02502559D01*
X03596735D01*
X03598818Y02500477D01*
Y02492146D01*
X03596735Y02490063D01*
X03592570D01*
X03590487Y02492146D01*
Y02500477D01*
X03563082D02*
X03565165Y02502559D01*
X03569330D01*
X03571413Y02500477D01*
Y02492146D01*
X03569330Y02490063D01*
X03565165D01*
X03563082Y02492146D01*
Y02500477D01*
X03575578Y02490063D02*
Y02492146D01*
X03577661D01*
Y02490063D01*
X03575578D01*
X03592239D02*
Y02502559D01*
X03585991Y02496311D01*
X03594322D01*
X03598487Y02500477D02*
X03600570Y02502559D01*
X03604735D01*
X03606818Y02500477D01*
Y02492146D01*
X03604735Y02490063D01*
X03600570D01*
X03598487Y02492146D01*
Y02500477D01*
X03571082D02*
X03573165Y02502559D01*
X03577330D01*
X03579413Y02500477D01*
Y02492146D01*
X03577330Y02490063D01*
X03573165D01*
X03571082Y02492146D01*
Y02500477D01*
X03583578Y02490063D02*
Y02492146D01*
X03585661D01*
Y02490063D01*
X03583578D01*
X03600239D02*
Y02502559D01*
X03593991Y02496311D01*
X03602322D01*
X03606487Y02500477D02*
X03608570Y02502559D01*
X03612735D01*
X03614818Y02500477D01*
Y02492146D01*
X03612735Y02490063D01*
X03608570D01*
X03606487Y02492146D01*
Y02500477D01*
X03579082D02*
X03581165Y02502559D01*
X03585330D01*
X03587413Y02500477D01*
Y02492146D01*
X03585330Y02490063D01*
X03581165D01*
X03579082Y02492146D01*
Y02500477D01*
X03591578Y02490063D02*
Y02492146D01*
X03593661D01*
Y02490063D01*
X03591578D01*
X03608239D02*
Y02502559D01*
X03601991Y02496311D01*
X03610322D01*
X03614487Y02500477D02*
X03616570Y02502559D01*
X03620735D01*
X03622818Y02500477D01*
Y02492146D01*
X03620735Y02490063D01*
X03616570D01*
X03614487Y02492146D01*
Y02500477D01*
X03665682Y01709515D02*
X03667765Y01711598D01*
X03671930D01*
X03674013Y01709515D01*
Y01701185D01*
X03671930Y01699102D01*
X03667765D01*
X03665682Y01701185D01*
Y01709515D01*
X03678178Y01699102D02*
Y01701185D01*
X03680261D01*
Y01699102D01*
X03678178D01*
X03694839D02*
Y01711598D01*
X03688591Y01705350D01*
X03696922D01*
X03701087Y01709515D02*
X03703170Y01711598D01*
X03707335D01*
X03709418Y01709515D01*
Y01701185D01*
X03707335Y01699102D01*
X03703170D01*
X03701087Y01701185D01*
Y01709515D01*
X03665682Y01717515D02*
X03667765Y01719598D01*
X03671930D01*
X03674013Y01717515D01*
Y01709185D01*
X03671930Y01707102D01*
X03667765D01*
X03665682Y01709185D01*
Y01717515D01*
X03678178Y01707102D02*
Y01709185D01*
X03680261D01*
Y01707102D01*
X03678178D01*
X03694839D02*
Y01719598D01*
X03688591Y01713350D01*
X03696922D01*
X03701087Y01717515D02*
X03703170Y01719598D01*
X03707335D01*
X03709418Y01717515D01*
Y01709185D01*
X03707335Y01707102D01*
X03703170D01*
X03701087Y01709185D01*
Y01717515D01*
X03665682Y01725515D02*
X03667765Y01727598D01*
X03671930D01*
X03674013Y01725515D01*
Y01717185D01*
X03671930Y01715102D01*
X03667765D01*
X03665682Y01717185D01*
Y01725515D01*
X03678178Y01715102D02*
Y01717185D01*
X03680261D01*
Y01715102D01*
X03678178D01*
X03694839D02*
Y01727598D01*
X03688591Y01721350D01*
X03696922D01*
X03701087Y01725515D02*
X03703170Y01727598D01*
X03707335D01*
X03709418Y01725515D01*
Y01717185D01*
X03707335Y01715102D01*
X03703170D01*
X03701087Y01717185D01*
Y01725515D01*
X03665682Y01733515D02*
X03667765Y01735598D01*
X03671930D01*
X03674013Y01733515D01*
Y01725185D01*
X03671930Y01723102D01*
X03667765D01*
X03665682Y01725185D01*
Y01733515D01*
X03678178Y01723102D02*
Y01725185D01*
X03680261D01*
Y01723102D01*
X03678178D01*
X03694839D02*
Y01735598D01*
X03688591Y01729350D01*
X03696922D01*
X03701087Y01733515D02*
X03703170Y01735598D01*
X03707335D01*
X03709418Y01733515D01*
Y01725185D01*
X03707335Y01723102D01*
X03703170D01*
X03701087Y01725185D01*
Y01733515D01*
X03665682Y01741515D02*
X03667765Y01743598D01*
X03671930D01*
X03674013Y01741515D01*
Y01733185D01*
X03671930Y01731102D01*
X03667765D01*
X03665682Y01733185D01*
Y01741515D01*
X03678178Y01731102D02*
Y01733185D01*
X03680261D01*
Y01731102D01*
X03678178D01*
X03694839D02*
Y01743598D01*
X03688591Y01737350D01*
X03696922D01*
X03701087Y01741515D02*
X03703170Y01743598D01*
X03707335D01*
X03709418Y01741515D01*
Y01733185D01*
X03707335Y01731102D01*
X03703170D01*
X03701087Y01733185D01*
Y01741515D01*
X03665682Y02012315D02*
X03667765Y02014398D01*
X03671930D01*
X03674013Y02012315D01*
Y02003985D01*
X03671930Y02001902D01*
X03667765D01*
X03665682Y02003985D01*
Y02012315D01*
X03678178Y02001902D02*
Y02003985D01*
X03680261D01*
Y02001902D01*
X03678178D01*
X03694839D02*
Y02014398D01*
X03688591Y02008150D01*
X03696922D01*
X03701087Y02012315D02*
X03703170Y02014398D01*
X03707335D01*
X03709418Y02012315D01*
Y02003985D01*
X03707335Y02001902D01*
X03703170D01*
X03701087Y02003985D01*
Y02012315D01*
X03665682Y02020315D02*
X03667765Y02022398D01*
X03671930D01*
X03674013Y02020315D01*
Y02011985D01*
X03671930Y02009902D01*
X03667765D01*
X03665682Y02011985D01*
Y02020315D01*
X03678178Y02009902D02*
Y02011985D01*
X03680261D01*
Y02009902D01*
X03678178D01*
X03694839D02*
Y02022398D01*
X03688591Y02016150D01*
X03696922D01*
X03701087Y02020315D02*
X03703170Y02022398D01*
X03707335D01*
X03709418Y02020315D01*
Y02011985D01*
X03707335Y02009902D01*
X03703170D01*
X03701087Y02011985D01*
Y02020315D01*
X03665682Y02028315D02*
X03667765Y02030398D01*
X03671930D01*
X03674013Y02028315D01*
Y02019985D01*
X03671930Y02017902D01*
X03667765D01*
X03665682Y02019985D01*
Y02028315D01*
X03678178Y02017902D02*
Y02019985D01*
X03680261D01*
Y02017902D01*
X03678178D01*
X03694839D02*
Y02030398D01*
X03688591Y02024150D01*
X03696922D01*
X03701087Y02028315D02*
X03703170Y02030398D01*
X03707335D01*
X03709418Y02028315D01*
Y02019985D01*
X03707335Y02017902D01*
X03703170D01*
X03701087Y02019985D01*
Y02028315D01*
X03665682Y02036315D02*
X03667765Y02038398D01*
X03671930D01*
X03674013Y02036315D01*
Y02027985D01*
X03671930Y02025902D01*
X03667765D01*
X03665682Y02027985D01*
Y02036315D01*
X03678178Y02025902D02*
Y02027985D01*
X03680261D01*
Y02025902D01*
X03678178D01*
X03694839D02*
Y02038398D01*
X03688591Y02032150D01*
X03696922D01*
X03701087Y02036315D02*
X03703170Y02038398D01*
X03707335D01*
X03709418Y02036315D01*
Y02027985D01*
X03707335Y02025902D01*
X03703170D01*
X03701087Y02027985D01*
Y02036315D01*
X03665682Y02044315D02*
X03667765Y02046398D01*
X03671930D01*
X03674013Y02044315D01*
Y02035985D01*
X03671930Y02033902D01*
X03667765D01*
X03665682Y02035985D01*
Y02044315D01*
X03678178Y02033902D02*
Y02035985D01*
X03680261D01*
Y02033902D01*
X03678178D01*
X03694839D02*
Y02046398D01*
X03688591Y02040150D01*
X03696922D01*
X03701087Y02044315D02*
X03703170Y02046398D01*
X03707335D01*
X03709418Y02044315D01*
Y02035985D01*
X03707335Y02033902D01*
X03703170D01*
X03701087Y02035985D01*
Y02044315D01*
X03665682Y02315715D02*
X03667765Y02317798D01*
X03671930D01*
X03674013Y02315715D01*
Y02307385D01*
X03671930Y02305302D01*
X03667765D01*
X03665682Y02307385D01*
Y02315715D01*
X03678178Y02305302D02*
Y02307385D01*
X03680261D01*
Y02305302D01*
X03678178D01*
X03694839D02*
Y02317798D01*
X03688591Y02311550D01*
X03696922D01*
X03701087Y02315715D02*
X03703170Y02317798D01*
X03707335D01*
X03709418Y02315715D01*
Y02307385D01*
X03707335Y02305302D01*
X03703170D01*
X03701087Y02307385D01*
Y02315715D01*
X03665682Y02323715D02*
X03667765Y02325798D01*
X03671930D01*
X03674013Y02323715D01*
Y02315385D01*
X03671930Y02313302D01*
X03667765D01*
X03665682Y02315385D01*
Y02323715D01*
X03678178Y02313302D02*
Y02315385D01*
X03680261D01*
Y02313302D01*
X03678178D01*
X03694839D02*
Y02325798D01*
X03688591Y02319550D01*
X03696922D01*
X03701087Y02323715D02*
X03703170Y02325798D01*
X03707335D01*
X03709418Y02323715D01*
Y02315385D01*
X03707335Y02313302D01*
X03703170D01*
X03701087Y02315385D01*
Y02323715D01*
X03665682Y02331715D02*
X03667765Y02333798D01*
X03671930D01*
X03674013Y02331715D01*
Y02323385D01*
X03671930Y02321302D01*
X03667765D01*
X03665682Y02323385D01*
Y02331715D01*
X03678178Y02321302D02*
Y02323385D01*
X03680261D01*
Y02321302D01*
X03678178D01*
X03694839D02*
Y02333798D01*
X03688591Y02327550D01*
X03696922D01*
X03701087Y02331715D02*
X03703170Y02333798D01*
X03707335D01*
X03709418Y02331715D01*
Y02323385D01*
X03707335Y02321302D01*
X03703170D01*
X03701087Y02323385D01*
Y02331715D01*
X03665682Y02339715D02*
X03667765Y02341798D01*
X03671930D01*
X03674013Y02339715D01*
Y02331385D01*
X03671930Y02329302D01*
X03667765D01*
X03665682Y02331385D01*
Y02339715D01*
X03678178Y02329302D02*
Y02331385D01*
X03680261D01*
Y02329302D01*
X03678178D01*
X03694839D02*
Y02341798D01*
X03688591Y02335550D01*
X03696922D01*
X03701087Y02339715D02*
X03703170Y02341798D01*
X03707335D01*
X03709418Y02339715D01*
Y02331385D01*
X03707335Y02329302D01*
X03703170D01*
X03701087Y02331385D01*
Y02339715D01*
X03665682Y02347715D02*
X03667765Y02349798D01*
X03671930D01*
X03674013Y02347715D01*
Y02339385D01*
X03671930Y02337302D01*
X03667765D01*
X03665682Y02339385D01*
Y02347715D01*
X03678178Y02337302D02*
Y02339385D01*
X03680261D01*
Y02337302D01*
X03678178D01*
X03694839D02*
Y02349798D01*
X03688591Y02343550D01*
X03696922D01*
X03701087Y02347715D02*
X03703170Y02349798D01*
X03707335D01*
X03709418Y02347715D01*
Y02339385D01*
X03707335Y02337302D01*
X03703170D01*
X03701087Y02339385D01*
Y02347715D01*
X03665682Y02613915D02*
X03667765Y02615998D01*
X03671930D01*
X03674013Y02613915D01*
Y02605585D01*
X03671930Y02603502D01*
X03667765D01*
X03665682Y02605585D01*
Y02613915D01*
X03678178Y02603502D02*
Y02605585D01*
X03680261D01*
Y02603502D01*
X03678178D01*
X03694839D02*
Y02615998D01*
X03688591Y02609750D01*
X03696922D01*
X03701087Y02613915D02*
X03703170Y02615998D01*
X03707335D01*
X03709418Y02613915D01*
Y02605585D01*
X03707335Y02603502D01*
X03703170D01*
X03701087Y02605585D01*
Y02613915D01*
X03665682Y02621915D02*
X03667765Y02623998D01*
X03671930D01*
X03674013Y02621915D01*
Y02613585D01*
X03671930Y02611502D01*
X03667765D01*
X03665682Y02613585D01*
Y02621915D01*
X03678178Y02611502D02*
Y02613585D01*
X03680261D01*
Y02611502D01*
X03678178D01*
X03694839D02*
Y02623998D01*
X03688591Y02617750D01*
X03696922D01*
X03701087Y02621915D02*
X03703170Y02623998D01*
X03707335D01*
X03709418Y02621915D01*
Y02613585D01*
X03707335Y02611502D01*
X03703170D01*
X03701087Y02613585D01*
Y02621915D01*
X03665682Y02629915D02*
X03667765Y02631998D01*
X03671930D01*
X03674013Y02629915D01*
Y02621585D01*
X03671930Y02619502D01*
X03667765D01*
X03665682Y02621585D01*
Y02629915D01*
X03678178Y02619502D02*
Y02621585D01*
X03680261D01*
Y02619502D01*
X03678178D01*
X03694839D02*
Y02631998D01*
X03688591Y02625750D01*
X03696922D01*
X03701087Y02629915D02*
X03703170Y02631998D01*
X03707335D01*
X03709418Y02629915D01*
Y02621585D01*
X03707335Y02619502D01*
X03703170D01*
X03701087Y02621585D01*
Y02629915D01*
X03665682Y02637915D02*
X03667765Y02639998D01*
X03671930D01*
X03674013Y02637915D01*
Y02629585D01*
X03671930Y02627502D01*
X03667765D01*
X03665682Y02629585D01*
Y02637915D01*
X03678178Y02627502D02*
Y02629585D01*
X03680261D01*
Y02627502D01*
X03678178D01*
X03694839D02*
Y02639998D01*
X03688591Y02633750D01*
X03696922D01*
X03701087Y02637915D02*
X03703170Y02639998D01*
X03707335D01*
X03709418Y02637915D01*
Y02629585D01*
X03707335Y02627502D01*
X03703170D01*
X03701087Y02629585D01*
Y02637915D01*
X03665682Y02645915D02*
X03667765Y02647998D01*
X03671930D01*
X03674013Y02645915D01*
Y02637585D01*
X03671930Y02635502D01*
X03667765D01*
X03665682Y02637585D01*
Y02645915D01*
X03678178Y02635502D02*
Y02637585D01*
X03680261D01*
Y02635502D01*
X03678178D01*
X03694839D02*
Y02647998D01*
X03688591Y02641750D01*
X03696922D01*
X03701087Y02645915D02*
X03703170Y02647998D01*
X03707335D01*
X03709418Y02645915D01*
Y02637585D01*
X03707335Y02635502D01*
X03703170D01*
X03701087Y02637585D01*
Y02645915D01*
X03710350Y02613915D02*
X03712433Y02615998D01*
X03716599D01*
X03718681Y02613915D01*
Y02605585D01*
X03716599Y02603502D01*
X03712433D01*
X03710350Y02605585D01*
Y02613915D01*
X03722846Y02603502D02*
Y02605585D01*
X03724929D01*
Y02603502D01*
X03722846D01*
X03739508D02*
Y02615998D01*
X03733260Y02609750D01*
X03741590D01*
X03745756Y02613915D02*
X03747838Y02615998D01*
X03752003D01*
X03754086Y02613915D01*
Y02605585D01*
X03752003Y02603502D01*
X03747838D01*
X03745756Y02605585D01*
Y02613915D01*
X03710351Y02621915D02*
X03712433Y02623998D01*
X03716599D01*
X03718681Y02621915D01*
Y02613585D01*
X03716599Y02611502D01*
X03712433D01*
X03710351Y02613585D01*
Y02621915D01*
X03722846Y02611502D02*
Y02613585D01*
X03724929D01*
Y02611502D01*
X03722846D01*
X03739508D02*
Y02623998D01*
X03733260Y02617750D01*
X03741590D01*
X03745756Y02621915D02*
X03747838Y02623998D01*
X03752003D01*
X03754086Y02621915D01*
Y02613585D01*
X03752003Y02611502D01*
X03747838D01*
X03745756Y02613585D01*
Y02621915D01*
X03710351Y02629915D02*
X03712433Y02631998D01*
X03716599D01*
X03718681Y02629915D01*
Y02621585D01*
X03716599Y02619502D01*
X03712433D01*
X03710351Y02621585D01*
Y02629915D01*
X03722846Y02619502D02*
Y02621585D01*
X03724929D01*
Y02619502D01*
X03722846D01*
X03739508D02*
Y02631998D01*
X03733260Y02625750D01*
X03741590D01*
X03745756Y02629915D02*
X03747838Y02631998D01*
X03752003D01*
X03754086Y02629915D01*
Y02621585D01*
X03752003Y02619502D01*
X03747838D01*
X03745756Y02621585D01*
Y02629915D01*
X03710351Y02637915D02*
X03712433Y02639998D01*
X03716599D01*
X03718681Y02637915D01*
Y02629585D01*
X03716599Y02627502D01*
X03712433D01*
X03710351Y02629585D01*
Y02637915D01*
X03722846Y02627502D02*
Y02629585D01*
X03724929D01*
Y02627502D01*
X03722846D01*
X03739508D02*
Y02639998D01*
X03733260Y02633750D01*
X03741590D01*
X03745756Y02637915D02*
X03747838Y02639998D01*
X03752003D01*
X03754086Y02637915D01*
Y02629585D01*
X03752003Y02627502D01*
X03747838D01*
X03745756Y02629585D01*
Y02637915D01*
X03710351Y02645915D02*
X03712433Y02647998D01*
X03716599D01*
X03718681Y02645915D01*
Y02637585D01*
X03716599Y02635502D01*
X03712433D01*
X03710351Y02637585D01*
Y02645915D01*
X03722846Y02635502D02*
Y02637585D01*
X03724929D01*
Y02635502D01*
X03722846D01*
X03739508D02*
Y02647998D01*
X03733260Y02641750D01*
X03741590D01*
X03745756Y02645915D02*
X03747838Y02647998D01*
X03752003D01*
X03754086Y02645915D01*
Y02637585D01*
X03752003Y02635502D01*
X03747838D01*
X03745756Y02637585D01*
Y02645915D01*
X03710419Y02315715D02*
X03712502Y02317798D01*
X03716667D01*
X03718749Y02315715D01*
Y02307385D01*
X03716667Y02305302D01*
X03712502D01*
X03710419Y02307385D01*
Y02315715D01*
X03722915Y02305302D02*
Y02307385D01*
X03724997D01*
Y02305302D01*
X03722915D01*
X03739576D02*
Y02317798D01*
X03733328Y02311550D01*
X03741659D01*
X03745824Y02315715D02*
X03747906Y02317798D01*
X03752072D01*
X03754155Y02315715D01*
Y02307385D01*
X03752072Y02305302D01*
X03747906D01*
X03745824Y02307385D01*
Y02315715D01*
X03710419Y02323715D02*
X03712502Y02325798D01*
X03716667D01*
X03718749Y02323715D01*
Y02315385D01*
X03716667Y02313302D01*
X03712502D01*
X03710419Y02315385D01*
Y02323715D01*
X03722915Y02313302D02*
Y02315385D01*
X03724997D01*
Y02313302D01*
X03722915D01*
X03739576D02*
Y02325798D01*
X03733328Y02319550D01*
X03741659D01*
X03745824Y02323715D02*
X03747906Y02325798D01*
X03752072D01*
X03754155Y02323715D01*
Y02315385D01*
X03752072Y02313302D01*
X03747906D01*
X03745824Y02315385D01*
Y02323715D01*
X03710419Y02331715D02*
X03712502Y02333798D01*
X03716667D01*
X03718749Y02331715D01*
Y02323385D01*
X03716667Y02321302D01*
X03712502D01*
X03710419Y02323385D01*
Y02331715D01*
X03722915Y02321302D02*
Y02323385D01*
X03724997D01*
Y02321302D01*
X03722915D01*
X03739576D02*
Y02333798D01*
X03733328Y02327550D01*
X03741659D01*
X03745824Y02331715D02*
X03747906Y02333798D01*
X03752072D01*
X03754155Y02331715D01*
Y02323385D01*
X03752072Y02321302D01*
X03747906D01*
X03745824Y02323385D01*
Y02331715D01*
X03710419Y02339715D02*
X03712502Y02341798D01*
X03716667D01*
X03718749Y02339715D01*
Y02331385D01*
X03716667Y02329302D01*
X03712502D01*
X03710419Y02331385D01*
Y02339715D01*
X03722915Y02329302D02*
Y02331385D01*
X03724997D01*
Y02329302D01*
X03722915D01*
X03739576D02*
Y02341798D01*
X03733328Y02335550D01*
X03741659D01*
X03745824Y02339715D02*
X03747906Y02341798D01*
X03752072D01*
X03754155Y02339715D01*
Y02331385D01*
X03752072Y02329302D01*
X03747906D01*
X03745824Y02331385D01*
Y02339715D01*
X03710419Y02347715D02*
X03712502Y02349798D01*
X03716667D01*
X03718749Y02347715D01*
Y02339385D01*
X03716667Y02337302D01*
X03712502D01*
X03710419Y02339385D01*
Y02347715D01*
X03722915Y02337302D02*
Y02339385D01*
X03724997D01*
Y02337302D01*
X03722915D01*
X03739576D02*
Y02349798D01*
X03733328Y02343550D01*
X03741659D01*
X03745824Y02347715D02*
X03747906Y02349798D01*
X03752072D01*
X03754155Y02347715D01*
Y02339385D01*
X03752072Y02337302D01*
X03747906D01*
X03745824Y02339385D01*
Y02347715D01*
X03710426Y02012315D02*
X03712508Y02014398D01*
X03716674D01*
X03718756Y02012315D01*
Y02003985D01*
X03716674Y02001902D01*
X03712508D01*
X03710426Y02003985D01*
Y02012315D01*
X03722921Y02001902D02*
Y02003985D01*
X03725004D01*
Y02001902D01*
X03722921D01*
X03739583D02*
Y02014398D01*
X03733335Y02008150D01*
X03741666D01*
X03745831Y02012315D02*
X03747914Y02014398D01*
X03752079D01*
X03754161Y02012315D01*
Y02003985D01*
X03752079Y02001902D01*
X03747914D01*
X03745831Y02003985D01*
Y02012315D01*
X03710426Y02020315D02*
X03712508Y02022398D01*
X03716674D01*
X03718756Y02020315D01*
Y02011985D01*
X03716674Y02009902D01*
X03712508D01*
X03710426Y02011985D01*
Y02020315D01*
X03722921Y02009902D02*
Y02011985D01*
X03725004D01*
Y02009902D01*
X03722921D01*
X03739583D02*
Y02022398D01*
X03733335Y02016150D01*
X03741666D01*
X03745831Y02020315D02*
X03747914Y02022398D01*
X03752079D01*
X03754161Y02020315D01*
Y02011985D01*
X03752079Y02009902D01*
X03747914D01*
X03745831Y02011985D01*
Y02020315D01*
X03710426Y02028315D02*
X03712508Y02030398D01*
X03716674D01*
X03718756Y02028315D01*
Y02019985D01*
X03716674Y02017902D01*
X03712508D01*
X03710426Y02019985D01*
Y02028315D01*
X03722921Y02017902D02*
Y02019985D01*
X03725004D01*
Y02017902D01*
X03722921D01*
X03739583D02*
Y02030398D01*
X03733335Y02024150D01*
X03741666D01*
X03745831Y02028315D02*
X03747914Y02030398D01*
X03752079D01*
X03754161Y02028315D01*
Y02019985D01*
X03752079Y02017902D01*
X03747914D01*
X03745831Y02019985D01*
Y02028315D01*
X03710426Y02036315D02*
X03712508Y02038398D01*
X03716674D01*
X03718756Y02036315D01*
Y02027985D01*
X03716674Y02025902D01*
X03712508D01*
X03710426Y02027985D01*
Y02036315D01*
X03722921Y02025902D02*
Y02027985D01*
X03725004D01*
Y02025902D01*
X03722921D01*
X03739583D02*
Y02038398D01*
X03733335Y02032150D01*
X03741666D01*
X03745831Y02036315D02*
X03747914Y02038398D01*
X03752079D01*
X03754161Y02036315D01*
Y02027985D01*
X03752079Y02025902D01*
X03747914D01*
X03745831Y02027985D01*
Y02036315D01*
X03710426Y02044315D02*
X03712508Y02046398D01*
X03716674D01*
X03718756Y02044315D01*
Y02035985D01*
X03716674Y02033902D01*
X03712508D01*
X03710426Y02035985D01*
Y02044315D01*
X03722921Y02033902D02*
Y02035985D01*
X03725004D01*
Y02033902D01*
X03722921D01*
X03739583D02*
Y02046398D01*
X03733335Y02040150D01*
X03741666D01*
X03745831Y02044315D02*
X03747914Y02046398D01*
X03752079D01*
X03754161Y02044315D01*
Y02035985D01*
X03752079Y02033902D01*
X03747914D01*
X03745831Y02035985D01*
Y02044315D01*
X03710416Y01709515D02*
X03712498Y01711598D01*
X03716664D01*
X03718746Y01709515D01*
Y01701185D01*
X03716664Y01699102D01*
X03712498D01*
X03710416Y01701185D01*
Y01709515D01*
X03722911Y01699102D02*
Y01701185D01*
X03724994D01*
Y01699102D01*
X03722911D01*
X03739573D02*
Y01711598D01*
X03733325Y01705350D01*
X03741655D01*
X03745821Y01709515D02*
X03747903Y01711598D01*
X03752068D01*
X03754151Y01709515D01*
Y01701185D01*
X03752068Y01699102D01*
X03747903D01*
X03745821Y01701185D01*
Y01709515D01*
X03710416Y01717515D02*
X03712498Y01719598D01*
X03716664D01*
X03718746Y01717515D01*
Y01709185D01*
X03716664Y01707102D01*
X03712498D01*
X03710416Y01709185D01*
Y01717515D01*
X03722911Y01707102D02*
Y01709185D01*
X03724994D01*
Y01707102D01*
X03722911D01*
X03739573D02*
Y01719598D01*
X03733325Y01713350D01*
X03741655D01*
X03745821Y01717515D02*
X03747903Y01719598D01*
X03752069D01*
X03754151Y01717515D01*
Y01709185D01*
X03752069Y01707102D01*
X03747903D01*
X03745821Y01709185D01*
Y01717515D01*
X03710416Y01725515D02*
X03712498Y01727598D01*
X03716664D01*
X03718746Y01725515D01*
Y01717185D01*
X03716664Y01715102D01*
X03712498D01*
X03710416Y01717185D01*
Y01725515D01*
X03722911Y01715102D02*
Y01717185D01*
X03724994D01*
Y01715102D01*
X03722911D01*
X03739573D02*
Y01727598D01*
X03733325Y01721350D01*
X03741655D01*
X03745821Y01725515D02*
X03747903Y01727598D01*
X03752069D01*
X03754151Y01725515D01*
Y01717185D01*
X03752069Y01715102D01*
X03747903D01*
X03745821Y01717185D01*
Y01725515D01*
X03710416Y01733515D02*
X03712498Y01735598D01*
X03716664D01*
X03718746Y01733515D01*
Y01725185D01*
X03716664Y01723102D01*
X03712498D01*
X03710416Y01725185D01*
Y01733515D01*
X03722911Y01723102D02*
Y01725185D01*
X03724994D01*
Y01723102D01*
X03722911D01*
X03739573D02*
Y01735598D01*
X03733325Y01729350D01*
X03741655D01*
X03745821Y01733515D02*
X03747903Y01735598D01*
X03752069D01*
X03754151Y01733515D01*
Y01725185D01*
X03752069Y01723102D01*
X03747903D01*
X03745821Y01725185D01*
Y01733515D01*
X03710416Y01741515D02*
X03712498Y01743598D01*
X03716664D01*
X03718746Y01741515D01*
Y01733185D01*
X03716664Y01731102D01*
X03712498D01*
X03710416Y01733185D01*
Y01741515D01*
X03722911Y01731102D02*
Y01733185D01*
X03724994D01*
Y01731102D01*
X03722911D01*
X03739573D02*
Y01743598D01*
X03733325Y01737350D01*
X03741655D01*
X03745821Y01741515D02*
X03747903Y01743598D01*
X03752069D01*
X03754151Y01741515D01*
Y01733185D01*
X03752069Y01731102D01*
X03747903D01*
X03745821Y01733185D01*
Y01741515D01*
X04551808Y02613915D02*
X04553891Y02615998D01*
X04558056D01*
X04560139Y02613915D01*
Y02605585D01*
X04558056Y02603502D01*
X04553891D01*
X04551808Y02605585D01*
Y02613915D01*
X04564304Y02603502D02*
Y02605585D01*
X04566387D01*
Y02603502D01*
X04564304D01*
X04580965D02*
Y02615998D01*
X04574717Y02609750D01*
X04583048D01*
X04587213Y02613915D02*
X04589296Y02615998D01*
X04593461D01*
X04595544Y02613915D01*
Y02605585D01*
X04593461Y02603502D01*
X04589296D01*
X04587213Y02605585D01*
Y02613915D01*
X04551808Y02621915D02*
X04553891Y02623998D01*
X04558056D01*
X04560139Y02621915D01*
Y02613585D01*
X04558056Y02611502D01*
X04553891D01*
X04551808Y02613585D01*
Y02621915D01*
X04564304Y02611502D02*
Y02613585D01*
X04566387D01*
Y02611502D01*
X04564304D01*
X04580965D02*
Y02623998D01*
X04574717Y02617750D01*
X04583048D01*
X04587213Y02621915D02*
X04589296Y02623998D01*
X04593461D01*
X04595544Y02621915D01*
Y02613585D01*
X04593461Y02611502D01*
X04589296D01*
X04587213Y02613585D01*
Y02621915D01*
X04551808Y02629915D02*
X04553891Y02631998D01*
X04558056D01*
X04560139Y02629915D01*
Y02621585D01*
X04558056Y02619502D01*
X04553891D01*
X04551808Y02621585D01*
Y02629915D01*
X04564304Y02619502D02*
Y02621585D01*
X04566387D01*
Y02619502D01*
X04564304D01*
X04580965D02*
Y02631998D01*
X04574717Y02625750D01*
X04583048D01*
X04587213Y02629915D02*
X04589296Y02631998D01*
X04593461D01*
X04595544Y02629915D01*
Y02621585D01*
X04593461Y02619502D01*
X04589296D01*
X04587213Y02621585D01*
Y02629915D01*
X04551808Y02637915D02*
X04553891Y02639998D01*
X04558056D01*
X04560139Y02637915D01*
Y02629585D01*
X04558056Y02627502D01*
X04553891D01*
X04551808Y02629585D01*
Y02637915D01*
X04564304Y02627502D02*
Y02629585D01*
X04566387D01*
Y02627502D01*
X04564304D01*
X04580965D02*
Y02639998D01*
X04574717Y02633750D01*
X04583048D01*
X04587213Y02637915D02*
X04589296Y02639998D01*
X04593461D01*
X04595544Y02637915D01*
Y02629585D01*
X04593461Y02627502D01*
X04589296D01*
X04587213Y02629585D01*
Y02637915D01*
X04551808Y02645915D02*
X04553891Y02647998D01*
X04558056D01*
X04560139Y02645915D01*
Y02637585D01*
X04558056Y02635502D01*
X04553891D01*
X04551808Y02637585D01*
Y02645915D01*
X04564304Y02635502D02*
Y02637585D01*
X04566387D01*
Y02635502D01*
X04564304D01*
X04580965D02*
Y02647998D01*
X04574717Y02641750D01*
X04583048D01*
X04587213Y02645915D02*
X04589296Y02647998D01*
X04593461D01*
X04595544Y02645915D01*
Y02637585D01*
X04593461Y02635502D01*
X04589296D01*
X04587213Y02637585D01*
Y02645915D01*
X04596644Y02613915D02*
X04598727Y02615998D01*
X04602892D01*
X04604975Y02613915D01*
Y02605585D01*
X04602892Y02603502D01*
X04598727D01*
X04596644Y02605585D01*
Y02613915D01*
X04609140Y02603502D02*
Y02605585D01*
X04611223D01*
Y02603502D01*
X04609140D01*
X04625801D02*
Y02615998D01*
X04619554Y02609750D01*
X04627884D01*
X04632049Y02613915D02*
X04634132Y02615998D01*
X04638297D01*
X04640380Y02613915D01*
Y02605585D01*
X04638297Y02603502D01*
X04634132D01*
X04632049Y02605585D01*
Y02613915D01*
X04596644Y02621915D02*
X04598727Y02623998D01*
X04602892D01*
X04604975Y02621915D01*
Y02613585D01*
X04602892Y02611502D01*
X04598727D01*
X04596644Y02613585D01*
Y02621915D01*
X04609140Y02611502D02*
Y02613585D01*
X04611223D01*
Y02611502D01*
X04609140D01*
X04625801D02*
Y02623998D01*
X04619554Y02617750D01*
X04627884D01*
X04632050Y02621915D02*
X04634132Y02623998D01*
X04638297D01*
X04640380Y02621915D01*
Y02613585D01*
X04638297Y02611502D01*
X04634132D01*
X04632050Y02613585D01*
Y02621915D01*
X04596644Y02629915D02*
X04598727Y02631998D01*
X04602892D01*
X04604975Y02629915D01*
Y02621585D01*
X04602892Y02619502D01*
X04598727D01*
X04596644Y02621585D01*
Y02629915D01*
X04609140Y02619502D02*
Y02621585D01*
X04611223D01*
Y02619502D01*
X04609140D01*
X04625801D02*
Y02631998D01*
X04619554Y02625750D01*
X04627884D01*
X04632050Y02629915D02*
X04634132Y02631998D01*
X04638297D01*
X04640380Y02629915D01*
Y02621585D01*
X04638297Y02619502D01*
X04634132D01*
X04632050Y02621585D01*
Y02629915D01*
X04596644Y02637915D02*
X04598727Y02639998D01*
X04602892D01*
X04604975Y02637915D01*
Y02629585D01*
X04602892Y02627502D01*
X04598727D01*
X04596644Y02629585D01*
Y02637915D01*
X04609140Y02627502D02*
Y02629585D01*
X04611223D01*
Y02627502D01*
X04609140D01*
X04625801D02*
Y02639998D01*
X04619554Y02633750D01*
X04627884D01*
X04632050Y02637915D02*
X04634132Y02639998D01*
X04638297D01*
X04640380Y02637915D01*
Y02629585D01*
X04638297Y02627502D01*
X04634132D01*
X04632050Y02629585D01*
Y02637915D01*
X04596644Y02645915D02*
X04598727Y02647998D01*
X04602892D01*
X04604975Y02645915D01*
Y02637585D01*
X04602892Y02635502D01*
X04598727D01*
X04596644Y02637585D01*
Y02645915D01*
X04609140Y02635502D02*
Y02637585D01*
X04611223D01*
Y02635502D01*
X04609140D01*
X04625801D02*
Y02647998D01*
X04619554Y02641750D01*
X04627884D01*
X04632050Y02645915D02*
X04634132Y02647998D01*
X04638297D01*
X04640380Y02645915D01*
Y02637585D01*
X04638297Y02635502D01*
X04634132D01*
X04632050Y02637585D01*
Y02645915D01*
X04551754Y02315715D02*
X04553837Y02317798D01*
X04558002D01*
X04560085Y02315715D01*
Y02307385D01*
X04558002Y02305302D01*
X04553837D01*
X04551754Y02307385D01*
Y02315715D01*
X04564250Y02305302D02*
Y02307385D01*
X04566333D01*
Y02305302D01*
X04564250D01*
X04580911D02*
Y02317798D01*
X04574663Y02311550D01*
X04582994D01*
X04587159Y02315715D02*
X04589242Y02317798D01*
X04593407D01*
X04595490Y02315715D01*
Y02307385D01*
X04593407Y02305302D01*
X04589242D01*
X04587159Y02307385D01*
Y02315715D01*
X04551754Y02323715D02*
X04553837Y02325798D01*
X04558002D01*
X04560085Y02323715D01*
Y02315385D01*
X04558002Y02313302D01*
X04553837D01*
X04551754Y02315385D01*
Y02323715D01*
X04564250Y02313302D02*
Y02315385D01*
X04566333D01*
Y02313302D01*
X04564250D01*
X04580911D02*
Y02325798D01*
X04574663Y02319550D01*
X04582994D01*
X04587159Y02323715D02*
X04589242Y02325798D01*
X04593407D01*
X04595490Y02323715D01*
Y02315385D01*
X04593407Y02313302D01*
X04589242D01*
X04587159Y02315385D01*
Y02323715D01*
X04551754Y02331715D02*
X04553837Y02333798D01*
X04558002D01*
X04560085Y02331715D01*
Y02323385D01*
X04558002Y02321302D01*
X04553837D01*
X04551754Y02323385D01*
Y02331715D01*
X04564250Y02321302D02*
Y02323385D01*
X04566333D01*
Y02321302D01*
X04564250D01*
X04580911D02*
Y02333798D01*
X04574663Y02327550D01*
X04582994D01*
X04587159Y02331715D02*
X04589242Y02333798D01*
X04593407D01*
X04595490Y02331715D01*
Y02323385D01*
X04593407Y02321302D01*
X04589242D01*
X04587159Y02323385D01*
Y02331715D01*
X04551754Y02339715D02*
X04553837Y02341798D01*
X04558002D01*
X04560085Y02339715D01*
Y02331385D01*
X04558002Y02329302D01*
X04553837D01*
X04551754Y02331385D01*
Y02339715D01*
X04564250Y02329302D02*
Y02331385D01*
X04566333D01*
Y02329302D01*
X04564250D01*
X04580911D02*
Y02341798D01*
X04574663Y02335550D01*
X04582994D01*
X04587159Y02339715D02*
X04589242Y02341798D01*
X04593407D01*
X04595490Y02339715D01*
Y02331385D01*
X04593407Y02329302D01*
X04589242D01*
X04587159Y02331385D01*
Y02339715D01*
X04551754Y02347715D02*
X04553837Y02349798D01*
X04558002D01*
X04560085Y02347715D01*
Y02339385D01*
X04558002Y02337302D01*
X04553837D01*
X04551754Y02339385D01*
Y02347715D01*
X04564250Y02337302D02*
Y02339385D01*
X04566333D01*
Y02337302D01*
X04564250D01*
X04580911D02*
Y02349798D01*
X04574663Y02343550D01*
X04582994D01*
X04587159Y02347715D02*
X04589242Y02349798D01*
X04593407D01*
X04595490Y02347715D01*
Y02339385D01*
X04593407Y02337302D01*
X04589242D01*
X04587159Y02339385D01*
Y02347715D01*
X04596736Y02315715D02*
X04598818Y02317798D01*
X04602984D01*
X04605066Y02315715D01*
Y02307385D01*
X04602984Y02305302D01*
X04598818D01*
X04596736Y02307385D01*
Y02315715D01*
X04609232Y02305302D02*
Y02307385D01*
X04611314D01*
Y02305302D01*
X04609232D01*
X04625893D02*
Y02317798D01*
X04619645Y02311550D01*
X04627975D01*
X04632141Y02315715D02*
X04634224Y02317798D01*
X04638389D01*
X04640471Y02315715D01*
Y02307385D01*
X04638389Y02305302D01*
X04634224D01*
X04632141Y02307385D01*
Y02315715D01*
X04596736Y02323715D02*
X04598818Y02325798D01*
X04602984D01*
X04605066Y02323715D01*
Y02315385D01*
X04602984Y02313302D01*
X04598818D01*
X04596736Y02315385D01*
Y02323715D01*
X04609232Y02313302D02*
Y02315385D01*
X04611314D01*
Y02313302D01*
X04609232D01*
X04625893D02*
Y02325798D01*
X04619645Y02319550D01*
X04627975D01*
X04632141Y02323715D02*
X04634224Y02325798D01*
X04638389D01*
X04640471Y02323715D01*
Y02315385D01*
X04638389Y02313302D01*
X04634224D01*
X04632141Y02315385D01*
Y02323715D01*
X04596736Y02331715D02*
X04598818Y02333798D01*
X04602984D01*
X04605066Y02331715D01*
Y02323385D01*
X04602984Y02321302D01*
X04598818D01*
X04596736Y02323385D01*
Y02331715D01*
X04609232Y02321302D02*
Y02323385D01*
X04611314D01*
Y02321302D01*
X04609232D01*
X04625893D02*
Y02333798D01*
X04619645Y02327550D01*
X04627975D01*
X04632141Y02331715D02*
X04634224Y02333798D01*
X04638389D01*
X04640471Y02331715D01*
Y02323385D01*
X04638389Y02321302D01*
X04634224D01*
X04632141Y02323385D01*
Y02331715D01*
X04596736Y02339715D02*
X04598818Y02341798D01*
X04602984D01*
X04605066Y02339715D01*
Y02331385D01*
X04602984Y02329302D01*
X04598818D01*
X04596736Y02331385D01*
Y02339715D01*
X04609232Y02329302D02*
Y02331385D01*
X04611314D01*
Y02329302D01*
X04609232D01*
X04625893D02*
Y02341798D01*
X04619645Y02335550D01*
X04627975D01*
X04632141Y02339715D02*
X04634224Y02341798D01*
X04638389D01*
X04640471Y02339715D01*
Y02331385D01*
X04638389Y02329302D01*
X04634224D01*
X04632141Y02331385D01*
Y02339715D01*
X04596736Y02347715D02*
X04598818Y02349798D01*
X04602984D01*
X04605066Y02347715D01*
Y02339385D01*
X04602984Y02337302D01*
X04598818D01*
X04596736Y02339385D01*
Y02347715D01*
X04609232Y02337302D02*
Y02339385D01*
X04611314D01*
Y02337302D01*
X04609232D01*
X04625893D02*
Y02349798D01*
X04619645Y02343550D01*
X04627975D01*
X04632141Y02347715D02*
X04634224Y02349798D01*
X04638389D01*
X04640471Y02347715D01*
Y02339385D01*
X04638389Y02337302D01*
X04634224D01*
X04632141Y02339385D01*
Y02347715D01*
X04551765Y02012315D02*
X04553848Y02014398D01*
X04558013D01*
X04560096Y02012315D01*
Y02003985D01*
X04558013Y02001902D01*
X04553848D01*
X04551765Y02003985D01*
Y02012315D01*
X04564261Y02001902D02*
Y02003985D01*
X04566344D01*
Y02001902D01*
X04564261D01*
X04580923D02*
Y02014398D01*
X04574675Y02008150D01*
X04583005D01*
X04587171Y02012315D02*
X04589253Y02014398D01*
X04593419D01*
X04595501Y02012315D01*
Y02003985D01*
X04593419Y02001902D01*
X04589253D01*
X04587171Y02003985D01*
Y02012315D01*
X04551765Y02020315D02*
X04553848Y02022398D01*
X04558014D01*
X04560096Y02020315D01*
Y02011985D01*
X04558014Y02009902D01*
X04553848D01*
X04551765Y02011985D01*
Y02020315D01*
X04564261Y02009902D02*
Y02011985D01*
X04566344D01*
Y02009902D01*
X04564261D01*
X04580923D02*
Y02022398D01*
X04574675Y02016150D01*
X04583005D01*
X04587171Y02020315D02*
X04589254Y02022398D01*
X04593419D01*
X04595501Y02020315D01*
Y02011985D01*
X04593419Y02009902D01*
X04589254D01*
X04587171Y02011985D01*
Y02020315D01*
X04551765Y02028315D02*
X04553848Y02030398D01*
X04558014D01*
X04560096Y02028315D01*
Y02019985D01*
X04558014Y02017902D01*
X04553848D01*
X04551765Y02019985D01*
Y02028315D01*
X04564261Y02017902D02*
Y02019985D01*
X04566344D01*
Y02017902D01*
X04564261D01*
X04580923D02*
Y02030398D01*
X04574675Y02024150D01*
X04583005D01*
X04587171Y02028315D02*
X04589254Y02030398D01*
X04593419D01*
X04595501Y02028315D01*
Y02019985D01*
X04593419Y02017902D01*
X04589254D01*
X04587171Y02019985D01*
Y02028315D01*
X04551765Y02036315D02*
X04553848Y02038398D01*
X04558014D01*
X04560096Y02036315D01*
Y02027985D01*
X04558014Y02025902D01*
X04553848D01*
X04551765Y02027985D01*
Y02036315D01*
X04564261Y02025902D02*
Y02027985D01*
X04566344D01*
Y02025902D01*
X04564261D01*
X04580923D02*
Y02038398D01*
X04574675Y02032150D01*
X04583005D01*
X04587171Y02036315D02*
X04589254Y02038398D01*
X04593419D01*
X04595501Y02036315D01*
Y02027985D01*
X04593419Y02025902D01*
X04589254D01*
X04587171Y02027985D01*
Y02036315D01*
X04551765Y02044315D02*
X04553848Y02046398D01*
X04558014D01*
X04560096Y02044315D01*
Y02035985D01*
X04558014Y02033902D01*
X04553848D01*
X04551765Y02035985D01*
Y02044315D01*
X04564261Y02033902D02*
Y02035985D01*
X04566344D01*
Y02033902D01*
X04564261D01*
X04580923D02*
Y02046398D01*
X04574675Y02040150D01*
X04583005D01*
X04587171Y02044315D02*
X04589254Y02046398D01*
X04593419D01*
X04595501Y02044315D01*
Y02035985D01*
X04593419Y02033902D01*
X04589254D01*
X04587171Y02035985D01*
Y02044315D01*
X04596639Y02012315D02*
X04598722Y02014398D01*
X04602887D01*
X04604969Y02012315D01*
Y02003985D01*
X04602887Y02001902D01*
X04598722D01*
X04596639Y02003985D01*
Y02012315D01*
X04609135Y02001902D02*
Y02003985D01*
X04611218D01*
Y02001902D01*
X04609135D01*
X04625796D02*
Y02014398D01*
X04619548Y02008150D01*
X04627879D01*
X04632044Y02012315D02*
X04634127Y02014398D01*
X04638292D01*
X04640375Y02012315D01*
Y02003985D01*
X04638292Y02001902D01*
X04634127D01*
X04632044Y02003985D01*
Y02012315D01*
X04596639Y02020315D02*
X04598722Y02022398D01*
X04602887D01*
X04604969Y02020315D01*
Y02011985D01*
X04602887Y02009902D01*
X04598722D01*
X04596639Y02011985D01*
Y02020315D01*
X04609135Y02009902D02*
Y02011985D01*
X04611218D01*
Y02009902D01*
X04609135D01*
X04625796D02*
Y02022398D01*
X04619548Y02016150D01*
X04627879D01*
X04632044Y02020315D02*
X04634127Y02022398D01*
X04638292D01*
X04640375Y02020315D01*
Y02011985D01*
X04638292Y02009902D01*
X04634127D01*
X04632044Y02011985D01*
Y02020315D01*
X04596639Y02028315D02*
X04598722Y02030398D01*
X04602887D01*
X04604969Y02028315D01*
Y02019985D01*
X04602887Y02017902D01*
X04598722D01*
X04596639Y02019985D01*
Y02028315D01*
X04609135Y02017902D02*
Y02019985D01*
X04611218D01*
Y02017902D01*
X04609135D01*
X04625796D02*
Y02030398D01*
X04619548Y02024150D01*
X04627879D01*
X04632044Y02028315D02*
X04634127Y02030398D01*
X04638292D01*
X04640375Y02028315D01*
Y02019985D01*
X04638292Y02017902D01*
X04634127D01*
X04632044Y02019985D01*
Y02028315D01*
X04596639Y02036315D02*
X04598722Y02038398D01*
X04602887D01*
X04604969Y02036315D01*
Y02027985D01*
X04602887Y02025902D01*
X04598722D01*
X04596639Y02027985D01*
Y02036315D01*
X04609135Y02025902D02*
Y02027985D01*
X04611218D01*
Y02025902D01*
X04609135D01*
X04625796D02*
Y02038398D01*
X04619548Y02032150D01*
X04627879D01*
X04632044Y02036315D02*
X04634127Y02038398D01*
X04638292D01*
X04640375Y02036315D01*
Y02027985D01*
X04638292Y02025902D01*
X04634127D01*
X04632044Y02027985D01*
Y02036315D01*
X04596639Y02044315D02*
X04598722Y02046398D01*
X04602887D01*
X04604969Y02044315D01*
Y02035985D01*
X04602887Y02033902D01*
X04598722D01*
X04596639Y02035985D01*
Y02044315D01*
X04609135Y02033902D02*
Y02035985D01*
X04611218D01*
Y02033902D01*
X04609135D01*
X04625796D02*
Y02046398D01*
X04619548Y02040150D01*
X04627879D01*
X04632044Y02044315D02*
X04634127Y02046398D01*
X04638292D01*
X04640375Y02044315D01*
Y02035985D01*
X04638292Y02033902D01*
X04634127D01*
X04632044Y02035985D01*
Y02044315D01*
X04551797Y01709515D02*
X04553880Y01711598D01*
X04558045D01*
X04560128Y01709515D01*
Y01701185D01*
X04558045Y01699102D01*
X04553880D01*
X04551797Y01701185D01*
Y01709515D01*
X04564294Y01699102D02*
Y01701185D01*
X04566376D01*
Y01699102D01*
X04564294D01*
X04580955D02*
Y01711598D01*
X04574707Y01705350D01*
X04583037D01*
X04587203Y01709515D02*
X04589285Y01711598D01*
X04593451D01*
X04595533Y01709515D01*
Y01701185D01*
X04593451Y01699102D01*
X04589285D01*
X04587203Y01701185D01*
Y01709515D01*
X04551797Y01717515D02*
X04553880Y01719598D01*
X04558046D01*
X04560128Y01717515D01*
Y01709185D01*
X04558046Y01707102D01*
X04553880D01*
X04551797Y01709185D01*
Y01717515D01*
X04564294Y01707102D02*
Y01709185D01*
X04566376D01*
Y01707102D01*
X04564294D01*
X04580955D02*
Y01719598D01*
X04574707Y01713350D01*
X04583037D01*
X04587203Y01717515D02*
X04589286Y01719598D01*
X04593451D01*
X04595533Y01717515D01*
Y01709185D01*
X04593451Y01707102D01*
X04589286D01*
X04587203Y01709185D01*
Y01717515D01*
X04551797Y01725515D02*
X04553880Y01727598D01*
X04558046D01*
X04560128Y01725515D01*
Y01717185D01*
X04558046Y01715102D01*
X04553880D01*
X04551797Y01717185D01*
Y01725515D01*
X04564294Y01715102D02*
Y01717185D01*
X04566376D01*
Y01715102D01*
X04564294D01*
X04580955D02*
Y01727598D01*
X04574707Y01721350D01*
X04583037D01*
X04587203Y01725515D02*
X04589286Y01727598D01*
X04593451D01*
X04595533Y01725515D01*
Y01717185D01*
X04593451Y01715102D01*
X04589286D01*
X04587203Y01717185D01*
Y01725515D01*
X04551797Y01733515D02*
X04553880Y01735598D01*
X04558046D01*
X04560128Y01733515D01*
Y01725185D01*
X04558046Y01723102D01*
X04553880D01*
X04551797Y01725185D01*
Y01733515D01*
X04564294Y01723102D02*
Y01725185D01*
X04566376D01*
Y01723102D01*
X04564294D01*
X04580955D02*
Y01735598D01*
X04574707Y01729350D01*
X04583037D01*
X04587203Y01733515D02*
X04589286Y01735598D01*
X04593451D01*
X04595533Y01733515D01*
Y01725185D01*
X04593451Y01723102D01*
X04589286D01*
X04587203Y01725185D01*
Y01733515D01*
X04551797Y01741515D02*
X04553880Y01743598D01*
X04558046D01*
X04560128Y01741515D01*
Y01733185D01*
X04558046Y01731102D01*
X04553880D01*
X04551797Y01733185D01*
Y01741515D01*
X04564294Y01731102D02*
Y01733185D01*
X04566376D01*
Y01731102D01*
X04564294D01*
X04580955D02*
Y01743598D01*
X04574707Y01737350D01*
X04583037D01*
X04587203Y01741515D02*
X04589286Y01743598D01*
X04593451D01*
X04595533Y01741515D01*
Y01733185D01*
X04593451Y01731102D01*
X04589286D01*
X04587203Y01733185D01*
Y01741515D01*
X04596678Y01709515D02*
X04598761Y01711598D01*
X04602926D01*
X04605009Y01709515D01*
Y01701185D01*
X04602926Y01699102D01*
X04598761D01*
X04596678Y01701185D01*
Y01709515D01*
X04609174Y01699102D02*
Y01701185D01*
X04611257D01*
Y01699102D01*
X04609174D01*
X04625835D02*
Y01711598D01*
X04619587Y01705350D01*
X04627918D01*
X04632083Y01709515D02*
X04634166Y01711598D01*
X04638331D01*
X04640414Y01709515D01*
Y01701185D01*
X04638331Y01699102D01*
X04634166D01*
X04632083Y01701185D01*
Y01709515D01*
X04596678Y01717515D02*
X04598761Y01719598D01*
X04602926D01*
X04605009Y01717515D01*
Y01709185D01*
X04602926Y01707102D01*
X04598761D01*
X04596678Y01709185D01*
Y01717515D01*
X04609174Y01707102D02*
Y01709185D01*
X04611257D01*
Y01707102D01*
X04609174D01*
X04625835D02*
Y01719598D01*
X04619587Y01713350D01*
X04627918D01*
X04632083Y01717515D02*
X04634166Y01719598D01*
X04638331D01*
X04640414Y01717515D01*
Y01709185D01*
X04638331Y01707102D01*
X04634166D01*
X04632083Y01709185D01*
Y01717515D01*
X04596678Y01725515D02*
X04598761Y01727598D01*
X04602926D01*
X04605009Y01725515D01*
Y01717185D01*
X04602926Y01715102D01*
X04598761D01*
X04596678Y01717185D01*
Y01725515D01*
X04609174Y01715102D02*
Y01717185D01*
X04611257D01*
Y01715102D01*
X04609174D01*
X04625835D02*
Y01727598D01*
X04619587Y01721350D01*
X04627918D01*
X04632083Y01725515D02*
X04634166Y01727598D01*
X04638331D01*
X04640414Y01725515D01*
Y01717185D01*
X04638331Y01715102D01*
X04634166D01*
X04632083Y01717185D01*
Y01725515D01*
X04596678Y01733515D02*
X04598761Y01735598D01*
X04602926D01*
X04605009Y01733515D01*
Y01725185D01*
X04602926Y01723102D01*
X04598761D01*
X04596678Y01725185D01*
Y01733515D01*
X04609174Y01723102D02*
Y01725185D01*
X04611257D01*
Y01723102D01*
X04609174D01*
X04625835D02*
Y01735598D01*
X04619587Y01729350D01*
X04627918D01*
X04632083Y01733515D02*
X04634166Y01735598D01*
X04638331D01*
X04640414Y01733515D01*
Y01725185D01*
X04638331Y01723102D01*
X04634166D01*
X04632083Y01725185D01*
Y01733515D01*
X04596678Y01741515D02*
X04598761Y01743598D01*
X04602926D01*
X04605009Y01741515D01*
Y01733185D01*
X04602926Y01731102D01*
X04598761D01*
X04596678Y01733185D01*
Y01741515D01*
X04609174Y01731102D02*
Y01733185D01*
X04611257D01*
Y01731102D01*
X04609174D01*
X04625835D02*
Y01743598D01*
X04619587Y01737350D01*
X04627918D01*
X04632083Y01741515D02*
X04634166Y01743598D01*
X04638331D01*
X04640414Y01741515D01*
Y01733185D01*
X04638331Y01731102D01*
X04634166D01*
X04632083Y01733185D01*
Y01741515D01*
X05215882Y02455315D02*
X05217964Y02457398D01*
X05222130D01*
X05224213Y02455315D01*
Y02446985D01*
X05222130Y02444902D01*
X05217964D01*
X05215882Y02446985D01*
Y02455315D01*
X05228378Y02444902D02*
Y02446985D01*
X05230461D01*
Y02444902D01*
X05228378D01*
X05245039D02*
Y02457398D01*
X05238792Y02451150D01*
X05247122D01*
X05251287Y02455315D02*
X05253370Y02457398D01*
X05257535D01*
X05259618Y02455315D01*
Y02446985D01*
X05257535Y02444902D01*
X05253370D01*
X05251287Y02446985D01*
Y02455315D01*
X05207882Y02455315D02*
X05209965Y02457398D01*
X05214130D01*
X05216213Y02455315D01*
Y02446985D01*
X05214130Y02444902D01*
X05209965D01*
X05207882Y02446985D01*
Y02455315D01*
X05220378Y02444902D02*
Y02446985D01*
X05222461D01*
Y02444902D01*
X05220378D01*
X05237039D02*
Y02457398D01*
X05230791Y02451150D01*
X05239122D01*
X05243287Y02455315D02*
X05245370Y02457398D01*
X05249535D01*
X05251618Y02455315D01*
Y02446985D01*
X05249535Y02444902D01*
X05245370D01*
X05243287Y02446985D01*
Y02455315D01*
X05199882D02*
X05201965Y02457398D01*
X05206130D01*
X05208213Y02455315D01*
Y02446985D01*
X05206130Y02444902D01*
X05201965D01*
X05199882Y02446985D01*
Y02455315D01*
X05212378Y02444902D02*
Y02446985D01*
X05214460D01*
Y02444902D01*
X05212378D01*
X05229039D02*
Y02457398D01*
X05222791Y02451150D01*
X05231122D01*
X05235287Y02455315D02*
X05237370Y02457398D01*
X05241535D01*
X05243618Y02455315D01*
Y02446985D01*
X05241535Y02444902D01*
X05237370D01*
X05235287Y02446985D01*
Y02455315D01*
X05191882D02*
X05193965Y02457398D01*
X05198130D01*
X05200212Y02455315D01*
Y02446985D01*
X05198130Y02444902D01*
X05193965D01*
X05191882Y02446985D01*
Y02455315D01*
X05204378Y02444902D02*
Y02446985D01*
X05206461D01*
Y02444902D01*
X05204378D01*
X05221039D02*
Y02457398D01*
X05214791Y02451150D01*
X05223122D01*
X05227288Y02455315D02*
X05229370Y02457398D01*
X05233535D01*
X05235618Y02455315D01*
Y02446985D01*
X05233535Y02444902D01*
X05229370D01*
X05227288Y02446985D01*
Y02455315D01*
X05183882D02*
X05185965Y02457398D01*
X05190130D01*
X05192213Y02455315D01*
Y02446985D01*
X05190130Y02444902D01*
X05185965D01*
X05183882Y02446985D01*
Y02455315D01*
X05196378Y02444902D02*
Y02446985D01*
X05198461D01*
Y02444902D01*
X05196378D01*
X05213040D02*
Y02457398D01*
X05206791Y02451150D01*
X05215122D01*
X05219287Y02455315D02*
X05221370Y02457398D01*
X05225535D01*
X05227618Y02455315D01*
Y02446985D01*
X05225535Y02444902D01*
X05221370D01*
X05219287Y02446985D01*
Y02455315D01*
X04849282Y02455315D02*
X04851365Y02457398D01*
X04855530D01*
X04857613Y02455315D01*
Y02446985D01*
X04855530Y02444902D01*
X04851365D01*
X04849282Y02446985D01*
Y02455315D01*
X04861778Y02444902D02*
Y02446985D01*
X04863861D01*
Y02444902D01*
X04861778D01*
X04878439D02*
Y02457398D01*
X04872191Y02451150D01*
X04880522D01*
X04884687Y02455315D02*
X04886770Y02457398D01*
X04890935D01*
X04893018Y02455315D01*
Y02446985D01*
X04890935Y02444902D01*
X04886770D01*
X04884687Y02446985D01*
Y02455315D01*
X04841282Y02455315D02*
X04843365Y02457398D01*
X04847530D01*
X04849613Y02455315D01*
Y02446985D01*
X04847530Y02444902D01*
X04843365D01*
X04841282Y02446985D01*
Y02455315D01*
X04853778Y02444902D02*
Y02446985D01*
X04855861D01*
Y02444902D01*
X04853778D01*
X04870439D02*
Y02457398D01*
X04864191Y02451150D01*
X04872522D01*
X04876687Y02455315D02*
X04878770Y02457398D01*
X04882935D01*
X04885018Y02455315D01*
Y02446985D01*
X04882935Y02444902D01*
X04878770D01*
X04876687Y02446985D01*
Y02455315D01*
X04833282D02*
X04835365Y02457398D01*
X04839530D01*
X04841613Y02455315D01*
Y02446985D01*
X04839530Y02444902D01*
X04835365D01*
X04833282Y02446985D01*
Y02455315D01*
X04845778Y02444902D02*
Y02446985D01*
X04847861D01*
Y02444902D01*
X04845778D01*
X04862439D02*
Y02457398D01*
X04856191Y02451150D01*
X04864522D01*
X04868687Y02455315D02*
X04870770Y02457398D01*
X04874935D01*
X04877018Y02455315D01*
Y02446985D01*
X04874935Y02444902D01*
X04870770D01*
X04868687Y02446985D01*
Y02455315D01*
X04825282D02*
X04827365Y02457398D01*
X04831530D01*
X04833613Y02455315D01*
Y02446985D01*
X04831530Y02444902D01*
X04827365D01*
X04825282Y02446985D01*
Y02455315D01*
X04837778Y02444902D02*
Y02446985D01*
X04839861D01*
Y02444902D01*
X04837778D01*
X04854439D02*
Y02457398D01*
X04848191Y02451150D01*
X04856522D01*
X04860687Y02455315D02*
X04862770Y02457398D01*
X04866935D01*
X04869018Y02455315D01*
Y02446985D01*
X04866935Y02444902D01*
X04862770D01*
X04860687Y02446985D01*
Y02455315D01*
X04817282D02*
X04819365Y02457398D01*
X04823530D01*
X04825613Y02455315D01*
Y02446985D01*
X04823530Y02444902D01*
X04819365D01*
X04817282Y02446985D01*
Y02455315D01*
X04829778Y02444902D02*
Y02446985D01*
X04831861D01*
Y02444902D01*
X04829778D01*
X04846439D02*
Y02457398D01*
X04840191Y02451150D01*
X04848522D01*
X04852687Y02455315D02*
X04854770Y02457398D01*
X04858935D01*
X04861018Y02455315D01*
Y02446985D01*
X04858935Y02444902D01*
X04854770D01*
X04852687Y02446985D01*
Y02455315D01*
X05215882Y02500482D02*
X05217964Y02502564D01*
X05222130D01*
X05224213Y02500482D01*
Y02492151D01*
X05222130Y02490068D01*
X05217964D01*
X05215882Y02492151D01*
Y02500482D01*
X05228378Y02490068D02*
Y02492151D01*
X05230461D01*
Y02490068D01*
X05228378D01*
X05245039D02*
Y02502564D01*
X05238792Y02496316D01*
X05247122D01*
X05251287Y02500482D02*
X05253370Y02502564D01*
X05257535D01*
X05259618Y02500482D01*
Y02492151D01*
X05257535Y02490068D01*
X05253370D01*
X05251287Y02492151D01*
Y02500482D01*
X05207882Y02500482D02*
X05209965Y02502564D01*
X05214130D01*
X05216213Y02500482D01*
Y02492151D01*
X05214130Y02490068D01*
X05209965D01*
X05207882Y02492151D01*
Y02500482D01*
X05220378Y02490068D02*
Y02492151D01*
X05222461D01*
Y02490068D01*
X05220378D01*
X05237039D02*
Y02502564D01*
X05230791Y02496316D01*
X05239122D01*
X05243287Y02500482D02*
X05245370Y02502564D01*
X05249535D01*
X05251618Y02500482D01*
Y02492151D01*
X05249535Y02490068D01*
X05245370D01*
X05243287Y02492151D01*
Y02500482D01*
X05199882D02*
X05201965Y02502564D01*
X05206130D01*
X05208213Y02500482D01*
Y02492151D01*
X05206130Y02490068D01*
X05201965D01*
X05199882Y02492151D01*
Y02500482D01*
X05212378Y02490068D02*
Y02492151D01*
X05214460D01*
Y02490068D01*
X05212378D01*
X05229039D02*
Y02502564D01*
X05222791Y02496316D01*
X05231122D01*
X05235287Y02500482D02*
X05237370Y02502564D01*
X05241535D01*
X05243618Y02500482D01*
Y02492151D01*
X05241535Y02490068D01*
X05237370D01*
X05235287Y02492151D01*
Y02500482D01*
X05191882D02*
X05193965Y02502564D01*
X05198130D01*
X05200212Y02500482D01*
Y02492151D01*
X05198130Y02490068D01*
X05193965D01*
X05191882Y02492151D01*
Y02500482D01*
X05204378Y02490068D02*
Y02492151D01*
X05206461D01*
Y02490068D01*
X05204378D01*
X05221039D02*
Y02502564D01*
X05214791Y02496316D01*
X05223122D01*
X05227288Y02500482D02*
X05229370Y02502564D01*
X05233535D01*
X05235618Y02500482D01*
Y02492151D01*
X05233535Y02490068D01*
X05229370D01*
X05227288Y02492151D01*
Y02500482D01*
X05183882D02*
X05185965Y02502564D01*
X05190130D01*
X05192213Y02500482D01*
Y02492151D01*
X05190130Y02490068D01*
X05185965D01*
X05183882Y02492151D01*
Y02500482D01*
X05196378Y02490068D02*
Y02492151D01*
X05198461D01*
Y02490068D01*
X05196378D01*
X05213040D02*
Y02502564D01*
X05206791Y02496316D01*
X05215122D01*
X05219287Y02500482D02*
X05221370Y02502564D01*
X05225535D01*
X05227618Y02500482D01*
Y02492151D01*
X05225535Y02490068D01*
X05221370D01*
X05219287Y02492151D01*
Y02500482D01*
X04849282Y02500430D02*
X04851365Y02502513D01*
X04855530D01*
X04857613Y02500430D01*
Y02492099D01*
X04855530Y02490017D01*
X04851365D01*
X04849282Y02492099D01*
Y02500430D01*
X04861778Y02490017D02*
Y02492099D01*
X04863861D01*
Y02490017D01*
X04861778D01*
X04878439D02*
Y02502513D01*
X04872191Y02496265D01*
X04880522D01*
X04884687Y02500430D02*
X04886770Y02502513D01*
X04890935D01*
X04893018Y02500430D01*
Y02492099D01*
X04890935Y02490017D01*
X04886770D01*
X04884687Y02492099D01*
Y02500430D01*
X04841282Y02500430D02*
X04843365Y02502513D01*
X04847530D01*
X04849613Y02500430D01*
Y02492099D01*
X04847530Y02490017D01*
X04843365D01*
X04841282Y02492099D01*
Y02500430D01*
X04853778Y02490017D02*
Y02492099D01*
X04855861D01*
Y02490017D01*
X04853778D01*
X04870439D02*
Y02502513D01*
X04864191Y02496265D01*
X04872522D01*
X04876687Y02500430D02*
X04878770Y02502513D01*
X04882935D01*
X04885018Y02500430D01*
Y02492099D01*
X04882935Y02490017D01*
X04878770D01*
X04876687Y02492099D01*
Y02500430D01*
X04833282D02*
X04835365Y02502513D01*
X04839530D01*
X04841613Y02500430D01*
Y02492099D01*
X04839530Y02490017D01*
X04835365D01*
X04833282Y02492099D01*
Y02500430D01*
X04845778Y02490017D02*
Y02492099D01*
X04847861D01*
Y02490017D01*
X04845778D01*
X04862439D02*
Y02502513D01*
X04856191Y02496265D01*
X04864522D01*
X04868687Y02500430D02*
X04870770Y02502513D01*
X04874935D01*
X04877018Y02500430D01*
Y02492099D01*
X04874935Y02490017D01*
X04870770D01*
X04868687Y02492099D01*
Y02500430D01*
X04825282D02*
X04827365Y02502513D01*
X04831530D01*
X04833613Y02500430D01*
Y02492099D01*
X04831530Y02490017D01*
X04827365D01*
X04825282Y02492099D01*
Y02500430D01*
X04837778Y02490017D02*
Y02492099D01*
X04839861D01*
Y02490017D01*
X04837778D01*
X04854439D02*
Y02502513D01*
X04848191Y02496265D01*
X04856522D01*
X04860687Y02500430D02*
X04862770Y02502513D01*
X04866935D01*
X04869018Y02500430D01*
Y02492099D01*
X04866935Y02490017D01*
X04862770D01*
X04860687Y02492099D01*
Y02500430D01*
X04817282D02*
X04819365Y02502513D01*
X04823530D01*
X04825613Y02500430D01*
Y02492099D01*
X04823530Y02490017D01*
X04819365D01*
X04817282Y02492099D01*
Y02500430D01*
X04829778Y02490017D02*
Y02492099D01*
X04831861D01*
Y02490017D01*
X04829778D01*
X04846439D02*
Y02502513D01*
X04840191Y02496265D01*
X04848522D01*
X04852687Y02500430D02*
X04854770Y02502513D01*
X04858935D01*
X04861018Y02500430D01*
Y02492099D01*
X04858935Y02490017D01*
X04854770D01*
X04852687Y02492099D01*
Y02500430D01*
X04330882Y02455315D02*
X04332965Y02457398D01*
X04337130D01*
X04339213Y02455315D01*
Y02446985D01*
X04337130Y02444902D01*
X04332965D01*
X04330882Y02446985D01*
Y02455315D01*
X04343378Y02444902D02*
Y02446985D01*
X04345461D01*
Y02444902D01*
X04343378D01*
X04360039D02*
Y02457398D01*
X04353791Y02451150D01*
X04362122D01*
X04366287Y02455315D02*
X04368370Y02457398D01*
X04372535D01*
X04374618Y02455315D01*
Y02446985D01*
X04372535Y02444902D01*
X04368370D01*
X04366287Y02446985D01*
Y02455315D01*
X04322882Y02455315D02*
X04324965Y02457398D01*
X04329130D01*
X04331213Y02455315D01*
Y02446985D01*
X04329130Y02444902D01*
X04324965D01*
X04322882Y02446985D01*
Y02455315D01*
X04335378Y02444902D02*
Y02446985D01*
X04337461D01*
Y02444902D01*
X04335378D01*
X04352039D02*
Y02457398D01*
X04345791Y02451150D01*
X04354122D01*
X04358287Y02455315D02*
X04360370Y02457398D01*
X04364535D01*
X04366618Y02455315D01*
Y02446985D01*
X04364535Y02444902D01*
X04360370D01*
X04358287Y02446985D01*
Y02455315D01*
X04314882D02*
X04316965Y02457398D01*
X04321130D01*
X04323213Y02455315D01*
Y02446985D01*
X04321130Y02444902D01*
X04316965D01*
X04314882Y02446985D01*
Y02455315D01*
X04327378Y02444902D02*
Y02446985D01*
X04329461D01*
Y02444902D01*
X04327378D01*
X04344039D02*
Y02457398D01*
X04337791Y02451150D01*
X04346122D01*
X04350287Y02455315D02*
X04352370Y02457398D01*
X04356535D01*
X04358618Y02455315D01*
Y02446985D01*
X04356535Y02444902D01*
X04352370D01*
X04350287Y02446985D01*
Y02455315D01*
X04306882D02*
X04308965Y02457398D01*
X04313130D01*
X04315213Y02455315D01*
Y02446985D01*
X04313130Y02444902D01*
X04308965D01*
X04306882Y02446985D01*
Y02455315D01*
X04319378Y02444902D02*
Y02446985D01*
X04321461D01*
Y02444902D01*
X04319378D01*
X04336039D02*
Y02457398D01*
X04329791Y02451150D01*
X04338122D01*
X04342287Y02455315D02*
X04344370Y02457398D01*
X04348535D01*
X04350618Y02455315D01*
Y02446985D01*
X04348535Y02444902D01*
X04344370D01*
X04342287Y02446985D01*
Y02455315D01*
X04298882D02*
X04300965Y02457398D01*
X04305130D01*
X04307213Y02455315D01*
Y02446985D01*
X04305130Y02444902D01*
X04300965D01*
X04298882Y02446985D01*
Y02455315D01*
X04311378Y02444902D02*
Y02446985D01*
X04313461D01*
Y02444902D01*
X04311378D01*
X04328039D02*
Y02457398D01*
X04321791Y02451150D01*
X04330122D01*
X04334287Y02455315D02*
X04336370Y02457398D01*
X04340535D01*
X04342618Y02455315D01*
Y02446985D01*
X04340535Y02444902D01*
X04336370D01*
X04334287Y02446985D01*
Y02455315D01*
X03959882Y02455315D02*
X03961965Y02457398D01*
X03966130D01*
X03968213Y02455315D01*
Y02446985D01*
X03966130Y02444902D01*
X03961965D01*
X03959882Y02446985D01*
Y02455315D01*
X03972378Y02444902D02*
Y02446985D01*
X03974461D01*
Y02444902D01*
X03972378D01*
X03989039D02*
Y02457398D01*
X03982791Y02451150D01*
X03991122D01*
X03995287Y02455315D02*
X03997370Y02457398D01*
X04001535D01*
X04003618Y02455315D01*
Y02446985D01*
X04001535Y02444902D01*
X03997370D01*
X03995287Y02446985D01*
Y02455315D01*
X03951882Y02455315D02*
X03953965Y02457398D01*
X03958130D01*
X03960213Y02455315D01*
Y02446985D01*
X03958130Y02444902D01*
X03953965D01*
X03951882Y02446985D01*
Y02455315D01*
X03964378Y02444902D02*
Y02446985D01*
X03966461D01*
Y02444902D01*
X03964378D01*
X03981039D02*
Y02457398D01*
X03974791Y02451150D01*
X03983122D01*
X03987287Y02455315D02*
X03989370Y02457398D01*
X03993535D01*
X03995618Y02455315D01*
Y02446985D01*
X03993535Y02444902D01*
X03989370D01*
X03987287Y02446985D01*
Y02455315D01*
X03943882D02*
X03945965Y02457398D01*
X03950130D01*
X03952213Y02455315D01*
Y02446985D01*
X03950130Y02444902D01*
X03945965D01*
X03943882Y02446985D01*
Y02455315D01*
X03956378Y02444902D02*
Y02446985D01*
X03958461D01*
Y02444902D01*
X03956378D01*
X03973039D02*
Y02457398D01*
X03966791Y02451150D01*
X03975122D01*
X03979287Y02455315D02*
X03981370Y02457398D01*
X03985535D01*
X03987618Y02455315D01*
Y02446985D01*
X03985535Y02444902D01*
X03981370D01*
X03979287Y02446985D01*
Y02455315D01*
X03935882D02*
X03937965Y02457398D01*
X03942130D01*
X03944213Y02455315D01*
Y02446985D01*
X03942130Y02444902D01*
X03937965D01*
X03935882Y02446985D01*
Y02455315D01*
X03948378Y02444902D02*
Y02446985D01*
X03950461D01*
Y02444902D01*
X03948378D01*
X03965039D02*
Y02457398D01*
X03958791Y02451150D01*
X03967122D01*
X03971287Y02455315D02*
X03973370Y02457398D01*
X03977535D01*
X03979618Y02455315D01*
Y02446985D01*
X03977535Y02444902D01*
X03973370D01*
X03971287Y02446985D01*
Y02455315D01*
X03927882D02*
X03929965Y02457398D01*
X03934130D01*
X03936213Y02455315D01*
Y02446985D01*
X03934130Y02444902D01*
X03929965D01*
X03927882Y02446985D01*
Y02455315D01*
X03940378Y02444902D02*
Y02446985D01*
X03942461D01*
Y02444902D01*
X03940378D01*
X03957039D02*
Y02457398D01*
X03950791Y02451150D01*
X03959122D01*
X03963287Y02455315D02*
X03965370Y02457398D01*
X03969535D01*
X03971618Y02455315D01*
Y02446985D01*
X03969535Y02444902D01*
X03965370D01*
X03963287Y02446985D01*
Y02455315D01*
X03959882Y02500426D02*
X03961965Y02502509D01*
X03966130D01*
X03968213Y02500426D01*
Y02492095D01*
X03966130Y02490013D01*
X03961965D01*
X03959882Y02492095D01*
Y02500426D01*
X03972378Y02490013D02*
Y02492095D01*
X03974461D01*
Y02490013D01*
X03972378D01*
X03989039D02*
Y02502509D01*
X03982791Y02496261D01*
X03991122D01*
X03995287Y02500426D02*
X03997370Y02502509D01*
X04001535D01*
X04003618Y02500426D01*
Y02492095D01*
X04001535Y02490013D01*
X03997370D01*
X03995287Y02492095D01*
Y02500426D01*
X03951882Y02500426D02*
X03953965Y02502509D01*
X03958130D01*
X03960213Y02500426D01*
Y02492095D01*
X03958130Y02490013D01*
X03953965D01*
X03951882Y02492095D01*
Y02500426D01*
X03964378Y02490013D02*
Y02492095D01*
X03966461D01*
Y02490013D01*
X03964378D01*
X03981039D02*
Y02502509D01*
X03974791Y02496261D01*
X03983122D01*
X03987287Y02500426D02*
X03989370Y02502509D01*
X03993535D01*
X03995618Y02500426D01*
Y02492095D01*
X03993535Y02490013D01*
X03989370D01*
X03987287Y02492095D01*
Y02500426D01*
X03943882D02*
X03945965Y02502509D01*
X03950130D01*
X03952213Y02500426D01*
Y02492095D01*
X03950130Y02490013D01*
X03945965D01*
X03943882Y02492095D01*
Y02500426D01*
X03956378Y02490013D02*
Y02492095D01*
X03958461D01*
Y02490013D01*
X03956378D01*
X03973039D02*
Y02502509D01*
X03966791Y02496261D01*
X03975122D01*
X03979287Y02500426D02*
X03981370Y02502509D01*
X03985535D01*
X03987618Y02500426D01*
Y02492095D01*
X03985535Y02490013D01*
X03981370D01*
X03979287Y02492095D01*
Y02500426D01*
X03935882D02*
X03937965Y02502509D01*
X03942130D01*
X03944213Y02500426D01*
Y02492095D01*
X03942130Y02490013D01*
X03937965D01*
X03935882Y02492095D01*
Y02500426D01*
X03948378Y02490013D02*
Y02492095D01*
X03950461D01*
Y02490013D01*
X03948378D01*
X03965039D02*
Y02502509D01*
X03958791Y02496261D01*
X03967122D01*
X03971287Y02500426D02*
X03973370Y02502509D01*
X03977535D01*
X03979618Y02500426D01*
Y02492095D01*
X03977535Y02490013D01*
X03973370D01*
X03971287Y02492095D01*
Y02500426D01*
X03927882D02*
X03929965Y02502509D01*
X03934130D01*
X03936213Y02500426D01*
Y02492095D01*
X03934130Y02490013D01*
X03929965D01*
X03927882Y02492095D01*
Y02500426D01*
X03940378Y02490013D02*
Y02492095D01*
X03942461D01*
Y02490013D01*
X03940378D01*
X03957039D02*
Y02502509D01*
X03950791Y02496261D01*
X03959122D01*
X03963287Y02500426D02*
X03965370Y02502509D01*
X03969535D01*
X03971618Y02500426D01*
Y02492095D01*
X03969535Y02490013D01*
X03965370D01*
X03963287Y02492095D01*
Y02500426D01*
X04330882Y02500386D02*
X04332965Y02502468D01*
X04337130D01*
X04339213Y02500386D01*
Y02492055D01*
X04337130Y02489972D01*
X04332965D01*
X04330882Y02492055D01*
Y02500386D01*
X04343378Y02489972D02*
Y02492055D01*
X04345461D01*
Y02489972D01*
X04343378D01*
X04360039D02*
Y02502468D01*
X04353791Y02496220D01*
X04362122D01*
X04366287Y02500386D02*
X04368370Y02502468D01*
X04372535D01*
X04374618Y02500386D01*
Y02492055D01*
X04372535Y02489972D01*
X04368370D01*
X04366287Y02492055D01*
Y02500386D01*
X04322882Y02500386D02*
X04324965Y02502468D01*
X04329130D01*
X04331213Y02500386D01*
Y02492055D01*
X04329130Y02489972D01*
X04324965D01*
X04322882Y02492055D01*
Y02500386D01*
X04335378Y02489972D02*
Y02492055D01*
X04337461D01*
Y02489972D01*
X04335378D01*
X04352039D02*
Y02502468D01*
X04345791Y02496220D01*
X04354122D01*
X04358287Y02500386D02*
X04360370Y02502468D01*
X04364535D01*
X04366618Y02500386D01*
Y02492055D01*
X04364535Y02489972D01*
X04360370D01*
X04358287Y02492055D01*
Y02500386D01*
X04314882D02*
X04316965Y02502468D01*
X04321130D01*
X04323213Y02500386D01*
Y02492055D01*
X04321130Y02489972D01*
X04316965D01*
X04314882Y02492055D01*
Y02500386D01*
X04327378Y02489972D02*
Y02492055D01*
X04329461D01*
Y02489972D01*
X04327378D01*
X04344039D02*
Y02502468D01*
X04337791Y02496220D01*
X04346122D01*
X04350287Y02500386D02*
X04352370Y02502468D01*
X04356535D01*
X04358618Y02500386D01*
Y02492055D01*
X04356535Y02489972D01*
X04352370D01*
X04350287Y02492055D01*
Y02500386D01*
X04306882D02*
X04308965Y02502468D01*
X04313130D01*
X04315213Y02500386D01*
Y02492055D01*
X04313130Y02489972D01*
X04308965D01*
X04306882Y02492055D01*
Y02500386D01*
X04319378Y02489972D02*
Y02492055D01*
X04321461D01*
Y02489972D01*
X04319378D01*
X04336039D02*
Y02502468D01*
X04329791Y02496220D01*
X04338122D01*
X04342287Y02500386D02*
X04344370Y02502468D01*
X04348535D01*
X04350618Y02500386D01*
Y02492055D01*
X04348535Y02489972D01*
X04344370D01*
X04342287Y02492055D01*
Y02500386D01*
X04298882D02*
X04300965Y02502468D01*
X04305130D01*
X04307213Y02500386D01*
Y02492055D01*
X04305130Y02489972D01*
X04300965D01*
X04298882Y02492055D01*
Y02500386D01*
X04311378Y02489972D02*
Y02492055D01*
X04313461D01*
Y02489972D01*
X04311378D01*
X04328039D02*
Y02502468D01*
X04321791Y02496220D01*
X04330122D01*
X04334287Y02500386D02*
X04336370Y02502468D01*
X04340535D01*
X04342618Y02500386D01*
Y02492055D01*
X04340535Y02489972D01*
X04336370D01*
X04334287Y02492055D01*
Y02500386D01*
M02*
