M48
;Layer_Color=9474304
;FILE_FORMAT=4:2
METRIC
;TYPE=PLATED
T02F00S00C0.90
;TYPE=NON_PLATED
T03F00S00C0.40
%
T02
X035861Y016496
X038361
Y018496
X035861Y019496
X040482Y018496
Y016496
X042602Y016496
Y018496
X044723Y018496
Y016496
X047223Y016496
Y018496
X049343Y018496
Y016496
X051464Y016496
Y018496
X053584Y018496
Y016496
Y020496
Y022496
X051464Y022496
Y020496
X049343Y020496
Y022496
X047223Y022496
Y020496
X044723Y020496
Y022496
X042602Y022496
Y020496
X040482Y020496
Y022496
X038361Y022496
Y020496
X035861Y022496
Y025496
X038361Y025496
X040482Y025496
X042602Y025496
X044723Y025496
X047223Y025496
X049343Y025496
X051464Y025496
X053584Y025496
T03
X035702Y018526
Y018975
X035782Y018975
X035862
X035942
X036022
Y018526
X035942
X035862
X035782
X036888Y017386
Y017306
Y017226
Y017146
X036888Y017066
X037335
X037335Y017146
Y017226
Y017306
Y017386
X045749
Y017306
Y017226
Y017146
X045749Y017066
X046198
X046198Y017146
Y017226
Y017306
Y017386
X046198Y020094
X046198Y020174
Y020254
Y020334
Y020414
X045749
Y020334
Y020254
Y020174
X045749Y020094
X045749Y023128
X045749Y023208
Y023288
Y023368
Y023448
X046199
Y023368
Y023288
Y023208
X046199Y023128
X037335
X037335Y023208
Y023288
Y023368
Y023448
X036888
Y023368
Y023288
Y023208
X036888Y023128
X036022Y021977
X035942
X035862
X035782
Y021525
X035862
X035942
X036022
X036888Y020414
Y020334
Y020254
Y020174
X036888Y020094
X037335
X037335Y020174
Y020254
Y020334
Y020414
X035702Y021525
Y021977
Y024525
Y024976
X035782Y024976
X035862
X035942
X036022
Y024525
X035942
X035862
X035782
X036888Y026110
X036888Y026190
Y026270
Y026350
Y026430
X037335
Y026350
Y026270
Y026190
X037335Y026110
X039510Y024975
X039590
X039670
Y024524
X039590
X039510
X039750
X039830Y024524
Y024975
X039750Y024975
X043220Y024975
X043300
X043380
X043460
X043540Y024975
Y024524
X043460Y024524
X043380
X043300
X043220
X045749Y026110
X045749Y026190
Y026270
Y026350
Y026430
X046198
Y026350
Y026270
Y026190
X046198Y026110
X048404Y024975
X048484
X048564
X048644
X048724Y024975
Y024524
X048644Y024524
X048564
X048484
X048404
X052070
X052150
X052230
X052310
X052390Y024524
Y024976
X052310Y024976
X052230
X052150
X052070
M30
