G04*
G04 #@! TF.GenerationSoftware,Altium Limited,Altium Designer,24.9.1 (31)*
G04*
G04 Layer_Color=255*
%FSAX44Y44*%
%MOMM*%
G71*
G04*
G04 #@! TF.SameCoordinates,745B905A-5BD3-434C-A7EB-C02F30317D31*
G04*
G04*
G04 #@! TF.FilePolarity,Positive*
G04*
G01*
G75*
%ADD16C,0.1500*%
%ADD17C,0.1500*%
D16*
X04622299Y02750009D02*
X04622300Y02750009D01*
X05458451Y02750009D02*
G03*
X05458450Y02750009I00000000J00000001D01*
G01*
X04617220Y02645000D02*
G03*
X04622299Y02650080I00000000J00005080D01*
G01*
Y02603920D02*
G03*
X04617220Y02609000I-00005080J00000000D01*
G01*
X04577381D02*
G03*
X04572301Y02603920I00000000J-00005080D01*
G01*
X05246080Y02500004D02*
G03*
X05241000Y02494924I00000000J-00005080D01*
G01*
X05205000D02*
G03*
X05199920Y02500004I-00005080J00000000D01*
G01*
X04879480D02*
G03*
X04874400Y02494924I00000000J-00005080D01*
G01*
X04838400D02*
G03*
X04833320Y02500004I-00005080J00000000D01*
G01*
X04572301Y02650080D02*
G03*
X04577381Y02645000I00005080J00000000D01*
G01*
X03949000Y02494924D02*
G03*
X03943920Y02500004I-00005080J00000000D01*
G01*
X04320000Y02494924D02*
G03*
X04314920Y02500004I-00005080J00000000D01*
G01*
X04360880D02*
G03*
X04355800Y02494924I00000000J-00005080D01*
G01*
X03990080Y02500004D02*
G03*
X03985000Y02494924I00000000J-00005080D01*
G01*
X05199920Y02450005D02*
G03*
X05205000Y02455085I00000000J00005080D01*
G01*
X04874400D02*
G03*
X04879480Y02450005I00005080J00000000D01*
G01*
X04833320D02*
G03*
X04838400Y02455085I00000000J00005080D01*
G01*
X05241000Y02455085D02*
G03*
X05246080Y02450005I00005080J00000000D01*
G01*
X04617220Y02346600D02*
G03*
X04622299Y02351680I00000000J00005080D01*
G01*
Y02305720D02*
G03*
X04617220Y02310800I-00005080J00000000D01*
G01*
X04577381D02*
G03*
X04572301Y02305720I00000000J-00005080D01*
G01*
X04617220Y02043400D02*
G03*
X04622299Y02048480I00000000J00005080D01*
G01*
X04572301D02*
G03*
X04577381Y02043400I00005080J00000000D01*
G01*
X04622299Y02002320D02*
G03*
X04617220Y02007400I-00005080J00000000D01*
G01*
X04577381D02*
G03*
X04572301Y02002320I00000000J-00005080D01*
G01*
X04617220Y01740600D02*
G03*
X04622299Y01745680I00000000J00005080D01*
G01*
X04572301D02*
G03*
X04577381Y01740600I00005080J00000000D01*
G01*
X04622299Y01699520D02*
G03*
X04617220Y01704600I-00005080J00000000D01*
G01*
X05458452Y01599998D02*
G03*
X05458451Y01599999I00000000J00000001D01*
G01*
X05458450Y01599998D02*
G03*
X05458450Y01599999I00000000J00000001D01*
G01*
X04572301Y02351680D02*
G03*
X04577381Y02346600I00005080J00000000D01*
G01*
X04577381Y01704600D02*
G03*
X04572301Y01699520I00000000J-00005080D01*
G01*
X04355800Y02455085D02*
G03*
X04360880Y02450005I00005080J00000000D01*
G01*
X04314920Y02450006D02*
G03*
X04320000Y02455086I00000000J00005080D01*
G01*
X03985000D02*
G03*
X03990080Y02450006I00005080J00000000D01*
G01*
X03943920D02*
G03*
X03949000Y02455086I00000000J00005080D01*
G01*
X03731070Y02645000D02*
G03*
X03736150Y02650080I00000000J00005080D01*
G01*
X03686151D02*
G03*
X03691230Y02645000I00005080J00000000D01*
G01*
X03736150Y02603720D02*
G03*
X03731070Y02608800I-00005080J00000000D01*
G01*
X03691231D02*
G03*
X03686151Y02603720I00000000J-00005080D01*
G01*
X03609280Y02500000D02*
G03*
X03604200Y02494920I00000000J-00005080D01*
G01*
Y02455082D02*
G03*
X03609280Y02450002I00005080J00000000D01*
G01*
X03731070Y02346800D02*
G03*
X03736150Y02351880I00000000J00005080D01*
G01*
X03686151D02*
G03*
X03691231Y02346800I00005080J00000000D01*
G01*
X03691231Y02310800D02*
G03*
X03686151Y02305720I00000000J-00005080D01*
G01*
X03736150D02*
G03*
X03731070Y02310800I-00005080J00000000D01*
G01*
X03609280Y02200000D02*
G03*
X03604200Y02194920I00000000J-00005080D01*
G01*
Y02155081D02*
G03*
X03609280Y02150001I00005080J00000000D01*
G01*
X03686151Y02048480D02*
G03*
X03691231Y02043400I00005080J00000000D01*
G01*
X03731070D02*
G03*
X03736150Y02048480I00000000J00005080D01*
G01*
X03563120Y02450002D02*
G03*
X03568200Y02455082I00000000J00005080D01*
G01*
Y02494920D02*
G03*
X03563120Y02500000I-00005080J00000000D01*
G01*
X03568200Y02194920D02*
G03*
X03563120Y02200000I-00005080J00000000D01*
G01*
Y02150001D02*
G03*
X03568200Y02155081I00000000J00005080D01*
G01*
X03736150Y02002120D02*
G03*
X03731070Y02007200I-00005080J00000000D01*
G01*
Y01740800D02*
G03*
X03736150Y01745880I00000000J00005080D01*
G01*
Y01699320D02*
G03*
X03731070Y01704400I-00005080J00000000D01*
G01*
X03686151Y01745880D02*
G03*
X03691230Y01740800I00005080J00000000D01*
G01*
Y01704400D02*
G03*
X03686151Y01699320I00000000J-00005080D01*
G01*
X03691230Y02007200D02*
G03*
X03686151Y02002120I00000000J-00005080D01*
G01*
X03686151Y01599999D02*
X03686151Y01599999D01*
X03609480Y01899999D02*
G03*
X03604400Y01894919I00000000J-00005080D01*
G01*
Y01855081D02*
G03*
X03609480Y01850001I00005080J00000000D01*
G01*
X03562920Y01850001D02*
G03*
X03568000Y01855081I00000000J00005080D01*
G01*
Y01894919D02*
G03*
X03562920Y01899999I-00005080J00000000D01*
G01*
X04622300Y02750009D02*
X05458450D01*
X04622299Y02650080D02*
Y02750010D01*
X04577381Y02645000D02*
X04617220D01*
X05458451Y02500004D02*
Y02750009D01*
X04577381Y02609000D02*
X04617220D01*
X04622299Y02500004D02*
Y02603920D01*
X05246080Y02500004D02*
X05458451D01*
X05134875D02*
X05199920D01*
X04879480D02*
X05134875D01*
X04622299D02*
X04833320D01*
X05205000Y02455085D02*
Y02494924D01*
X04874400Y02455085D02*
Y02494924D01*
X04838400Y02455085D02*
Y02494924D01*
X04572301Y02500004D02*
Y02603920D01*
X04572301Y02650080D02*
Y02750010D01*
X04360880Y02500004D02*
X04572301D01*
X04271085D02*
X04314920D01*
X03736150D02*
X03943920D01*
X03990080D02*
X04271085D01*
X04320000Y02455086D02*
Y02494924D01*
X03985000Y02455086D02*
Y02494924D01*
X03949000Y02455086D02*
Y02494924D01*
X04355800Y02455085D02*
Y02494924D01*
X03736150Y02750010D02*
X04572301D01*
X05241000Y02455085D02*
Y02494924D01*
X04622299Y02450005D02*
X04833320D01*
X04879480D02*
X05199920D01*
X05246080Y02450005D02*
X05458451D01*
X04622299Y02351680D02*
Y02450005D01*
X04577381Y02346600D02*
X04617220D01*
X04577381Y02310800D02*
X04617220D01*
X04622299Y02048480D02*
Y02305720D01*
X04577381Y02043400D02*
X04617220D01*
X05458451Y01599999D02*
Y02450005D01*
X04577381Y02007400D02*
X04617220D01*
X04622299Y01745680D02*
Y02002320D01*
X04577381Y01740600D02*
X04617220D01*
X04577381Y01704600D02*
X04617220D01*
X04622299Y01599999D02*
Y01699520D01*
Y01599999D02*
X05458452D01*
X04572301Y01745680D02*
Y01997309D01*
Y02002320D01*
X04572301Y02048480D02*
Y02300650D01*
Y02305720D01*
X04572301Y02351680D02*
Y02450005D01*
X04572301Y01599999D02*
Y01699520D01*
X04360880Y02450005D02*
X04572301D01*
X03736150Y01599999D02*
X04572301D01*
X03990080Y02450006D02*
X04314920D01*
X03736150D02*
X03943920D01*
X03736150Y02650080D02*
Y02750010D01*
X03686151Y02650080D02*
Y02750002D01*
X03691230Y02645000D02*
X03731070D01*
X03691231Y02608800D02*
X03731070D01*
X03736150Y02500004D02*
Y02603720D01*
X03686151Y02500000D02*
Y02603720D01*
X03609280Y02500000D02*
X03686151D01*
X03609280Y02450002D02*
X03686151D01*
X03736150Y02351880D02*
Y02450006D01*
X03686151Y02351880D02*
Y02450002D01*
X03691231Y02346800D02*
X03731070D01*
X03691231Y02310800D02*
X03731070D01*
X03686151Y02297000D02*
Y02305720D01*
Y02200000D02*
Y02297000D01*
X03609280Y02200000D02*
X03686151D01*
X03736150Y02048480D02*
Y02305720D01*
X03609280Y02150001D02*
X03686151D01*
Y02048480D02*
Y02150001D01*
X03604200Y02455082D02*
Y02494920D01*
Y02155081D02*
Y02194920D01*
X03486149Y02750002D02*
X03686151D01*
X03568200Y02455082D02*
Y02494920D01*
Y02155081D02*
Y02194920D01*
X03486149Y02150001D02*
X03563120D01*
X03486149Y02200000D02*
X03563120D01*
X03486149Y02500000D02*
X03563120D01*
X03486149Y02450002D02*
X03563120D01*
X03486149Y02200000D02*
Y02450002D01*
Y02500000D02*
Y02750009D01*
X03736150Y01599999D02*
Y01699320D01*
Y01745880D02*
Y02002120D01*
X03691231Y02043400D02*
X03731070D01*
X03691230Y01704400D02*
X03731070D01*
X03691230Y01740800D02*
X03731070D01*
X03691230Y02007200D02*
X03731070D01*
X03686151Y01599999D02*
Y01599999D01*
X03686151Y01599999D02*
Y01699320D01*
Y01745880D02*
Y01850001D01*
X03686151Y01899999D02*
Y02002120D01*
X03609480Y01850001D02*
X03686151D01*
X03609480Y01899999D02*
X03686151D01*
X03604400Y01855081D02*
Y01894919D01*
X03486149Y01599999D02*
X03686151D01*
X03568000Y01855081D02*
Y01894919D01*
X03486149Y01899999D02*
X03562920D01*
X03486149Y01850001D02*
X03562920D01*
X03486149Y01599999D02*
Y01850001D01*
X03486149Y01899999D02*
Y02150001D01*
D17*
D03*
Y01899999D02*
D03*
Y01599999D02*
D03*
M02*
